%TF.GenerationSoftware,KiCad,Pcbnew,7.0.10*%
%TF.CreationDate,2024-02-06T01:37:56+08:00*%
%TF.ProjectId,Deej,4465656a-2e6b-4696-9361-645f70636258,rev?*%
%TF.SameCoordinates,Original*%
%TF.FileFunction,Drillmap*%
%TF.FilePolarity,Positive*%
%FSLAX45Y45*%
G04 Gerber Fmt 4.5, Leading zero omitted, Abs format (unit mm)*
G04 Created by KiCad (PCBNEW 7.0.10) date 2024-02-06 01:37:56*
%MOMM*%
%LPD*%
G01*
G04 APERTURE LIST*
%ADD10C,0.100000*%
%ADD11C,0.200000*%
G04 APERTURE END LIST*
D10*
X7241000Y-4304500D02*
X21717000Y-4304500D01*
X21717000Y-15370500D01*
X7241000Y-15370500D01*
X7241000Y-4304500D01*
D11*
X7496777Y-15686984D02*
X7496777Y-15486984D01*
X7496777Y-15486984D02*
X7544396Y-15486984D01*
X7544396Y-15486984D02*
X7572967Y-15496508D01*
X7572967Y-15496508D02*
X7592015Y-15515555D01*
X7592015Y-15515555D02*
X7601539Y-15534603D01*
X7601539Y-15534603D02*
X7611062Y-15572698D01*
X7611062Y-15572698D02*
X7611062Y-15601269D01*
X7611062Y-15601269D02*
X7601539Y-15639365D01*
X7601539Y-15639365D02*
X7592015Y-15658412D01*
X7592015Y-15658412D02*
X7572967Y-15677460D01*
X7572967Y-15677460D02*
X7544396Y-15686984D01*
X7544396Y-15686984D02*
X7496777Y-15686984D01*
X7696777Y-15686984D02*
X7696777Y-15553650D01*
X7696777Y-15591746D02*
X7706301Y-15572698D01*
X7706301Y-15572698D02*
X7715824Y-15563174D01*
X7715824Y-15563174D02*
X7734872Y-15553650D01*
X7734872Y-15553650D02*
X7753920Y-15553650D01*
X7820586Y-15686984D02*
X7820586Y-15553650D01*
X7820586Y-15486984D02*
X7811062Y-15496508D01*
X7811062Y-15496508D02*
X7820586Y-15506031D01*
X7820586Y-15506031D02*
X7830110Y-15496508D01*
X7830110Y-15496508D02*
X7820586Y-15486984D01*
X7820586Y-15486984D02*
X7820586Y-15506031D01*
X7944396Y-15686984D02*
X7925348Y-15677460D01*
X7925348Y-15677460D02*
X7915824Y-15658412D01*
X7915824Y-15658412D02*
X7915824Y-15486984D01*
X8049158Y-15686984D02*
X8030110Y-15677460D01*
X8030110Y-15677460D02*
X8020586Y-15658412D01*
X8020586Y-15658412D02*
X8020586Y-15486984D01*
X8277729Y-15686984D02*
X8277729Y-15486984D01*
X8277729Y-15486984D02*
X8344396Y-15629841D01*
X8344396Y-15629841D02*
X8411063Y-15486984D01*
X8411063Y-15486984D02*
X8411063Y-15686984D01*
X8592015Y-15686984D02*
X8592015Y-15582222D01*
X8592015Y-15582222D02*
X8582491Y-15563174D01*
X8582491Y-15563174D02*
X8563444Y-15553650D01*
X8563444Y-15553650D02*
X8525348Y-15553650D01*
X8525348Y-15553650D02*
X8506301Y-15563174D01*
X8592015Y-15677460D02*
X8572967Y-15686984D01*
X8572967Y-15686984D02*
X8525348Y-15686984D01*
X8525348Y-15686984D02*
X8506301Y-15677460D01*
X8506301Y-15677460D02*
X8496777Y-15658412D01*
X8496777Y-15658412D02*
X8496777Y-15639365D01*
X8496777Y-15639365D02*
X8506301Y-15620317D01*
X8506301Y-15620317D02*
X8525348Y-15610793D01*
X8525348Y-15610793D02*
X8572967Y-15610793D01*
X8572967Y-15610793D02*
X8592015Y-15601269D01*
X8687253Y-15553650D02*
X8687253Y-15753650D01*
X8687253Y-15563174D02*
X8706301Y-15553650D01*
X8706301Y-15553650D02*
X8744396Y-15553650D01*
X8744396Y-15553650D02*
X8763444Y-15563174D01*
X8763444Y-15563174D02*
X8772967Y-15572698D01*
X8772967Y-15572698D02*
X8782491Y-15591746D01*
X8782491Y-15591746D02*
X8782491Y-15648888D01*
X8782491Y-15648888D02*
X8772967Y-15667936D01*
X8772967Y-15667936D02*
X8763444Y-15677460D01*
X8763444Y-15677460D02*
X8744396Y-15686984D01*
X8744396Y-15686984D02*
X8706301Y-15686984D01*
X8706301Y-15686984D02*
X8687253Y-15677460D01*
X8868205Y-15667936D02*
X8877729Y-15677460D01*
X8877729Y-15677460D02*
X8868205Y-15686984D01*
X8868205Y-15686984D02*
X8858682Y-15677460D01*
X8858682Y-15677460D02*
X8868205Y-15667936D01*
X8868205Y-15667936D02*
X8868205Y-15686984D01*
X8868205Y-15563174D02*
X8877729Y-15572698D01*
X8877729Y-15572698D02*
X8868205Y-15582222D01*
X8868205Y-15582222D02*
X8858682Y-15572698D01*
X8858682Y-15572698D02*
X8868205Y-15563174D01*
X8868205Y-15563174D02*
X8868205Y-15582222D01*
M02*
