%TF.GenerationSoftware,KiCad,Pcbnew,7.0.10*%
%TF.CreationDate,2024-02-06T01:37:56+08:00*%
%TF.ProjectId,Deej,4465656a-2e6b-4696-9361-645f70636258,rev?*%
%TF.SameCoordinates,Original*%
%TF.FileFunction,Drillmap*%
%TF.FilePolarity,Positive*%
%FSLAX45Y45*%
G04 Gerber Fmt 4.5, Leading zero omitted, Abs format (unit mm)*
G04 Created by KiCad (PCBNEW 7.0.10) date 2024-02-06 01:37:56*
%MOMM*%
%LPD*%
G01*
G04 APERTURE LIST*
%ADD10C,0.100000*%
%ADD11C,0.200000*%
%ADD12C,0.150000*%
G04 APERTURE END LIST*
D10*
X7241000Y-4304500D02*
X21717000Y-4304500D01*
X21717000Y-15370500D01*
X7241000Y-15370500D01*
X7241000Y-4304500D01*
D11*
D10*
X7727000Y-11156000D02*
X7767000Y-11196000D01*
X7767000Y-11156000D02*
X7727000Y-11196000D01*
X8997000Y-4806000D02*
X9037000Y-4846000D01*
X9037000Y-4806000D02*
X8997000Y-4846000D01*
X9632000Y-11156000D02*
X9672000Y-11196000D01*
X9672000Y-11156000D02*
X9632000Y-11196000D01*
X11664000Y-11156000D02*
X11704000Y-11196000D01*
X11704000Y-11156000D02*
X11664000Y-11196000D01*
X13696000Y-11156000D02*
X13736000Y-11196000D01*
X13736000Y-11156000D02*
X13696000Y-11196000D01*
X15728000Y-11156000D02*
X15768000Y-11196000D01*
X15768000Y-11156000D02*
X15728000Y-11196000D01*
X17760000Y-11156000D02*
X17800000Y-11196000D01*
X17800000Y-11156000D02*
X17760000Y-11196000D01*
X19792000Y-11156000D02*
X19832000Y-11196000D01*
X19832000Y-11156000D02*
X19792000Y-11196000D01*
X9563100Y-14491500D02*
G75*
G03*
X9486900Y-14491500I-38100J0D01*
G01*
X9486900Y-14491500D02*
G75*
G03*
X9563100Y-14491500I38100J0D01*
G01*
X9817100Y-7491500D02*
G75*
G03*
X9740900Y-7491500I-38100J0D01*
G01*
X9740900Y-7491500D02*
G75*
G03*
X9817100Y-7491500I38100J0D01*
G01*
X9817100Y-14491500D02*
G75*
G03*
X9740900Y-14491500I-38100J0D01*
G01*
X9740900Y-14491500D02*
G75*
G03*
X9817100Y-14491500I38100J0D01*
G01*
X9944100Y-5080000D02*
G75*
G03*
X9867900Y-5080000I-38100J0D01*
G01*
X9867900Y-5080000D02*
G75*
G03*
X9944100Y-5080000I38100J0D01*
G01*
X9944100Y-5334000D02*
G75*
G03*
X9867900Y-5334000I-38100J0D01*
G01*
X9867900Y-5334000D02*
G75*
G03*
X9944100Y-5334000I38100J0D01*
G01*
X9944100Y-5588000D02*
G75*
G03*
X9867900Y-5588000I-38100J0D01*
G01*
X9867900Y-5588000D02*
G75*
G03*
X9944100Y-5588000I38100J0D01*
G01*
X10071100Y-14491500D02*
G75*
G03*
X9994900Y-14491500I-38100J0D01*
G01*
X9994900Y-14491500D02*
G75*
G03*
X10071100Y-14491500I38100J0D01*
G01*
X10325100Y-7491500D02*
G75*
G03*
X10248900Y-7491500I-38100J0D01*
G01*
X10248900Y-7491500D02*
G75*
G03*
X10325100Y-7491500I38100J0D01*
G01*
X10325100Y-14491500D02*
G75*
G03*
X10248900Y-14491500I-38100J0D01*
G01*
X10248900Y-14491500D02*
G75*
G03*
X10325100Y-14491500I38100J0D01*
G01*
X10579171Y-4952929D02*
G75*
G03*
X10502971Y-4952929I-38100J0D01*
G01*
X10502971Y-4952929D02*
G75*
G03*
X10579171Y-4952929I38100J0D01*
G01*
X10579171Y-5714929D02*
G75*
G03*
X10502971Y-5714929I-38100J0D01*
G01*
X10502971Y-5714929D02*
G75*
G03*
X10579171Y-5714929I38100J0D01*
G01*
X10833171Y-4952929D02*
G75*
G03*
X10756971Y-4952929I-38100J0D01*
G01*
X10756971Y-4952929D02*
G75*
G03*
X10833171Y-4952929I38100J0D01*
G01*
X10833171Y-5714929D02*
G75*
G03*
X10756971Y-5714929I-38100J0D01*
G01*
X10756971Y-5714929D02*
G75*
G03*
X10833171Y-5714929I38100J0D01*
G01*
X11087171Y-4952929D02*
G75*
G03*
X11010971Y-4952929I-38100J0D01*
G01*
X11010971Y-4952929D02*
G75*
G03*
X11087171Y-4952929I38100J0D01*
G01*
X11087171Y-5714929D02*
G75*
G03*
X11010971Y-5714929I-38100J0D01*
G01*
X11010971Y-5714929D02*
G75*
G03*
X11087171Y-5714929I38100J0D01*
G01*
X11595100Y-14491500D02*
G75*
G03*
X11518900Y-14491500I-38100J0D01*
G01*
X11518900Y-14491500D02*
G75*
G03*
X11595100Y-14491500I38100J0D01*
G01*
X11849100Y-7491500D02*
G75*
G03*
X11772900Y-7491500I-38100J0D01*
G01*
X11772900Y-7491500D02*
G75*
G03*
X11849100Y-7491500I38100J0D01*
G01*
X11849100Y-14491500D02*
G75*
G03*
X11772900Y-14491500I-38100J0D01*
G01*
X11772900Y-14491500D02*
G75*
G03*
X11849100Y-14491500I38100J0D01*
G01*
X11976100Y-5080000D02*
G75*
G03*
X11899900Y-5080000I-38100J0D01*
G01*
X11899900Y-5080000D02*
G75*
G03*
X11976100Y-5080000I38100J0D01*
G01*
X11976100Y-5334000D02*
G75*
G03*
X11899900Y-5334000I-38100J0D01*
G01*
X11899900Y-5334000D02*
G75*
G03*
X11976100Y-5334000I38100J0D01*
G01*
X11976100Y-5588000D02*
G75*
G03*
X11899900Y-5588000I-38100J0D01*
G01*
X11899900Y-5588000D02*
G75*
G03*
X11976100Y-5588000I38100J0D01*
G01*
X12103100Y-14491500D02*
G75*
G03*
X12026900Y-14491500I-38100J0D01*
G01*
X12026900Y-14491500D02*
G75*
G03*
X12103100Y-14491500I38100J0D01*
G01*
X12357100Y-7491500D02*
G75*
G03*
X12280900Y-7491500I-38100J0D01*
G01*
X12280900Y-7491500D02*
G75*
G03*
X12357100Y-7491500I38100J0D01*
G01*
X12357100Y-14491500D02*
G75*
G03*
X12280900Y-14491500I-38100J0D01*
G01*
X12280900Y-14491500D02*
G75*
G03*
X12357100Y-14491500I38100J0D01*
G01*
X12611100Y-4953000D02*
G75*
G03*
X12534900Y-4953000I-38100J0D01*
G01*
X12534900Y-4953000D02*
G75*
G03*
X12611100Y-4953000I38100J0D01*
G01*
X12611100Y-5715000D02*
G75*
G03*
X12534900Y-5715000I-38100J0D01*
G01*
X12534900Y-5715000D02*
G75*
G03*
X12611100Y-5715000I38100J0D01*
G01*
X12865100Y-4953000D02*
G75*
G03*
X12788900Y-4953000I-38100J0D01*
G01*
X12788900Y-4953000D02*
G75*
G03*
X12865100Y-4953000I38100J0D01*
G01*
X12865100Y-5715000D02*
G75*
G03*
X12788900Y-5715000I-38100J0D01*
G01*
X12788900Y-5715000D02*
G75*
G03*
X12865100Y-5715000I38100J0D01*
G01*
X13119100Y-4953000D02*
G75*
G03*
X13042900Y-4953000I-38100J0D01*
G01*
X13042900Y-4953000D02*
G75*
G03*
X13119100Y-4953000I38100J0D01*
G01*
X13119100Y-5715000D02*
G75*
G03*
X13042900Y-5715000I-38100J0D01*
G01*
X13042900Y-5715000D02*
G75*
G03*
X13119100Y-5715000I38100J0D01*
G01*
X13627100Y-14491500D02*
G75*
G03*
X13550900Y-14491500I-38100J0D01*
G01*
X13550900Y-14491500D02*
G75*
G03*
X13627100Y-14491500I38100J0D01*
G01*
X13881100Y-7491500D02*
G75*
G03*
X13804900Y-7491500I-38100J0D01*
G01*
X13804900Y-7491500D02*
G75*
G03*
X13881100Y-7491500I38100J0D01*
G01*
X13881100Y-14491500D02*
G75*
G03*
X13804900Y-14491500I-38100J0D01*
G01*
X13804900Y-14491500D02*
G75*
G03*
X13881100Y-14491500I38100J0D01*
G01*
X14008100Y-5080000D02*
G75*
G03*
X13931900Y-5080000I-38100J0D01*
G01*
X13931900Y-5080000D02*
G75*
G03*
X14008100Y-5080000I38100J0D01*
G01*
X14008100Y-5334000D02*
G75*
G03*
X13931900Y-5334000I-38100J0D01*
G01*
X13931900Y-5334000D02*
G75*
G03*
X14008100Y-5334000I38100J0D01*
G01*
X14008100Y-5588000D02*
G75*
G03*
X13931900Y-5588000I-38100J0D01*
G01*
X13931900Y-5588000D02*
G75*
G03*
X14008100Y-5588000I38100J0D01*
G01*
X14135100Y-14491500D02*
G75*
G03*
X14058900Y-14491500I-38100J0D01*
G01*
X14058900Y-14491500D02*
G75*
G03*
X14135100Y-14491500I38100J0D01*
G01*
X14389100Y-7491500D02*
G75*
G03*
X14312900Y-7491500I-38100J0D01*
G01*
X14312900Y-7491500D02*
G75*
G03*
X14389100Y-7491500I38100J0D01*
G01*
X14389100Y-14491500D02*
G75*
G03*
X14312900Y-14491500I-38100J0D01*
G01*
X14312900Y-14491500D02*
G75*
G03*
X14389100Y-14491500I38100J0D01*
G01*
X14643100Y-4953000D02*
G75*
G03*
X14566900Y-4953000I-38100J0D01*
G01*
X14566900Y-4953000D02*
G75*
G03*
X14643100Y-4953000I38100J0D01*
G01*
X14643100Y-5715000D02*
G75*
G03*
X14566900Y-5715000I-38100J0D01*
G01*
X14566900Y-5715000D02*
G75*
G03*
X14643100Y-5715000I38100J0D01*
G01*
X14897100Y-4953000D02*
G75*
G03*
X14820900Y-4953000I-38100J0D01*
G01*
X14820900Y-4953000D02*
G75*
G03*
X14897100Y-4953000I38100J0D01*
G01*
X14897100Y-5715000D02*
G75*
G03*
X14820900Y-5715000I-38100J0D01*
G01*
X14820900Y-5715000D02*
G75*
G03*
X14897100Y-5715000I38100J0D01*
G01*
X15151100Y-4953000D02*
G75*
G03*
X15074900Y-4953000I-38100J0D01*
G01*
X15074900Y-4953000D02*
G75*
G03*
X15151100Y-4953000I38100J0D01*
G01*
X15151100Y-5715000D02*
G75*
G03*
X15074900Y-5715000I-38100J0D01*
G01*
X15074900Y-5715000D02*
G75*
G03*
X15151100Y-5715000I38100J0D01*
G01*
X15659100Y-14491500D02*
G75*
G03*
X15582900Y-14491500I-38100J0D01*
G01*
X15582900Y-14491500D02*
G75*
G03*
X15659100Y-14491500I38100J0D01*
G01*
X15913100Y-7491500D02*
G75*
G03*
X15836900Y-7491500I-38100J0D01*
G01*
X15836900Y-7491500D02*
G75*
G03*
X15913100Y-7491500I38100J0D01*
G01*
X15913100Y-14491500D02*
G75*
G03*
X15836900Y-14491500I-38100J0D01*
G01*
X15836900Y-14491500D02*
G75*
G03*
X15913100Y-14491500I38100J0D01*
G01*
X16040100Y-5080000D02*
G75*
G03*
X15963900Y-5080000I-38100J0D01*
G01*
X15963900Y-5080000D02*
G75*
G03*
X16040100Y-5080000I38100J0D01*
G01*
X16040100Y-5334000D02*
G75*
G03*
X15963900Y-5334000I-38100J0D01*
G01*
X15963900Y-5334000D02*
G75*
G03*
X16040100Y-5334000I38100J0D01*
G01*
X16040100Y-5588000D02*
G75*
G03*
X15963900Y-5588000I-38100J0D01*
G01*
X15963900Y-5588000D02*
G75*
G03*
X16040100Y-5588000I38100J0D01*
G01*
X16167100Y-14491500D02*
G75*
G03*
X16090900Y-14491500I-38100J0D01*
G01*
X16090900Y-14491500D02*
G75*
G03*
X16167100Y-14491500I38100J0D01*
G01*
X16421100Y-7491500D02*
G75*
G03*
X16344900Y-7491500I-38100J0D01*
G01*
X16344900Y-7491500D02*
G75*
G03*
X16421100Y-7491500I38100J0D01*
G01*
X16421100Y-14491500D02*
G75*
G03*
X16344900Y-14491500I-38100J0D01*
G01*
X16344900Y-14491500D02*
G75*
G03*
X16421100Y-14491500I38100J0D01*
G01*
X16675100Y-4953000D02*
G75*
G03*
X16598900Y-4953000I-38100J0D01*
G01*
X16598900Y-4953000D02*
G75*
G03*
X16675100Y-4953000I38100J0D01*
G01*
X16675100Y-5715000D02*
G75*
G03*
X16598900Y-5715000I-38100J0D01*
G01*
X16598900Y-5715000D02*
G75*
G03*
X16675100Y-5715000I38100J0D01*
G01*
X16929100Y-4953000D02*
G75*
G03*
X16852900Y-4953000I-38100J0D01*
G01*
X16852900Y-4953000D02*
G75*
G03*
X16929100Y-4953000I38100J0D01*
G01*
X16929100Y-5715000D02*
G75*
G03*
X16852900Y-5715000I-38100J0D01*
G01*
X16852900Y-5715000D02*
G75*
G03*
X16929100Y-5715000I38100J0D01*
G01*
X17183100Y-4953000D02*
G75*
G03*
X17106900Y-4953000I-38100J0D01*
G01*
X17106900Y-4953000D02*
G75*
G03*
X17183100Y-4953000I38100J0D01*
G01*
X17183100Y-5715000D02*
G75*
G03*
X17106900Y-5715000I-38100J0D01*
G01*
X17106900Y-5715000D02*
G75*
G03*
X17183100Y-5715000I38100J0D01*
G01*
X17691100Y-14491500D02*
G75*
G03*
X17614900Y-14491500I-38100J0D01*
G01*
X17614900Y-14491500D02*
G75*
G03*
X17691100Y-14491500I38100J0D01*
G01*
X17945100Y-7491500D02*
G75*
G03*
X17868900Y-7491500I-38100J0D01*
G01*
X17868900Y-7491500D02*
G75*
G03*
X17945100Y-7491500I38100J0D01*
G01*
X17945100Y-14491500D02*
G75*
G03*
X17868900Y-14491500I-38100J0D01*
G01*
X17868900Y-14491500D02*
G75*
G03*
X17945100Y-14491500I38100J0D01*
G01*
X18072100Y-5066500D02*
G75*
G03*
X17995900Y-5066500I-38100J0D01*
G01*
X17995900Y-5066500D02*
G75*
G03*
X18072100Y-5066500I38100J0D01*
G01*
X18072100Y-5320500D02*
G75*
G03*
X17995900Y-5320500I-38100J0D01*
G01*
X17995900Y-5320500D02*
G75*
G03*
X18072100Y-5320500I38100J0D01*
G01*
X18072100Y-5574500D02*
G75*
G03*
X17995900Y-5574500I-38100J0D01*
G01*
X17995900Y-5574500D02*
G75*
G03*
X18072100Y-5574500I38100J0D01*
G01*
X18199100Y-14491500D02*
G75*
G03*
X18122900Y-14491500I-38100J0D01*
G01*
X18122900Y-14491500D02*
G75*
G03*
X18199100Y-14491500I38100J0D01*
G01*
X18453100Y-7491500D02*
G75*
G03*
X18376900Y-7491500I-38100J0D01*
G01*
X18376900Y-7491500D02*
G75*
G03*
X18453100Y-7491500I38100J0D01*
G01*
X18453100Y-14491500D02*
G75*
G03*
X18376900Y-14491500I-38100J0D01*
G01*
X18376900Y-14491500D02*
G75*
G03*
X18453100Y-14491500I38100J0D01*
G01*
X18707100Y-4952929D02*
G75*
G03*
X18630900Y-4952929I-38100J0D01*
G01*
X18630900Y-4952929D02*
G75*
G03*
X18707100Y-4952929I38100J0D01*
G01*
X18707100Y-5714929D02*
G75*
G03*
X18630900Y-5714929I-38100J0D01*
G01*
X18630900Y-5714929D02*
G75*
G03*
X18707100Y-5714929I38100J0D01*
G01*
X18961100Y-4952929D02*
G75*
G03*
X18884900Y-4952929I-38100J0D01*
G01*
X18884900Y-4952929D02*
G75*
G03*
X18961100Y-4952929I38100J0D01*
G01*
X18961100Y-5714929D02*
G75*
G03*
X18884900Y-5714929I-38100J0D01*
G01*
X18884900Y-5714929D02*
G75*
G03*
X18961100Y-5714929I38100J0D01*
G01*
X19215100Y-4952929D02*
G75*
G03*
X19138900Y-4952929I-38100J0D01*
G01*
X19138900Y-4952929D02*
G75*
G03*
X19215100Y-4952929I38100J0D01*
G01*
X19215100Y-5714929D02*
G75*
G03*
X19138900Y-5714929I-38100J0D01*
G01*
X19138900Y-5714929D02*
G75*
G03*
X19215100Y-5714929I38100J0D01*
G01*
X19723100Y-14491500D02*
G75*
G03*
X19646900Y-14491500I-38100J0D01*
G01*
X19646900Y-14491500D02*
G75*
G03*
X19723100Y-14491500I38100J0D01*
G01*
X19977100Y-7491500D02*
G75*
G03*
X19900900Y-7491500I-38100J0D01*
G01*
X19900900Y-7491500D02*
G75*
G03*
X19977100Y-7491500I38100J0D01*
G01*
X19977100Y-14491500D02*
G75*
G03*
X19900900Y-14491500I-38100J0D01*
G01*
X19900900Y-14491500D02*
G75*
G03*
X19977100Y-14491500I38100J0D01*
G01*
X20104100Y-5080000D02*
G75*
G03*
X20027900Y-5080000I-38100J0D01*
G01*
X20027900Y-5080000D02*
G75*
G03*
X20104100Y-5080000I38100J0D01*
G01*
X20104100Y-5334000D02*
G75*
G03*
X20027900Y-5334000I-38100J0D01*
G01*
X20027900Y-5334000D02*
G75*
G03*
X20104100Y-5334000I38100J0D01*
G01*
X20104100Y-5588000D02*
G75*
G03*
X20027900Y-5588000I-38100J0D01*
G01*
X20027900Y-5588000D02*
G75*
G03*
X20104100Y-5588000I38100J0D01*
G01*
X20231100Y-14491500D02*
G75*
G03*
X20154900Y-14491500I-38100J0D01*
G01*
X20154900Y-14491500D02*
G75*
G03*
X20231100Y-14491500I38100J0D01*
G01*
X20485100Y-7491500D02*
G75*
G03*
X20408900Y-7491500I-38100J0D01*
G01*
X20408900Y-7491500D02*
G75*
G03*
X20485100Y-7491500I38100J0D01*
G01*
X20485100Y-14491500D02*
G75*
G03*
X20408900Y-14491500I-38100J0D01*
G01*
X20408900Y-14491500D02*
G75*
G03*
X20485100Y-14491500I38100J0D01*
G01*
X20739100Y-4953000D02*
G75*
G03*
X20662900Y-4953000I-38100J0D01*
G01*
X20662900Y-4953000D02*
G75*
G03*
X20739100Y-4953000I38100J0D01*
G01*
X20739100Y-5715000D02*
G75*
G03*
X20662900Y-5715000I-38100J0D01*
G01*
X20662900Y-5715000D02*
G75*
G03*
X20739100Y-5715000I38100J0D01*
G01*
X20993100Y-4953000D02*
G75*
G03*
X20916900Y-4953000I-38100J0D01*
G01*
X20916900Y-4953000D02*
G75*
G03*
X20993100Y-4953000I38100J0D01*
G01*
X20993100Y-5715000D02*
G75*
G03*
X20916900Y-5715000I-38100J0D01*
G01*
X20916900Y-5715000D02*
G75*
G03*
X20993100Y-5715000I38100J0D01*
G01*
X21247100Y-4953000D02*
G75*
G03*
X21170900Y-4953000I-38100J0D01*
G01*
X21170900Y-4953000D02*
G75*
G03*
X21247100Y-4953000I38100J0D01*
G01*
X21247100Y-5715000D02*
G75*
G03*
X21170900Y-5715000I-38100J0D01*
G01*
X21170900Y-5715000D02*
G75*
G03*
X21247100Y-5715000I38100J0D01*
G01*
X10414000Y-6056000D02*
X10414000Y-6136000D01*
X10374000Y-6096000D02*
X10454000Y-6096000D01*
X10414000Y-7072000D02*
X10414000Y-7152000D01*
X10374000Y-7112000D02*
X10454000Y-7112000D01*
X10795000Y-6056000D02*
X10795000Y-6136000D01*
X10755000Y-6096000D02*
X10835000Y-6096000D01*
X10795000Y-7072000D02*
X10795000Y-7152000D01*
X10755000Y-7112000D02*
X10835000Y-7112000D01*
X11176000Y-6056000D02*
X11176000Y-6136000D01*
X11136000Y-6096000D02*
X11216000Y-6096000D01*
X11176000Y-7072000D02*
X11176000Y-7152000D01*
X11136000Y-7112000D02*
X11216000Y-7112000D01*
X12446000Y-6056000D02*
X12446000Y-6136000D01*
X12406000Y-6096000D02*
X12486000Y-6096000D01*
X12446000Y-7072000D02*
X12446000Y-7152000D01*
X12406000Y-7112000D02*
X12486000Y-7112000D01*
X12827000Y-6056000D02*
X12827000Y-6136000D01*
X12787000Y-6096000D02*
X12867000Y-6096000D01*
X12827000Y-7072000D02*
X12827000Y-7152000D01*
X12787000Y-7112000D02*
X12867000Y-7112000D01*
X13208000Y-6056000D02*
X13208000Y-6136000D01*
X13168000Y-6096000D02*
X13248000Y-6096000D01*
X13208000Y-7072000D02*
X13208000Y-7152000D01*
X13168000Y-7112000D02*
X13248000Y-7112000D01*
X14478000Y-6056000D02*
X14478000Y-6136000D01*
X14438000Y-6096000D02*
X14518000Y-6096000D01*
X14478000Y-7072000D02*
X14478000Y-7152000D01*
X14438000Y-7112000D02*
X14518000Y-7112000D01*
X14859000Y-6056000D02*
X14859000Y-6136000D01*
X14819000Y-6096000D02*
X14899000Y-6096000D01*
X14859000Y-7072000D02*
X14859000Y-7152000D01*
X14819000Y-7112000D02*
X14899000Y-7112000D01*
X15240000Y-6056000D02*
X15240000Y-6136000D01*
X15200000Y-6096000D02*
X15280000Y-6096000D01*
X15240000Y-7072000D02*
X15240000Y-7152000D01*
X15200000Y-7112000D02*
X15280000Y-7112000D01*
X16510000Y-6056000D02*
X16510000Y-6136000D01*
X16470000Y-6096000D02*
X16550000Y-6096000D01*
X16510000Y-7072000D02*
X16510000Y-7152000D01*
X16470000Y-7112000D02*
X16550000Y-7112000D01*
X16891000Y-6056000D02*
X16891000Y-6136000D01*
X16851000Y-6096000D02*
X16931000Y-6096000D01*
X16891000Y-7072000D02*
X16891000Y-7152000D01*
X16851000Y-7112000D02*
X16931000Y-7112000D01*
X17272000Y-6056000D02*
X17272000Y-6136000D01*
X17232000Y-6096000D02*
X17312000Y-6096000D01*
X17272000Y-7072000D02*
X17272000Y-7152000D01*
X17232000Y-7112000D02*
X17312000Y-7112000D01*
X18542000Y-6056000D02*
X18542000Y-6136000D01*
X18502000Y-6096000D02*
X18582000Y-6096000D01*
X18542000Y-7072000D02*
X18542000Y-7152000D01*
X18502000Y-7112000D02*
X18582000Y-7112000D01*
X18923000Y-6056000D02*
X18923000Y-6136000D01*
X18883000Y-6096000D02*
X18963000Y-6096000D01*
X18923000Y-7072000D02*
X18923000Y-7152000D01*
X18883000Y-7112000D02*
X18963000Y-7112000D01*
X19304000Y-6056000D02*
X19304000Y-6136000D01*
X19264000Y-6096000D02*
X19344000Y-6096000D01*
X19304000Y-7072000D02*
X19304000Y-7152000D01*
X19264000Y-7112000D02*
X19344000Y-7112000D01*
X20574000Y-6056000D02*
X20574000Y-6136000D01*
X20534000Y-6096000D02*
X20614000Y-6096000D01*
X20574000Y-7072000D02*
X20574000Y-7152000D01*
X20534000Y-7112000D02*
X20614000Y-7112000D01*
X20955000Y-6056000D02*
X20955000Y-6136000D01*
X20915000Y-6096000D02*
X20995000Y-6096000D01*
X20955000Y-7072000D02*
X20955000Y-7152000D01*
X20915000Y-7112000D02*
X20995000Y-7112000D01*
X21336000Y-6056000D02*
X21336000Y-6136000D01*
X21296000Y-6096000D02*
X21376000Y-6096000D01*
X21336000Y-7072000D02*
X21336000Y-7152000D01*
X21296000Y-7112000D02*
X21376000Y-7112000D01*
X9937820Y-6254820D02*
X9937820Y-6191180D01*
X9874180Y-6191180D01*
X9874180Y-6254820D01*
X9937820Y-6254820D01*
X9937820Y-6381820D02*
X9937820Y-6318180D01*
X9874180Y-6318180D01*
X9874180Y-6381820D01*
X9937820Y-6381820D01*
X9937820Y-6508820D02*
X9937820Y-6445180D01*
X9874180Y-6445180D01*
X9874180Y-6508820D01*
X9937820Y-6508820D01*
X9937820Y-6635820D02*
X9937820Y-6572180D01*
X9874180Y-6572180D01*
X9874180Y-6635820D01*
X9937820Y-6635820D01*
X11969820Y-6254820D02*
X11969820Y-6191180D01*
X11906180Y-6191180D01*
X11906180Y-6254820D01*
X11969820Y-6254820D01*
X11969820Y-6381820D02*
X11969820Y-6318180D01*
X11906180Y-6318180D01*
X11906180Y-6381820D01*
X11969820Y-6381820D01*
X11969820Y-6508820D02*
X11969820Y-6445180D01*
X11906180Y-6445180D01*
X11906180Y-6508820D01*
X11969820Y-6508820D01*
X11969820Y-6635820D02*
X11969820Y-6572180D01*
X11906180Y-6572180D01*
X11906180Y-6635820D01*
X11969820Y-6635820D01*
X14001820Y-6254820D02*
X14001820Y-6191180D01*
X13938180Y-6191180D01*
X13938180Y-6254820D01*
X14001820Y-6254820D01*
X14001820Y-6381820D02*
X14001820Y-6318180D01*
X13938180Y-6318180D01*
X13938180Y-6381820D01*
X14001820Y-6381820D01*
X14001820Y-6508820D02*
X14001820Y-6445180D01*
X13938180Y-6445180D01*
X13938180Y-6508820D01*
X14001820Y-6508820D01*
X14001820Y-6635820D02*
X14001820Y-6572180D01*
X13938180Y-6572180D01*
X13938180Y-6635820D01*
X14001820Y-6635820D01*
X16033820Y-6254820D02*
X16033820Y-6191180D01*
X15970180Y-6191180D01*
X15970180Y-6254820D01*
X16033820Y-6254820D01*
X16033820Y-6381820D02*
X16033820Y-6318180D01*
X15970180Y-6318180D01*
X15970180Y-6381820D01*
X16033820Y-6381820D01*
X16033820Y-6508820D02*
X16033820Y-6445180D01*
X15970180Y-6445180D01*
X15970180Y-6508820D01*
X16033820Y-6508820D01*
X16033820Y-6635820D02*
X16033820Y-6572180D01*
X15970180Y-6572180D01*
X15970180Y-6635820D01*
X16033820Y-6635820D01*
X18065820Y-6254820D02*
X18065820Y-6191180D01*
X18002180Y-6191180D01*
X18002180Y-6254820D01*
X18065820Y-6254820D01*
X18065820Y-6381820D02*
X18065820Y-6318180D01*
X18002180Y-6318180D01*
X18002180Y-6381820D01*
X18065820Y-6381820D01*
X18065820Y-6508820D02*
X18065820Y-6445180D01*
X18002180Y-6445180D01*
X18002180Y-6508820D01*
X18065820Y-6508820D01*
X18065820Y-6635820D02*
X18065820Y-6572180D01*
X18002180Y-6572180D01*
X18002180Y-6635820D01*
X18065820Y-6635820D01*
X20097820Y-6254820D02*
X20097820Y-6191180D01*
X20034180Y-6191180D01*
X20034180Y-6254820D01*
X20097820Y-6254820D01*
X20097820Y-6381820D02*
X20097820Y-6318180D01*
X20034180Y-6318180D01*
X20034180Y-6381820D01*
X20097820Y-6381820D01*
X20097820Y-6508820D02*
X20097820Y-6445180D01*
X20034180Y-6445180D01*
X20034180Y-6508820D01*
X20097820Y-6508820D01*
X20097820Y-6635820D02*
X20097820Y-6572180D01*
X20034180Y-6572180D01*
X20034180Y-6635820D01*
X20097820Y-6635820D01*
X7493000Y-5130000D02*
X7543000Y-5080000D01*
X7493000Y-5030000D01*
X7443000Y-5080000D01*
X7493000Y-5130000D01*
X7493000Y-5384000D02*
X7543000Y-5334000D01*
X7493000Y-5284000D01*
X7443000Y-5334000D01*
X7493000Y-5384000D01*
X7493000Y-5638000D02*
X7543000Y-5588000D01*
X7493000Y-5538000D01*
X7443000Y-5588000D01*
X7493000Y-5638000D01*
X7493000Y-5892000D02*
X7543000Y-5842000D01*
X7493000Y-5792000D01*
X7443000Y-5842000D01*
X7493000Y-5892000D01*
X7493000Y-6146000D02*
X7543000Y-6096000D01*
X7493000Y-6046000D01*
X7443000Y-6096000D01*
X7493000Y-6146000D01*
X7493000Y-6400000D02*
X7543000Y-6350000D01*
X7493000Y-6300000D01*
X7443000Y-6350000D01*
X7493000Y-6400000D01*
X7493000Y-6654000D02*
X7543000Y-6604000D01*
X7493000Y-6554000D01*
X7443000Y-6604000D01*
X7493000Y-6654000D01*
X7493000Y-6908000D02*
X7543000Y-6858000D01*
X7493000Y-6808000D01*
X7443000Y-6858000D01*
X7493000Y-6908000D01*
X7493000Y-7162000D02*
X7543000Y-7112000D01*
X7493000Y-7062000D01*
X7443000Y-7112000D01*
X7493000Y-7162000D01*
X7493000Y-7416000D02*
X7543000Y-7366000D01*
X7493000Y-7316000D01*
X7443000Y-7366000D01*
X7493000Y-7416000D01*
X7493000Y-7670000D02*
X7543000Y-7620000D01*
X7493000Y-7570000D01*
X7443000Y-7620000D01*
X7493000Y-7670000D01*
X7493000Y-7924000D02*
X7543000Y-7874000D01*
X7493000Y-7824000D01*
X7443000Y-7874000D01*
X7493000Y-7924000D01*
X7493000Y-8178000D02*
X7543000Y-8128000D01*
X7493000Y-8078000D01*
X7443000Y-8128000D01*
X7493000Y-8178000D01*
X7493000Y-8432000D02*
X7543000Y-8382000D01*
X7493000Y-8332000D01*
X7443000Y-8382000D01*
X7493000Y-8432000D01*
X7493000Y-8686000D02*
X7543000Y-8636000D01*
X7493000Y-8586000D01*
X7443000Y-8636000D01*
X7493000Y-8686000D01*
X9017000Y-5130000D02*
X9067000Y-5080000D01*
X9017000Y-5030000D01*
X8967000Y-5080000D01*
X9017000Y-5130000D01*
X9017000Y-5384000D02*
X9067000Y-5334000D01*
X9017000Y-5284000D01*
X8967000Y-5334000D01*
X9017000Y-5384000D01*
X9017000Y-5638000D02*
X9067000Y-5588000D01*
X9017000Y-5538000D01*
X8967000Y-5588000D01*
X9017000Y-5638000D01*
X9017000Y-5892000D02*
X9067000Y-5842000D01*
X9017000Y-5792000D01*
X8967000Y-5842000D01*
X9017000Y-5892000D01*
X9017000Y-6146000D02*
X9067000Y-6096000D01*
X9017000Y-6046000D01*
X8967000Y-6096000D01*
X9017000Y-6146000D01*
X9017000Y-6400000D02*
X9067000Y-6350000D01*
X9017000Y-6300000D01*
X8967000Y-6350000D01*
X9017000Y-6400000D01*
X9017000Y-6654000D02*
X9067000Y-6604000D01*
X9017000Y-6554000D01*
X8967000Y-6604000D01*
X9017000Y-6654000D01*
X9017000Y-6908000D02*
X9067000Y-6858000D01*
X9017000Y-6808000D01*
X8967000Y-6858000D01*
X9017000Y-6908000D01*
X9017000Y-7162000D02*
X9067000Y-7112000D01*
X9017000Y-7062000D01*
X8967000Y-7112000D01*
X9017000Y-7162000D01*
X9017000Y-7416000D02*
X9067000Y-7366000D01*
X9017000Y-7316000D01*
X8967000Y-7366000D01*
X9017000Y-7416000D01*
X9017000Y-7670000D02*
X9067000Y-7620000D01*
X9017000Y-7570000D01*
X8967000Y-7620000D01*
X9017000Y-7670000D01*
X9017000Y-7924000D02*
X9067000Y-7874000D01*
X9017000Y-7824000D01*
X8967000Y-7874000D01*
X9017000Y-7924000D01*
X9017000Y-8178000D02*
X9067000Y-8128000D01*
X9017000Y-8078000D01*
X8967000Y-8128000D01*
X9017000Y-8178000D01*
X9017000Y-8432000D02*
X9067000Y-8382000D01*
X9017000Y-8332000D01*
X8967000Y-8382000D01*
X9017000Y-8432000D01*
X9017000Y-8686000D02*
X9067000Y-8636000D01*
X9017000Y-8586000D01*
X8967000Y-8636000D01*
X9017000Y-8686000D01*
D12*
X9831000Y-8616500D02*
X9981000Y-8766500D01*
X9981000Y-8616500D02*
X9831000Y-8766500D01*
X9981000Y-8691500D02*
G75*
G03*
X9831000Y-8691500I-75000J0D01*
G01*
X9831000Y-8691500D02*
G75*
G03*
X9981000Y-8691500I75000J0D01*
G01*
X9831000Y-13416500D02*
X9981000Y-13566500D01*
X9981000Y-13416500D02*
X9831000Y-13566500D01*
X9981000Y-13491500D02*
G75*
G03*
X9831000Y-13491500I-75000J0D01*
G01*
X9831000Y-13491500D02*
G75*
G03*
X9981000Y-13491500I75000J0D01*
G01*
X11863000Y-8616500D02*
X12013000Y-8766500D01*
X12013000Y-8616500D02*
X11863000Y-8766500D01*
X12013000Y-8691500D02*
G75*
G03*
X11863000Y-8691500I-75000J0D01*
G01*
X11863000Y-8691500D02*
G75*
G03*
X12013000Y-8691500I75000J0D01*
G01*
X11863000Y-13416500D02*
X12013000Y-13566500D01*
X12013000Y-13416500D02*
X11863000Y-13566500D01*
X12013000Y-13491500D02*
G75*
G03*
X11863000Y-13491500I-75000J0D01*
G01*
X11863000Y-13491500D02*
G75*
G03*
X12013000Y-13491500I75000J0D01*
G01*
X13895000Y-8616500D02*
X14045000Y-8766500D01*
X14045000Y-8616500D02*
X13895000Y-8766500D01*
X14045000Y-8691500D02*
G75*
G03*
X13895000Y-8691500I-75000J0D01*
G01*
X13895000Y-8691500D02*
G75*
G03*
X14045000Y-8691500I75000J0D01*
G01*
X13895000Y-13416500D02*
X14045000Y-13566500D01*
X14045000Y-13416500D02*
X13895000Y-13566500D01*
X14045000Y-13491500D02*
G75*
G03*
X13895000Y-13491500I-75000J0D01*
G01*
X13895000Y-13491500D02*
G75*
G03*
X14045000Y-13491500I75000J0D01*
G01*
X15927000Y-8616500D02*
X16077000Y-8766500D01*
X16077000Y-8616500D02*
X15927000Y-8766500D01*
X16077000Y-8691500D02*
G75*
G03*
X15927000Y-8691500I-75000J0D01*
G01*
X15927000Y-8691500D02*
G75*
G03*
X16077000Y-8691500I75000J0D01*
G01*
X15927000Y-13416500D02*
X16077000Y-13566500D01*
X16077000Y-13416500D02*
X15927000Y-13566500D01*
X16077000Y-13491500D02*
G75*
G03*
X15927000Y-13491500I-75000J0D01*
G01*
X15927000Y-13491500D02*
G75*
G03*
X16077000Y-13491500I75000J0D01*
G01*
X17959000Y-8616500D02*
X18109000Y-8766500D01*
X18109000Y-8616500D02*
X17959000Y-8766500D01*
X18109000Y-8691500D02*
G75*
G03*
X17959000Y-8691500I-75000J0D01*
G01*
X17959000Y-8691500D02*
G75*
G03*
X18109000Y-8691500I75000J0D01*
G01*
X17959000Y-13416500D02*
X18109000Y-13566500D01*
X18109000Y-13416500D02*
X17959000Y-13566500D01*
X18109000Y-13491500D02*
G75*
G03*
X17959000Y-13491500I-75000J0D01*
G01*
X17959000Y-13491500D02*
G75*
G03*
X18109000Y-13491500I75000J0D01*
G01*
X19991000Y-8616500D02*
X20141000Y-8766500D01*
X20141000Y-8616500D02*
X19991000Y-8766500D01*
X20141000Y-8691500D02*
G75*
G03*
X19991000Y-8691500I-75000J0D01*
G01*
X19991000Y-8691500D02*
G75*
G03*
X20141000Y-8691500I75000J0D01*
G01*
X19991000Y-13416500D02*
X20141000Y-13566500D01*
X20141000Y-13416500D02*
X19991000Y-13566500D01*
X20141000Y-13491500D02*
G75*
G03*
X19991000Y-13491500I-75000J0D01*
G01*
X19991000Y-13491500D02*
G75*
G03*
X20141000Y-13491500I75000J0D01*
G01*
D11*
X7496777Y-15686984D02*
X7496777Y-15486984D01*
X7496777Y-15486984D02*
X7544396Y-15486984D01*
X7544396Y-15486984D02*
X7572967Y-15496508D01*
X7572967Y-15496508D02*
X7592015Y-15515555D01*
X7592015Y-15515555D02*
X7601539Y-15534603D01*
X7601539Y-15534603D02*
X7611062Y-15572698D01*
X7611062Y-15572698D02*
X7611062Y-15601269D01*
X7611062Y-15601269D02*
X7601539Y-15639365D01*
X7601539Y-15639365D02*
X7592015Y-15658412D01*
X7592015Y-15658412D02*
X7572967Y-15677460D01*
X7572967Y-15677460D02*
X7544396Y-15686984D01*
X7544396Y-15686984D02*
X7496777Y-15686984D01*
X7696777Y-15686984D02*
X7696777Y-15553650D01*
X7696777Y-15591746D02*
X7706301Y-15572698D01*
X7706301Y-15572698D02*
X7715824Y-15563174D01*
X7715824Y-15563174D02*
X7734872Y-15553650D01*
X7734872Y-15553650D02*
X7753920Y-15553650D01*
X7820586Y-15686984D02*
X7820586Y-15553650D01*
X7820586Y-15486984D02*
X7811062Y-15496508D01*
X7811062Y-15496508D02*
X7820586Y-15506031D01*
X7820586Y-15506031D02*
X7830110Y-15496508D01*
X7830110Y-15496508D02*
X7820586Y-15486984D01*
X7820586Y-15486984D02*
X7820586Y-15506031D01*
X7944396Y-15686984D02*
X7925348Y-15677460D01*
X7925348Y-15677460D02*
X7915824Y-15658412D01*
X7915824Y-15658412D02*
X7915824Y-15486984D01*
X8049158Y-15686984D02*
X8030110Y-15677460D01*
X8030110Y-15677460D02*
X8020586Y-15658412D01*
X8020586Y-15658412D02*
X8020586Y-15486984D01*
X8277729Y-15686984D02*
X8277729Y-15486984D01*
X8277729Y-15486984D02*
X8344396Y-15629841D01*
X8344396Y-15629841D02*
X8411063Y-15486984D01*
X8411063Y-15486984D02*
X8411063Y-15686984D01*
X8592015Y-15686984D02*
X8592015Y-15582222D01*
X8592015Y-15582222D02*
X8582491Y-15563174D01*
X8582491Y-15563174D02*
X8563444Y-15553650D01*
X8563444Y-15553650D02*
X8525348Y-15553650D01*
X8525348Y-15553650D02*
X8506301Y-15563174D01*
X8592015Y-15677460D02*
X8572967Y-15686984D01*
X8572967Y-15686984D02*
X8525348Y-15686984D01*
X8525348Y-15686984D02*
X8506301Y-15677460D01*
X8506301Y-15677460D02*
X8496777Y-15658412D01*
X8496777Y-15658412D02*
X8496777Y-15639365D01*
X8496777Y-15639365D02*
X8506301Y-15620317D01*
X8506301Y-15620317D02*
X8525348Y-15610793D01*
X8525348Y-15610793D02*
X8572967Y-15610793D01*
X8572967Y-15610793D02*
X8592015Y-15601269D01*
X8687253Y-15553650D02*
X8687253Y-15753650D01*
X8687253Y-15563174D02*
X8706301Y-15553650D01*
X8706301Y-15553650D02*
X8744396Y-15553650D01*
X8744396Y-15553650D02*
X8763444Y-15563174D01*
X8763444Y-15563174D02*
X8772967Y-15572698D01*
X8772967Y-15572698D02*
X8782491Y-15591746D01*
X8782491Y-15591746D02*
X8782491Y-15648888D01*
X8782491Y-15648888D02*
X8772967Y-15667936D01*
X8772967Y-15667936D02*
X8763444Y-15677460D01*
X8763444Y-15677460D02*
X8744396Y-15686984D01*
X8744396Y-15686984D02*
X8706301Y-15686984D01*
X8706301Y-15686984D02*
X8687253Y-15677460D01*
X8868205Y-15667936D02*
X8877729Y-15677460D01*
X8877729Y-15677460D02*
X8868205Y-15686984D01*
X8868205Y-15686984D02*
X8858682Y-15677460D01*
X8858682Y-15677460D02*
X8868205Y-15667936D01*
X8868205Y-15667936D02*
X8868205Y-15686984D01*
X8868205Y-15563174D02*
X8877729Y-15572698D01*
X8877729Y-15572698D02*
X8868205Y-15582222D01*
X8868205Y-15582222D02*
X8858682Y-15572698D01*
X8858682Y-15572698D02*
X8868205Y-15563174D01*
X8868205Y-15563174D02*
X8868205Y-15582222D01*
D10*
X7196000Y-15995500D02*
X7236000Y-16035500D01*
X7236000Y-15995500D02*
X7196000Y-16035500D01*
D11*
X7534872Y-15906984D02*
X7553920Y-15906984D01*
X7553920Y-15906984D02*
X7572967Y-15916508D01*
X7572967Y-15916508D02*
X7582491Y-15926031D01*
X7582491Y-15926031D02*
X7592015Y-15945079D01*
X7592015Y-15945079D02*
X7601539Y-15983174D01*
X7601539Y-15983174D02*
X7601539Y-16030793D01*
X7601539Y-16030793D02*
X7592015Y-16068888D01*
X7592015Y-16068888D02*
X7582491Y-16087936D01*
X7582491Y-16087936D02*
X7572967Y-16097460D01*
X7572967Y-16097460D02*
X7553920Y-16106984D01*
X7553920Y-16106984D02*
X7534872Y-16106984D01*
X7534872Y-16106984D02*
X7515824Y-16097460D01*
X7515824Y-16097460D02*
X7506301Y-16087936D01*
X7506301Y-16087936D02*
X7496777Y-16068888D01*
X7496777Y-16068888D02*
X7487253Y-16030793D01*
X7487253Y-16030793D02*
X7487253Y-15983174D01*
X7487253Y-15983174D02*
X7496777Y-15945079D01*
X7496777Y-15945079D02*
X7506301Y-15926031D01*
X7506301Y-15926031D02*
X7515824Y-15916508D01*
X7515824Y-15916508D02*
X7534872Y-15906984D01*
X7687253Y-16087936D02*
X7696777Y-16097460D01*
X7696777Y-16097460D02*
X7687253Y-16106984D01*
X7687253Y-16106984D02*
X7677729Y-16097460D01*
X7677729Y-16097460D02*
X7687253Y-16087936D01*
X7687253Y-16087936D02*
X7687253Y-16106984D01*
X7868205Y-15973650D02*
X7868205Y-16106984D01*
X7820586Y-15897460D02*
X7772967Y-16040317D01*
X7772967Y-16040317D02*
X7896777Y-16040317D01*
X8011062Y-15906984D02*
X8030110Y-15906984D01*
X8030110Y-15906984D02*
X8049158Y-15916508D01*
X8049158Y-15916508D02*
X8058682Y-15926031D01*
X8058682Y-15926031D02*
X8068205Y-15945079D01*
X8068205Y-15945079D02*
X8077729Y-15983174D01*
X8077729Y-15983174D02*
X8077729Y-16030793D01*
X8077729Y-16030793D02*
X8068205Y-16068888D01*
X8068205Y-16068888D02*
X8058682Y-16087936D01*
X8058682Y-16087936D02*
X8049158Y-16097460D01*
X8049158Y-16097460D02*
X8030110Y-16106984D01*
X8030110Y-16106984D02*
X8011062Y-16106984D01*
X8011062Y-16106984D02*
X7992015Y-16097460D01*
X7992015Y-16097460D02*
X7982491Y-16087936D01*
X7982491Y-16087936D02*
X7972967Y-16068888D01*
X7972967Y-16068888D02*
X7963443Y-16030793D01*
X7963443Y-16030793D02*
X7963443Y-15983174D01*
X7963443Y-15983174D02*
X7972967Y-15945079D01*
X7972967Y-15945079D02*
X7982491Y-15926031D01*
X7982491Y-15926031D02*
X7992015Y-15916508D01*
X7992015Y-15916508D02*
X8011062Y-15906984D01*
X8201539Y-15906984D02*
X8220586Y-15906984D01*
X8220586Y-15906984D02*
X8239634Y-15916508D01*
X8239634Y-15916508D02*
X8249158Y-15926031D01*
X8249158Y-15926031D02*
X8258682Y-15945079D01*
X8258682Y-15945079D02*
X8268205Y-15983174D01*
X8268205Y-15983174D02*
X8268205Y-16030793D01*
X8268205Y-16030793D02*
X8258682Y-16068888D01*
X8258682Y-16068888D02*
X8249158Y-16087936D01*
X8249158Y-16087936D02*
X8239634Y-16097460D01*
X8239634Y-16097460D02*
X8220586Y-16106984D01*
X8220586Y-16106984D02*
X8201539Y-16106984D01*
X8201539Y-16106984D02*
X8182491Y-16097460D01*
X8182491Y-16097460D02*
X8172967Y-16087936D01*
X8172967Y-16087936D02*
X8163443Y-16068888D01*
X8163443Y-16068888D02*
X8153920Y-16030793D01*
X8153920Y-16030793D02*
X8153920Y-15983174D01*
X8153920Y-15983174D02*
X8163443Y-15945079D01*
X8163443Y-15945079D02*
X8172967Y-15926031D01*
X8172967Y-15926031D02*
X8182491Y-15916508D01*
X8182491Y-15916508D02*
X8201539Y-15906984D01*
X8353920Y-16106984D02*
X8353920Y-15973650D01*
X8353920Y-15992698D02*
X8363443Y-15983174D01*
X8363443Y-15983174D02*
X8382491Y-15973650D01*
X8382491Y-15973650D02*
X8411063Y-15973650D01*
X8411063Y-15973650D02*
X8430110Y-15983174D01*
X8430110Y-15983174D02*
X8439634Y-16002222D01*
X8439634Y-16002222D02*
X8439634Y-16106984D01*
X8439634Y-16002222D02*
X8449158Y-15983174D01*
X8449158Y-15983174D02*
X8468205Y-15973650D01*
X8468205Y-15973650D02*
X8496777Y-15973650D01*
X8496777Y-15973650D02*
X8515825Y-15983174D01*
X8515825Y-15983174D02*
X8525348Y-16002222D01*
X8525348Y-16002222D02*
X8525348Y-16106984D01*
X8620586Y-16106984D02*
X8620586Y-15973650D01*
X8620586Y-15992698D02*
X8630110Y-15983174D01*
X8630110Y-15983174D02*
X8649158Y-15973650D01*
X8649158Y-15973650D02*
X8677729Y-15973650D01*
X8677729Y-15973650D02*
X8696777Y-15983174D01*
X8696777Y-15983174D02*
X8706301Y-16002222D01*
X8706301Y-16002222D02*
X8706301Y-16106984D01*
X8706301Y-16002222D02*
X8715825Y-15983174D01*
X8715825Y-15983174D02*
X8734872Y-15973650D01*
X8734872Y-15973650D02*
X8763444Y-15973650D01*
X8763444Y-15973650D02*
X8782491Y-15983174D01*
X8782491Y-15983174D02*
X8792015Y-16002222D01*
X8792015Y-16002222D02*
X8792015Y-16106984D01*
X9182491Y-15897460D02*
X9011063Y-16154603D01*
X9439634Y-15906984D02*
X9458682Y-15906984D01*
X9458682Y-15906984D02*
X9477729Y-15916508D01*
X9477729Y-15916508D02*
X9487253Y-15926031D01*
X9487253Y-15926031D02*
X9496777Y-15945079D01*
X9496777Y-15945079D02*
X9506301Y-15983174D01*
X9506301Y-15983174D02*
X9506301Y-16030793D01*
X9506301Y-16030793D02*
X9496777Y-16068888D01*
X9496777Y-16068888D02*
X9487253Y-16087936D01*
X9487253Y-16087936D02*
X9477729Y-16097460D01*
X9477729Y-16097460D02*
X9458682Y-16106984D01*
X9458682Y-16106984D02*
X9439634Y-16106984D01*
X9439634Y-16106984D02*
X9420587Y-16097460D01*
X9420587Y-16097460D02*
X9411063Y-16087936D01*
X9411063Y-16087936D02*
X9401539Y-16068888D01*
X9401539Y-16068888D02*
X9392015Y-16030793D01*
X9392015Y-16030793D02*
X9392015Y-15983174D01*
X9392015Y-15983174D02*
X9401539Y-15945079D01*
X9401539Y-15945079D02*
X9411063Y-15926031D01*
X9411063Y-15926031D02*
X9420587Y-15916508D01*
X9420587Y-15916508D02*
X9439634Y-15906984D01*
X9592015Y-16087936D02*
X9601539Y-16097460D01*
X9601539Y-16097460D02*
X9592015Y-16106984D01*
X9592015Y-16106984D02*
X9582491Y-16097460D01*
X9582491Y-16097460D02*
X9592015Y-16087936D01*
X9592015Y-16087936D02*
X9592015Y-16106984D01*
X9725348Y-15906984D02*
X9744396Y-15906984D01*
X9744396Y-15906984D02*
X9763444Y-15916508D01*
X9763444Y-15916508D02*
X9772968Y-15926031D01*
X9772968Y-15926031D02*
X9782491Y-15945079D01*
X9782491Y-15945079D02*
X9792015Y-15983174D01*
X9792015Y-15983174D02*
X9792015Y-16030793D01*
X9792015Y-16030793D02*
X9782491Y-16068888D01*
X9782491Y-16068888D02*
X9772968Y-16087936D01*
X9772968Y-16087936D02*
X9763444Y-16097460D01*
X9763444Y-16097460D02*
X9744396Y-16106984D01*
X9744396Y-16106984D02*
X9725348Y-16106984D01*
X9725348Y-16106984D02*
X9706301Y-16097460D01*
X9706301Y-16097460D02*
X9696777Y-16087936D01*
X9696777Y-16087936D02*
X9687253Y-16068888D01*
X9687253Y-16068888D02*
X9677729Y-16030793D01*
X9677729Y-16030793D02*
X9677729Y-15983174D01*
X9677729Y-15983174D02*
X9687253Y-15945079D01*
X9687253Y-15945079D02*
X9696777Y-15926031D01*
X9696777Y-15926031D02*
X9706301Y-15916508D01*
X9706301Y-15916508D02*
X9725348Y-15906984D01*
X9982491Y-16106984D02*
X9868206Y-16106984D01*
X9925348Y-16106984D02*
X9925348Y-15906984D01*
X9925348Y-15906984D02*
X9906301Y-15935555D01*
X9906301Y-15935555D02*
X9887253Y-15954603D01*
X9887253Y-15954603D02*
X9868206Y-15964127D01*
X10163444Y-15906984D02*
X10068206Y-15906984D01*
X10068206Y-15906984D02*
X10058682Y-16002222D01*
X10058682Y-16002222D02*
X10068206Y-15992698D01*
X10068206Y-15992698D02*
X10087253Y-15983174D01*
X10087253Y-15983174D02*
X10134872Y-15983174D01*
X10134872Y-15983174D02*
X10153920Y-15992698D01*
X10153920Y-15992698D02*
X10163444Y-16002222D01*
X10163444Y-16002222D02*
X10172968Y-16021269D01*
X10172968Y-16021269D02*
X10172968Y-16068888D01*
X10172968Y-16068888D02*
X10163444Y-16087936D01*
X10163444Y-16087936D02*
X10153920Y-16097460D01*
X10153920Y-16097460D02*
X10134872Y-16106984D01*
X10134872Y-16106984D02*
X10087253Y-16106984D01*
X10087253Y-16106984D02*
X10068206Y-16097460D01*
X10068206Y-16097460D02*
X10058682Y-16087936D01*
X10239634Y-15906984D02*
X10372968Y-15906984D01*
X10372968Y-15906984D02*
X10287253Y-16106984D01*
X10439634Y-15906984D02*
X10439634Y-15945079D01*
X10515825Y-15906984D02*
X10515825Y-15945079D01*
X10811063Y-16183174D02*
X10801539Y-16173650D01*
X10801539Y-16173650D02*
X10782491Y-16145079D01*
X10782491Y-16145079D02*
X10772968Y-16126031D01*
X10772968Y-16126031D02*
X10763444Y-16097460D01*
X10763444Y-16097460D02*
X10753920Y-16049841D01*
X10753920Y-16049841D02*
X10753920Y-16011746D01*
X10753920Y-16011746D02*
X10763444Y-15964127D01*
X10763444Y-15964127D02*
X10772968Y-15935555D01*
X10772968Y-15935555D02*
X10782491Y-15916508D01*
X10782491Y-15916508D02*
X10801539Y-15887936D01*
X10801539Y-15887936D02*
X10811063Y-15878412D01*
X10915825Y-15992698D02*
X10896777Y-15983174D01*
X10896777Y-15983174D02*
X10887253Y-15973650D01*
X10887253Y-15973650D02*
X10877730Y-15954603D01*
X10877730Y-15954603D02*
X10877730Y-15945079D01*
X10877730Y-15945079D02*
X10887253Y-15926031D01*
X10887253Y-15926031D02*
X10896777Y-15916508D01*
X10896777Y-15916508D02*
X10915825Y-15906984D01*
X10915825Y-15906984D02*
X10953920Y-15906984D01*
X10953920Y-15906984D02*
X10972968Y-15916508D01*
X10972968Y-15916508D02*
X10982491Y-15926031D01*
X10982491Y-15926031D02*
X10992015Y-15945079D01*
X10992015Y-15945079D02*
X10992015Y-15954603D01*
X10992015Y-15954603D02*
X10982491Y-15973650D01*
X10982491Y-15973650D02*
X10972968Y-15983174D01*
X10972968Y-15983174D02*
X10953920Y-15992698D01*
X10953920Y-15992698D02*
X10915825Y-15992698D01*
X10915825Y-15992698D02*
X10896777Y-16002222D01*
X10896777Y-16002222D02*
X10887253Y-16011746D01*
X10887253Y-16011746D02*
X10877730Y-16030793D01*
X10877730Y-16030793D02*
X10877730Y-16068888D01*
X10877730Y-16068888D02*
X10887253Y-16087936D01*
X10887253Y-16087936D02*
X10896777Y-16097460D01*
X10896777Y-16097460D02*
X10915825Y-16106984D01*
X10915825Y-16106984D02*
X10953920Y-16106984D01*
X10953920Y-16106984D02*
X10972968Y-16097460D01*
X10972968Y-16097460D02*
X10982491Y-16087936D01*
X10982491Y-16087936D02*
X10992015Y-16068888D01*
X10992015Y-16068888D02*
X10992015Y-16030793D01*
X10992015Y-16030793D02*
X10982491Y-16011746D01*
X10982491Y-16011746D02*
X10972968Y-16002222D01*
X10972968Y-16002222D02*
X10953920Y-15992698D01*
X11230110Y-16106984D02*
X11230110Y-15906984D01*
X11315825Y-16106984D02*
X11315825Y-16002222D01*
X11315825Y-16002222D02*
X11306301Y-15983174D01*
X11306301Y-15983174D02*
X11287253Y-15973650D01*
X11287253Y-15973650D02*
X11258682Y-15973650D01*
X11258682Y-15973650D02*
X11239634Y-15983174D01*
X11239634Y-15983174D02*
X11230110Y-15992698D01*
X11439634Y-16106984D02*
X11420587Y-16097460D01*
X11420587Y-16097460D02*
X11411063Y-16087936D01*
X11411063Y-16087936D02*
X11401539Y-16068888D01*
X11401539Y-16068888D02*
X11401539Y-16011746D01*
X11401539Y-16011746D02*
X11411063Y-15992698D01*
X11411063Y-15992698D02*
X11420587Y-15983174D01*
X11420587Y-15983174D02*
X11439634Y-15973650D01*
X11439634Y-15973650D02*
X11468206Y-15973650D01*
X11468206Y-15973650D02*
X11487253Y-15983174D01*
X11487253Y-15983174D02*
X11496777Y-15992698D01*
X11496777Y-15992698D02*
X11506301Y-16011746D01*
X11506301Y-16011746D02*
X11506301Y-16068888D01*
X11506301Y-16068888D02*
X11496777Y-16087936D01*
X11496777Y-16087936D02*
X11487253Y-16097460D01*
X11487253Y-16097460D02*
X11468206Y-16106984D01*
X11468206Y-16106984D02*
X11439634Y-16106984D01*
X11620587Y-16106984D02*
X11601539Y-16097460D01*
X11601539Y-16097460D02*
X11592015Y-16078412D01*
X11592015Y-16078412D02*
X11592015Y-15906984D01*
X11772968Y-16097460D02*
X11753920Y-16106984D01*
X11753920Y-16106984D02*
X11715825Y-16106984D01*
X11715825Y-16106984D02*
X11696777Y-16097460D01*
X11696777Y-16097460D02*
X11687253Y-16078412D01*
X11687253Y-16078412D02*
X11687253Y-16002222D01*
X11687253Y-16002222D02*
X11696777Y-15983174D01*
X11696777Y-15983174D02*
X11715825Y-15973650D01*
X11715825Y-15973650D02*
X11753920Y-15973650D01*
X11753920Y-15973650D02*
X11772968Y-15983174D01*
X11772968Y-15983174D02*
X11782491Y-16002222D01*
X11782491Y-16002222D02*
X11782491Y-16021269D01*
X11782491Y-16021269D02*
X11687253Y-16040317D01*
X11858682Y-16097460D02*
X11877730Y-16106984D01*
X11877730Y-16106984D02*
X11915825Y-16106984D01*
X11915825Y-16106984D02*
X11934872Y-16097460D01*
X11934872Y-16097460D02*
X11944396Y-16078412D01*
X11944396Y-16078412D02*
X11944396Y-16068888D01*
X11944396Y-16068888D02*
X11934872Y-16049841D01*
X11934872Y-16049841D02*
X11915825Y-16040317D01*
X11915825Y-16040317D02*
X11887253Y-16040317D01*
X11887253Y-16040317D02*
X11868206Y-16030793D01*
X11868206Y-16030793D02*
X11858682Y-16011746D01*
X11858682Y-16011746D02*
X11858682Y-16002222D01*
X11858682Y-16002222D02*
X11868206Y-15983174D01*
X11868206Y-15983174D02*
X11887253Y-15973650D01*
X11887253Y-15973650D02*
X11915825Y-15973650D01*
X11915825Y-15973650D02*
X11934872Y-15983174D01*
X12011063Y-16183174D02*
X12020587Y-16173650D01*
X12020587Y-16173650D02*
X12039634Y-16145079D01*
X12039634Y-16145079D02*
X12049158Y-16126031D01*
X12049158Y-16126031D02*
X12058682Y-16097460D01*
X12058682Y-16097460D02*
X12068206Y-16049841D01*
X12068206Y-16049841D02*
X12068206Y-16011746D01*
X12068206Y-16011746D02*
X12058682Y-15964127D01*
X12058682Y-15964127D02*
X12049158Y-15935555D01*
X12049158Y-15935555D02*
X12039634Y-15916508D01*
X12039634Y-15916508D02*
X12020587Y-15887936D01*
X12020587Y-15887936D02*
X12011063Y-15878412D01*
D10*
X7236000Y-16279500D02*
G75*
G03*
X7159800Y-16279500I-38100J0D01*
G01*
X7159800Y-16279500D02*
G75*
G03*
X7236000Y-16279500I38100J0D01*
G01*
D11*
X7534872Y-16170984D02*
X7553920Y-16170984D01*
X7553920Y-16170984D02*
X7572967Y-16180508D01*
X7572967Y-16180508D02*
X7582491Y-16190031D01*
X7582491Y-16190031D02*
X7592015Y-16209079D01*
X7592015Y-16209079D02*
X7601539Y-16247174D01*
X7601539Y-16247174D02*
X7601539Y-16294793D01*
X7601539Y-16294793D02*
X7592015Y-16332888D01*
X7592015Y-16332888D02*
X7582491Y-16351936D01*
X7582491Y-16351936D02*
X7572967Y-16361460D01*
X7572967Y-16361460D02*
X7553920Y-16370984D01*
X7553920Y-16370984D02*
X7534872Y-16370984D01*
X7534872Y-16370984D02*
X7515824Y-16361460D01*
X7515824Y-16361460D02*
X7506301Y-16351936D01*
X7506301Y-16351936D02*
X7496777Y-16332888D01*
X7496777Y-16332888D02*
X7487253Y-16294793D01*
X7487253Y-16294793D02*
X7487253Y-16247174D01*
X7487253Y-16247174D02*
X7496777Y-16209079D01*
X7496777Y-16209079D02*
X7506301Y-16190031D01*
X7506301Y-16190031D02*
X7515824Y-16180508D01*
X7515824Y-16180508D02*
X7534872Y-16170984D01*
X7687253Y-16351936D02*
X7696777Y-16361460D01*
X7696777Y-16361460D02*
X7687253Y-16370984D01*
X7687253Y-16370984D02*
X7677729Y-16361460D01*
X7677729Y-16361460D02*
X7687253Y-16351936D01*
X7687253Y-16351936D02*
X7687253Y-16370984D01*
X7763443Y-16170984D02*
X7896777Y-16170984D01*
X7896777Y-16170984D02*
X7811062Y-16370984D01*
X8058682Y-16170984D02*
X8020586Y-16170984D01*
X8020586Y-16170984D02*
X8001539Y-16180508D01*
X8001539Y-16180508D02*
X7992015Y-16190031D01*
X7992015Y-16190031D02*
X7972967Y-16218603D01*
X7972967Y-16218603D02*
X7963443Y-16256698D01*
X7963443Y-16256698D02*
X7963443Y-16332888D01*
X7963443Y-16332888D02*
X7972967Y-16351936D01*
X7972967Y-16351936D02*
X7982491Y-16361460D01*
X7982491Y-16361460D02*
X8001539Y-16370984D01*
X8001539Y-16370984D02*
X8039634Y-16370984D01*
X8039634Y-16370984D02*
X8058682Y-16361460D01*
X8058682Y-16361460D02*
X8068205Y-16351936D01*
X8068205Y-16351936D02*
X8077729Y-16332888D01*
X8077729Y-16332888D02*
X8077729Y-16285269D01*
X8077729Y-16285269D02*
X8068205Y-16266222D01*
X8068205Y-16266222D02*
X8058682Y-16256698D01*
X8058682Y-16256698D02*
X8039634Y-16247174D01*
X8039634Y-16247174D02*
X8001539Y-16247174D01*
X8001539Y-16247174D02*
X7982491Y-16256698D01*
X7982491Y-16256698D02*
X7972967Y-16266222D01*
X7972967Y-16266222D02*
X7963443Y-16285269D01*
X8153920Y-16190031D02*
X8163443Y-16180508D01*
X8163443Y-16180508D02*
X8182491Y-16170984D01*
X8182491Y-16170984D02*
X8230110Y-16170984D01*
X8230110Y-16170984D02*
X8249158Y-16180508D01*
X8249158Y-16180508D02*
X8258682Y-16190031D01*
X8258682Y-16190031D02*
X8268205Y-16209079D01*
X8268205Y-16209079D02*
X8268205Y-16228127D01*
X8268205Y-16228127D02*
X8258682Y-16256698D01*
X8258682Y-16256698D02*
X8144396Y-16370984D01*
X8144396Y-16370984D02*
X8268205Y-16370984D01*
X8353920Y-16370984D02*
X8353920Y-16237650D01*
X8353920Y-16256698D02*
X8363443Y-16247174D01*
X8363443Y-16247174D02*
X8382491Y-16237650D01*
X8382491Y-16237650D02*
X8411063Y-16237650D01*
X8411063Y-16237650D02*
X8430110Y-16247174D01*
X8430110Y-16247174D02*
X8439634Y-16266222D01*
X8439634Y-16266222D02*
X8439634Y-16370984D01*
X8439634Y-16266222D02*
X8449158Y-16247174D01*
X8449158Y-16247174D02*
X8468205Y-16237650D01*
X8468205Y-16237650D02*
X8496777Y-16237650D01*
X8496777Y-16237650D02*
X8515825Y-16247174D01*
X8515825Y-16247174D02*
X8525348Y-16266222D01*
X8525348Y-16266222D02*
X8525348Y-16370984D01*
X8620586Y-16370984D02*
X8620586Y-16237650D01*
X8620586Y-16256698D02*
X8630110Y-16247174D01*
X8630110Y-16247174D02*
X8649158Y-16237650D01*
X8649158Y-16237650D02*
X8677729Y-16237650D01*
X8677729Y-16237650D02*
X8696777Y-16247174D01*
X8696777Y-16247174D02*
X8706301Y-16266222D01*
X8706301Y-16266222D02*
X8706301Y-16370984D01*
X8706301Y-16266222D02*
X8715825Y-16247174D01*
X8715825Y-16247174D02*
X8734872Y-16237650D01*
X8734872Y-16237650D02*
X8763444Y-16237650D01*
X8763444Y-16237650D02*
X8782491Y-16247174D01*
X8782491Y-16247174D02*
X8792015Y-16266222D01*
X8792015Y-16266222D02*
X8792015Y-16370984D01*
X9182491Y-16161460D02*
X9011063Y-16418603D01*
X9439634Y-16170984D02*
X9458682Y-16170984D01*
X9458682Y-16170984D02*
X9477729Y-16180508D01*
X9477729Y-16180508D02*
X9487253Y-16190031D01*
X9487253Y-16190031D02*
X9496777Y-16209079D01*
X9496777Y-16209079D02*
X9506301Y-16247174D01*
X9506301Y-16247174D02*
X9506301Y-16294793D01*
X9506301Y-16294793D02*
X9496777Y-16332888D01*
X9496777Y-16332888D02*
X9487253Y-16351936D01*
X9487253Y-16351936D02*
X9477729Y-16361460D01*
X9477729Y-16361460D02*
X9458682Y-16370984D01*
X9458682Y-16370984D02*
X9439634Y-16370984D01*
X9439634Y-16370984D02*
X9420587Y-16361460D01*
X9420587Y-16361460D02*
X9411063Y-16351936D01*
X9411063Y-16351936D02*
X9401539Y-16332888D01*
X9401539Y-16332888D02*
X9392015Y-16294793D01*
X9392015Y-16294793D02*
X9392015Y-16247174D01*
X9392015Y-16247174D02*
X9401539Y-16209079D01*
X9401539Y-16209079D02*
X9411063Y-16190031D01*
X9411063Y-16190031D02*
X9420587Y-16180508D01*
X9420587Y-16180508D02*
X9439634Y-16170984D01*
X9592015Y-16351936D02*
X9601539Y-16361460D01*
X9601539Y-16361460D02*
X9592015Y-16370984D01*
X9592015Y-16370984D02*
X9582491Y-16361460D01*
X9582491Y-16361460D02*
X9592015Y-16351936D01*
X9592015Y-16351936D02*
X9592015Y-16370984D01*
X9725348Y-16170984D02*
X9744396Y-16170984D01*
X9744396Y-16170984D02*
X9763444Y-16180508D01*
X9763444Y-16180508D02*
X9772968Y-16190031D01*
X9772968Y-16190031D02*
X9782491Y-16209079D01*
X9782491Y-16209079D02*
X9792015Y-16247174D01*
X9792015Y-16247174D02*
X9792015Y-16294793D01*
X9792015Y-16294793D02*
X9782491Y-16332888D01*
X9782491Y-16332888D02*
X9772968Y-16351936D01*
X9772968Y-16351936D02*
X9763444Y-16361460D01*
X9763444Y-16361460D02*
X9744396Y-16370984D01*
X9744396Y-16370984D02*
X9725348Y-16370984D01*
X9725348Y-16370984D02*
X9706301Y-16361460D01*
X9706301Y-16361460D02*
X9696777Y-16351936D01*
X9696777Y-16351936D02*
X9687253Y-16332888D01*
X9687253Y-16332888D02*
X9677729Y-16294793D01*
X9677729Y-16294793D02*
X9677729Y-16247174D01*
X9677729Y-16247174D02*
X9687253Y-16209079D01*
X9687253Y-16209079D02*
X9696777Y-16190031D01*
X9696777Y-16190031D02*
X9706301Y-16180508D01*
X9706301Y-16180508D02*
X9725348Y-16170984D01*
X9858682Y-16170984D02*
X9982491Y-16170984D01*
X9982491Y-16170984D02*
X9915825Y-16247174D01*
X9915825Y-16247174D02*
X9944396Y-16247174D01*
X9944396Y-16247174D02*
X9963444Y-16256698D01*
X9963444Y-16256698D02*
X9972968Y-16266222D01*
X9972968Y-16266222D02*
X9982491Y-16285269D01*
X9982491Y-16285269D02*
X9982491Y-16332888D01*
X9982491Y-16332888D02*
X9972968Y-16351936D01*
X9972968Y-16351936D02*
X9963444Y-16361460D01*
X9963444Y-16361460D02*
X9944396Y-16370984D01*
X9944396Y-16370984D02*
X9887253Y-16370984D01*
X9887253Y-16370984D02*
X9868206Y-16361460D01*
X9868206Y-16361460D02*
X9858682Y-16351936D01*
X10106301Y-16170984D02*
X10125349Y-16170984D01*
X10125349Y-16170984D02*
X10144396Y-16180508D01*
X10144396Y-16180508D02*
X10153920Y-16190031D01*
X10153920Y-16190031D02*
X10163444Y-16209079D01*
X10163444Y-16209079D02*
X10172968Y-16247174D01*
X10172968Y-16247174D02*
X10172968Y-16294793D01*
X10172968Y-16294793D02*
X10163444Y-16332888D01*
X10163444Y-16332888D02*
X10153920Y-16351936D01*
X10153920Y-16351936D02*
X10144396Y-16361460D01*
X10144396Y-16361460D02*
X10125349Y-16370984D01*
X10125349Y-16370984D02*
X10106301Y-16370984D01*
X10106301Y-16370984D02*
X10087253Y-16361460D01*
X10087253Y-16361460D02*
X10077729Y-16351936D01*
X10077729Y-16351936D02*
X10068206Y-16332888D01*
X10068206Y-16332888D02*
X10058682Y-16294793D01*
X10058682Y-16294793D02*
X10058682Y-16247174D01*
X10058682Y-16247174D02*
X10068206Y-16209079D01*
X10068206Y-16209079D02*
X10077729Y-16190031D01*
X10077729Y-16190031D02*
X10087253Y-16180508D01*
X10087253Y-16180508D02*
X10106301Y-16170984D01*
X10296777Y-16170984D02*
X10315825Y-16170984D01*
X10315825Y-16170984D02*
X10334872Y-16180508D01*
X10334872Y-16180508D02*
X10344396Y-16190031D01*
X10344396Y-16190031D02*
X10353920Y-16209079D01*
X10353920Y-16209079D02*
X10363444Y-16247174D01*
X10363444Y-16247174D02*
X10363444Y-16294793D01*
X10363444Y-16294793D02*
X10353920Y-16332888D01*
X10353920Y-16332888D02*
X10344396Y-16351936D01*
X10344396Y-16351936D02*
X10334872Y-16361460D01*
X10334872Y-16361460D02*
X10315825Y-16370984D01*
X10315825Y-16370984D02*
X10296777Y-16370984D01*
X10296777Y-16370984D02*
X10277729Y-16361460D01*
X10277729Y-16361460D02*
X10268206Y-16351936D01*
X10268206Y-16351936D02*
X10258682Y-16332888D01*
X10258682Y-16332888D02*
X10249158Y-16294793D01*
X10249158Y-16294793D02*
X10249158Y-16247174D01*
X10249158Y-16247174D02*
X10258682Y-16209079D01*
X10258682Y-16209079D02*
X10268206Y-16190031D01*
X10268206Y-16190031D02*
X10277729Y-16180508D01*
X10277729Y-16180508D02*
X10296777Y-16170984D01*
X10439634Y-16170984D02*
X10439634Y-16209079D01*
X10515825Y-16170984D02*
X10515825Y-16209079D01*
X10811063Y-16447174D02*
X10801539Y-16437650D01*
X10801539Y-16437650D02*
X10782491Y-16409079D01*
X10782491Y-16409079D02*
X10772968Y-16390031D01*
X10772968Y-16390031D02*
X10763444Y-16361460D01*
X10763444Y-16361460D02*
X10753920Y-16313841D01*
X10753920Y-16313841D02*
X10753920Y-16275746D01*
X10753920Y-16275746D02*
X10763444Y-16228127D01*
X10763444Y-16228127D02*
X10772968Y-16199555D01*
X10772968Y-16199555D02*
X10782491Y-16180508D01*
X10782491Y-16180508D02*
X10801539Y-16151936D01*
X10801539Y-16151936D02*
X10811063Y-16142412D01*
X10896777Y-16370984D02*
X10934872Y-16370984D01*
X10934872Y-16370984D02*
X10953920Y-16361460D01*
X10953920Y-16361460D02*
X10963444Y-16351936D01*
X10963444Y-16351936D02*
X10982491Y-16323365D01*
X10982491Y-16323365D02*
X10992015Y-16285269D01*
X10992015Y-16285269D02*
X10992015Y-16209079D01*
X10992015Y-16209079D02*
X10982491Y-16190031D01*
X10982491Y-16190031D02*
X10972968Y-16180508D01*
X10972968Y-16180508D02*
X10953920Y-16170984D01*
X10953920Y-16170984D02*
X10915825Y-16170984D01*
X10915825Y-16170984D02*
X10896777Y-16180508D01*
X10896777Y-16180508D02*
X10887253Y-16190031D01*
X10887253Y-16190031D02*
X10877730Y-16209079D01*
X10877730Y-16209079D02*
X10877730Y-16256698D01*
X10877730Y-16256698D02*
X10887253Y-16275746D01*
X10887253Y-16275746D02*
X10896777Y-16285269D01*
X10896777Y-16285269D02*
X10915825Y-16294793D01*
X10915825Y-16294793D02*
X10953920Y-16294793D01*
X10953920Y-16294793D02*
X10972968Y-16285269D01*
X10972968Y-16285269D02*
X10982491Y-16275746D01*
X10982491Y-16275746D02*
X10992015Y-16256698D01*
X11115825Y-16170984D02*
X11134872Y-16170984D01*
X11134872Y-16170984D02*
X11153920Y-16180508D01*
X11153920Y-16180508D02*
X11163444Y-16190031D01*
X11163444Y-16190031D02*
X11172968Y-16209079D01*
X11172968Y-16209079D02*
X11182491Y-16247174D01*
X11182491Y-16247174D02*
X11182491Y-16294793D01*
X11182491Y-16294793D02*
X11172968Y-16332888D01*
X11172968Y-16332888D02*
X11163444Y-16351936D01*
X11163444Y-16351936D02*
X11153920Y-16361460D01*
X11153920Y-16361460D02*
X11134872Y-16370984D01*
X11134872Y-16370984D02*
X11115825Y-16370984D01*
X11115825Y-16370984D02*
X11096777Y-16361460D01*
X11096777Y-16361460D02*
X11087253Y-16351936D01*
X11087253Y-16351936D02*
X11077730Y-16332888D01*
X11077730Y-16332888D02*
X11068206Y-16294793D01*
X11068206Y-16294793D02*
X11068206Y-16247174D01*
X11068206Y-16247174D02*
X11077730Y-16209079D01*
X11077730Y-16209079D02*
X11087253Y-16190031D01*
X11087253Y-16190031D02*
X11096777Y-16180508D01*
X11096777Y-16180508D02*
X11115825Y-16170984D01*
X11420587Y-16370984D02*
X11420587Y-16170984D01*
X11506301Y-16370984D02*
X11506301Y-16266222D01*
X11506301Y-16266222D02*
X11496777Y-16247174D01*
X11496777Y-16247174D02*
X11477730Y-16237650D01*
X11477730Y-16237650D02*
X11449158Y-16237650D01*
X11449158Y-16237650D02*
X11430110Y-16247174D01*
X11430110Y-16247174D02*
X11420587Y-16256698D01*
X11630110Y-16370984D02*
X11611063Y-16361460D01*
X11611063Y-16361460D02*
X11601539Y-16351936D01*
X11601539Y-16351936D02*
X11592015Y-16332888D01*
X11592015Y-16332888D02*
X11592015Y-16275746D01*
X11592015Y-16275746D02*
X11601539Y-16256698D01*
X11601539Y-16256698D02*
X11611063Y-16247174D01*
X11611063Y-16247174D02*
X11630110Y-16237650D01*
X11630110Y-16237650D02*
X11658682Y-16237650D01*
X11658682Y-16237650D02*
X11677730Y-16247174D01*
X11677730Y-16247174D02*
X11687253Y-16256698D01*
X11687253Y-16256698D02*
X11696777Y-16275746D01*
X11696777Y-16275746D02*
X11696777Y-16332888D01*
X11696777Y-16332888D02*
X11687253Y-16351936D01*
X11687253Y-16351936D02*
X11677730Y-16361460D01*
X11677730Y-16361460D02*
X11658682Y-16370984D01*
X11658682Y-16370984D02*
X11630110Y-16370984D01*
X11811063Y-16370984D02*
X11792015Y-16361460D01*
X11792015Y-16361460D02*
X11782491Y-16342412D01*
X11782491Y-16342412D02*
X11782491Y-16170984D01*
X11963444Y-16361460D02*
X11944396Y-16370984D01*
X11944396Y-16370984D02*
X11906301Y-16370984D01*
X11906301Y-16370984D02*
X11887253Y-16361460D01*
X11887253Y-16361460D02*
X11877730Y-16342412D01*
X11877730Y-16342412D02*
X11877730Y-16266222D01*
X11877730Y-16266222D02*
X11887253Y-16247174D01*
X11887253Y-16247174D02*
X11906301Y-16237650D01*
X11906301Y-16237650D02*
X11944396Y-16237650D01*
X11944396Y-16237650D02*
X11963444Y-16247174D01*
X11963444Y-16247174D02*
X11972968Y-16266222D01*
X11972968Y-16266222D02*
X11972968Y-16285269D01*
X11972968Y-16285269D02*
X11877730Y-16304317D01*
X12049158Y-16361460D02*
X12068206Y-16370984D01*
X12068206Y-16370984D02*
X12106301Y-16370984D01*
X12106301Y-16370984D02*
X12125349Y-16361460D01*
X12125349Y-16361460D02*
X12134872Y-16342412D01*
X12134872Y-16342412D02*
X12134872Y-16332888D01*
X12134872Y-16332888D02*
X12125349Y-16313841D01*
X12125349Y-16313841D02*
X12106301Y-16304317D01*
X12106301Y-16304317D02*
X12077730Y-16304317D01*
X12077730Y-16304317D02*
X12058682Y-16294793D01*
X12058682Y-16294793D02*
X12049158Y-16275746D01*
X12049158Y-16275746D02*
X12049158Y-16266222D01*
X12049158Y-16266222D02*
X12058682Y-16247174D01*
X12058682Y-16247174D02*
X12077730Y-16237650D01*
X12077730Y-16237650D02*
X12106301Y-16237650D01*
X12106301Y-16237650D02*
X12125349Y-16247174D01*
X12201539Y-16447174D02*
X12211063Y-16437650D01*
X12211063Y-16437650D02*
X12230111Y-16409079D01*
X12230111Y-16409079D02*
X12239634Y-16390031D01*
X12239634Y-16390031D02*
X12249158Y-16361460D01*
X12249158Y-16361460D02*
X12258682Y-16313841D01*
X12258682Y-16313841D02*
X12258682Y-16275746D01*
X12258682Y-16275746D02*
X12249158Y-16228127D01*
X12249158Y-16228127D02*
X12239634Y-16199555D01*
X12239634Y-16199555D02*
X12230111Y-16180508D01*
X12230111Y-16180508D02*
X12211063Y-16151936D01*
X12211063Y-16151936D02*
X12201539Y-16142412D01*
D10*
X7196000Y-16503500D02*
X7196000Y-16583500D01*
X7156000Y-16543500D02*
X7236000Y-16543500D01*
D11*
X7534872Y-16434984D02*
X7553920Y-16434984D01*
X7553920Y-16434984D02*
X7572967Y-16444508D01*
X7572967Y-16444508D02*
X7582491Y-16454031D01*
X7582491Y-16454031D02*
X7592015Y-16473079D01*
X7592015Y-16473079D02*
X7601539Y-16511174D01*
X7601539Y-16511174D02*
X7601539Y-16558793D01*
X7601539Y-16558793D02*
X7592015Y-16596888D01*
X7592015Y-16596888D02*
X7582491Y-16615936D01*
X7582491Y-16615936D02*
X7572967Y-16625460D01*
X7572967Y-16625460D02*
X7553920Y-16634984D01*
X7553920Y-16634984D02*
X7534872Y-16634984D01*
X7534872Y-16634984D02*
X7515824Y-16625460D01*
X7515824Y-16625460D02*
X7506301Y-16615936D01*
X7506301Y-16615936D02*
X7496777Y-16596888D01*
X7496777Y-16596888D02*
X7487253Y-16558793D01*
X7487253Y-16558793D02*
X7487253Y-16511174D01*
X7487253Y-16511174D02*
X7496777Y-16473079D01*
X7496777Y-16473079D02*
X7506301Y-16454031D01*
X7506301Y-16454031D02*
X7515824Y-16444508D01*
X7515824Y-16444508D02*
X7534872Y-16434984D01*
X7687253Y-16615936D02*
X7696777Y-16625460D01*
X7696777Y-16625460D02*
X7687253Y-16634984D01*
X7687253Y-16634984D02*
X7677729Y-16625460D01*
X7677729Y-16625460D02*
X7687253Y-16615936D01*
X7687253Y-16615936D02*
X7687253Y-16634984D01*
X7811062Y-16520698D02*
X7792015Y-16511174D01*
X7792015Y-16511174D02*
X7782491Y-16501650D01*
X7782491Y-16501650D02*
X7772967Y-16482603D01*
X7772967Y-16482603D02*
X7772967Y-16473079D01*
X7772967Y-16473079D02*
X7782491Y-16454031D01*
X7782491Y-16454031D02*
X7792015Y-16444508D01*
X7792015Y-16444508D02*
X7811062Y-16434984D01*
X7811062Y-16434984D02*
X7849158Y-16434984D01*
X7849158Y-16434984D02*
X7868205Y-16444508D01*
X7868205Y-16444508D02*
X7877729Y-16454031D01*
X7877729Y-16454031D02*
X7887253Y-16473079D01*
X7887253Y-16473079D02*
X7887253Y-16482603D01*
X7887253Y-16482603D02*
X7877729Y-16501650D01*
X7877729Y-16501650D02*
X7868205Y-16511174D01*
X7868205Y-16511174D02*
X7849158Y-16520698D01*
X7849158Y-16520698D02*
X7811062Y-16520698D01*
X7811062Y-16520698D02*
X7792015Y-16530222D01*
X7792015Y-16530222D02*
X7782491Y-16539746D01*
X7782491Y-16539746D02*
X7772967Y-16558793D01*
X7772967Y-16558793D02*
X7772967Y-16596888D01*
X7772967Y-16596888D02*
X7782491Y-16615936D01*
X7782491Y-16615936D02*
X7792015Y-16625460D01*
X7792015Y-16625460D02*
X7811062Y-16634984D01*
X7811062Y-16634984D02*
X7849158Y-16634984D01*
X7849158Y-16634984D02*
X7868205Y-16625460D01*
X7868205Y-16625460D02*
X7877729Y-16615936D01*
X7877729Y-16615936D02*
X7887253Y-16596888D01*
X7887253Y-16596888D02*
X7887253Y-16558793D01*
X7887253Y-16558793D02*
X7877729Y-16539746D01*
X7877729Y-16539746D02*
X7868205Y-16530222D01*
X7868205Y-16530222D02*
X7849158Y-16520698D01*
X8011062Y-16434984D02*
X8030110Y-16434984D01*
X8030110Y-16434984D02*
X8049158Y-16444508D01*
X8049158Y-16444508D02*
X8058682Y-16454031D01*
X8058682Y-16454031D02*
X8068205Y-16473079D01*
X8068205Y-16473079D02*
X8077729Y-16511174D01*
X8077729Y-16511174D02*
X8077729Y-16558793D01*
X8077729Y-16558793D02*
X8068205Y-16596888D01*
X8068205Y-16596888D02*
X8058682Y-16615936D01*
X8058682Y-16615936D02*
X8049158Y-16625460D01*
X8049158Y-16625460D02*
X8030110Y-16634984D01*
X8030110Y-16634984D02*
X8011062Y-16634984D01*
X8011062Y-16634984D02*
X7992015Y-16625460D01*
X7992015Y-16625460D02*
X7982491Y-16615936D01*
X7982491Y-16615936D02*
X7972967Y-16596888D01*
X7972967Y-16596888D02*
X7963443Y-16558793D01*
X7963443Y-16558793D02*
X7963443Y-16511174D01*
X7963443Y-16511174D02*
X7972967Y-16473079D01*
X7972967Y-16473079D02*
X7982491Y-16454031D01*
X7982491Y-16454031D02*
X7992015Y-16444508D01*
X7992015Y-16444508D02*
X8011062Y-16434984D01*
X8201539Y-16434984D02*
X8220586Y-16434984D01*
X8220586Y-16434984D02*
X8239634Y-16444508D01*
X8239634Y-16444508D02*
X8249158Y-16454031D01*
X8249158Y-16454031D02*
X8258682Y-16473079D01*
X8258682Y-16473079D02*
X8268205Y-16511174D01*
X8268205Y-16511174D02*
X8268205Y-16558793D01*
X8268205Y-16558793D02*
X8258682Y-16596888D01*
X8258682Y-16596888D02*
X8249158Y-16615936D01*
X8249158Y-16615936D02*
X8239634Y-16625460D01*
X8239634Y-16625460D02*
X8220586Y-16634984D01*
X8220586Y-16634984D02*
X8201539Y-16634984D01*
X8201539Y-16634984D02*
X8182491Y-16625460D01*
X8182491Y-16625460D02*
X8172967Y-16615936D01*
X8172967Y-16615936D02*
X8163443Y-16596888D01*
X8163443Y-16596888D02*
X8153920Y-16558793D01*
X8153920Y-16558793D02*
X8153920Y-16511174D01*
X8153920Y-16511174D02*
X8163443Y-16473079D01*
X8163443Y-16473079D02*
X8172967Y-16454031D01*
X8172967Y-16454031D02*
X8182491Y-16444508D01*
X8182491Y-16444508D02*
X8201539Y-16434984D01*
X8353920Y-16634984D02*
X8353920Y-16501650D01*
X8353920Y-16520698D02*
X8363443Y-16511174D01*
X8363443Y-16511174D02*
X8382491Y-16501650D01*
X8382491Y-16501650D02*
X8411063Y-16501650D01*
X8411063Y-16501650D02*
X8430110Y-16511174D01*
X8430110Y-16511174D02*
X8439634Y-16530222D01*
X8439634Y-16530222D02*
X8439634Y-16634984D01*
X8439634Y-16530222D02*
X8449158Y-16511174D01*
X8449158Y-16511174D02*
X8468205Y-16501650D01*
X8468205Y-16501650D02*
X8496777Y-16501650D01*
X8496777Y-16501650D02*
X8515825Y-16511174D01*
X8515825Y-16511174D02*
X8525348Y-16530222D01*
X8525348Y-16530222D02*
X8525348Y-16634984D01*
X8620586Y-16634984D02*
X8620586Y-16501650D01*
X8620586Y-16520698D02*
X8630110Y-16511174D01*
X8630110Y-16511174D02*
X8649158Y-16501650D01*
X8649158Y-16501650D02*
X8677729Y-16501650D01*
X8677729Y-16501650D02*
X8696777Y-16511174D01*
X8696777Y-16511174D02*
X8706301Y-16530222D01*
X8706301Y-16530222D02*
X8706301Y-16634984D01*
X8706301Y-16530222D02*
X8715825Y-16511174D01*
X8715825Y-16511174D02*
X8734872Y-16501650D01*
X8734872Y-16501650D02*
X8763444Y-16501650D01*
X8763444Y-16501650D02*
X8782491Y-16511174D01*
X8782491Y-16511174D02*
X8792015Y-16530222D01*
X8792015Y-16530222D02*
X8792015Y-16634984D01*
X9182491Y-16425460D02*
X9011063Y-16682603D01*
X9439634Y-16434984D02*
X9458682Y-16434984D01*
X9458682Y-16434984D02*
X9477729Y-16444508D01*
X9477729Y-16444508D02*
X9487253Y-16454031D01*
X9487253Y-16454031D02*
X9496777Y-16473079D01*
X9496777Y-16473079D02*
X9506301Y-16511174D01*
X9506301Y-16511174D02*
X9506301Y-16558793D01*
X9506301Y-16558793D02*
X9496777Y-16596888D01*
X9496777Y-16596888D02*
X9487253Y-16615936D01*
X9487253Y-16615936D02*
X9477729Y-16625460D01*
X9477729Y-16625460D02*
X9458682Y-16634984D01*
X9458682Y-16634984D02*
X9439634Y-16634984D01*
X9439634Y-16634984D02*
X9420587Y-16625460D01*
X9420587Y-16625460D02*
X9411063Y-16615936D01*
X9411063Y-16615936D02*
X9401539Y-16596888D01*
X9401539Y-16596888D02*
X9392015Y-16558793D01*
X9392015Y-16558793D02*
X9392015Y-16511174D01*
X9392015Y-16511174D02*
X9401539Y-16473079D01*
X9401539Y-16473079D02*
X9411063Y-16454031D01*
X9411063Y-16454031D02*
X9420587Y-16444508D01*
X9420587Y-16444508D02*
X9439634Y-16434984D01*
X9592015Y-16615936D02*
X9601539Y-16625460D01*
X9601539Y-16625460D02*
X9592015Y-16634984D01*
X9592015Y-16634984D02*
X9582491Y-16625460D01*
X9582491Y-16625460D02*
X9592015Y-16615936D01*
X9592015Y-16615936D02*
X9592015Y-16634984D01*
X9725348Y-16434984D02*
X9744396Y-16434984D01*
X9744396Y-16434984D02*
X9763444Y-16444508D01*
X9763444Y-16444508D02*
X9772968Y-16454031D01*
X9772968Y-16454031D02*
X9782491Y-16473079D01*
X9782491Y-16473079D02*
X9792015Y-16511174D01*
X9792015Y-16511174D02*
X9792015Y-16558793D01*
X9792015Y-16558793D02*
X9782491Y-16596888D01*
X9782491Y-16596888D02*
X9772968Y-16615936D01*
X9772968Y-16615936D02*
X9763444Y-16625460D01*
X9763444Y-16625460D02*
X9744396Y-16634984D01*
X9744396Y-16634984D02*
X9725348Y-16634984D01*
X9725348Y-16634984D02*
X9706301Y-16625460D01*
X9706301Y-16625460D02*
X9696777Y-16615936D01*
X9696777Y-16615936D02*
X9687253Y-16596888D01*
X9687253Y-16596888D02*
X9677729Y-16558793D01*
X9677729Y-16558793D02*
X9677729Y-16511174D01*
X9677729Y-16511174D02*
X9687253Y-16473079D01*
X9687253Y-16473079D02*
X9696777Y-16454031D01*
X9696777Y-16454031D02*
X9706301Y-16444508D01*
X9706301Y-16444508D02*
X9725348Y-16434984D01*
X9858682Y-16434984D02*
X9982491Y-16434984D01*
X9982491Y-16434984D02*
X9915825Y-16511174D01*
X9915825Y-16511174D02*
X9944396Y-16511174D01*
X9944396Y-16511174D02*
X9963444Y-16520698D01*
X9963444Y-16520698D02*
X9972968Y-16530222D01*
X9972968Y-16530222D02*
X9982491Y-16549269D01*
X9982491Y-16549269D02*
X9982491Y-16596888D01*
X9982491Y-16596888D02*
X9972968Y-16615936D01*
X9972968Y-16615936D02*
X9963444Y-16625460D01*
X9963444Y-16625460D02*
X9944396Y-16634984D01*
X9944396Y-16634984D02*
X9887253Y-16634984D01*
X9887253Y-16634984D02*
X9868206Y-16625460D01*
X9868206Y-16625460D02*
X9858682Y-16615936D01*
X10172968Y-16634984D02*
X10058682Y-16634984D01*
X10115825Y-16634984D02*
X10115825Y-16434984D01*
X10115825Y-16434984D02*
X10096777Y-16463555D01*
X10096777Y-16463555D02*
X10077729Y-16482603D01*
X10077729Y-16482603D02*
X10058682Y-16492127D01*
X10353920Y-16434984D02*
X10258682Y-16434984D01*
X10258682Y-16434984D02*
X10249158Y-16530222D01*
X10249158Y-16530222D02*
X10258682Y-16520698D01*
X10258682Y-16520698D02*
X10277729Y-16511174D01*
X10277729Y-16511174D02*
X10325349Y-16511174D01*
X10325349Y-16511174D02*
X10344396Y-16520698D01*
X10344396Y-16520698D02*
X10353920Y-16530222D01*
X10353920Y-16530222D02*
X10363444Y-16549269D01*
X10363444Y-16549269D02*
X10363444Y-16596888D01*
X10363444Y-16596888D02*
X10353920Y-16615936D01*
X10353920Y-16615936D02*
X10344396Y-16625460D01*
X10344396Y-16625460D02*
X10325349Y-16634984D01*
X10325349Y-16634984D02*
X10277729Y-16634984D01*
X10277729Y-16634984D02*
X10258682Y-16625460D01*
X10258682Y-16625460D02*
X10249158Y-16615936D01*
X10439634Y-16434984D02*
X10439634Y-16473079D01*
X10515825Y-16434984D02*
X10515825Y-16473079D01*
X10811063Y-16711174D02*
X10801539Y-16701650D01*
X10801539Y-16701650D02*
X10782491Y-16673079D01*
X10782491Y-16673079D02*
X10772968Y-16654031D01*
X10772968Y-16654031D02*
X10763444Y-16625460D01*
X10763444Y-16625460D02*
X10753920Y-16577841D01*
X10753920Y-16577841D02*
X10753920Y-16539746D01*
X10753920Y-16539746D02*
X10763444Y-16492127D01*
X10763444Y-16492127D02*
X10772968Y-16463555D01*
X10772968Y-16463555D02*
X10782491Y-16444508D01*
X10782491Y-16444508D02*
X10801539Y-16415936D01*
X10801539Y-16415936D02*
X10811063Y-16406412D01*
X10868206Y-16434984D02*
X10992015Y-16434984D01*
X10992015Y-16434984D02*
X10925349Y-16511174D01*
X10925349Y-16511174D02*
X10953920Y-16511174D01*
X10953920Y-16511174D02*
X10972968Y-16520698D01*
X10972968Y-16520698D02*
X10982491Y-16530222D01*
X10982491Y-16530222D02*
X10992015Y-16549269D01*
X10992015Y-16549269D02*
X10992015Y-16596888D01*
X10992015Y-16596888D02*
X10982491Y-16615936D01*
X10982491Y-16615936D02*
X10972968Y-16625460D01*
X10972968Y-16625460D02*
X10953920Y-16634984D01*
X10953920Y-16634984D02*
X10896777Y-16634984D01*
X10896777Y-16634984D02*
X10877730Y-16625460D01*
X10877730Y-16625460D02*
X10868206Y-16615936D01*
X11163444Y-16434984D02*
X11125349Y-16434984D01*
X11125349Y-16434984D02*
X11106301Y-16444508D01*
X11106301Y-16444508D02*
X11096777Y-16454031D01*
X11096777Y-16454031D02*
X11077730Y-16482603D01*
X11077730Y-16482603D02*
X11068206Y-16520698D01*
X11068206Y-16520698D02*
X11068206Y-16596888D01*
X11068206Y-16596888D02*
X11077730Y-16615936D01*
X11077730Y-16615936D02*
X11087253Y-16625460D01*
X11087253Y-16625460D02*
X11106301Y-16634984D01*
X11106301Y-16634984D02*
X11144396Y-16634984D01*
X11144396Y-16634984D02*
X11163444Y-16625460D01*
X11163444Y-16625460D02*
X11172968Y-16615936D01*
X11172968Y-16615936D02*
X11182491Y-16596888D01*
X11182491Y-16596888D02*
X11182491Y-16549269D01*
X11182491Y-16549269D02*
X11172968Y-16530222D01*
X11172968Y-16530222D02*
X11163444Y-16520698D01*
X11163444Y-16520698D02*
X11144396Y-16511174D01*
X11144396Y-16511174D02*
X11106301Y-16511174D01*
X11106301Y-16511174D02*
X11087253Y-16520698D01*
X11087253Y-16520698D02*
X11077730Y-16530222D01*
X11077730Y-16530222D02*
X11068206Y-16549269D01*
X11420587Y-16634984D02*
X11420587Y-16434984D01*
X11506301Y-16634984D02*
X11506301Y-16530222D01*
X11506301Y-16530222D02*
X11496777Y-16511174D01*
X11496777Y-16511174D02*
X11477730Y-16501650D01*
X11477730Y-16501650D02*
X11449158Y-16501650D01*
X11449158Y-16501650D02*
X11430110Y-16511174D01*
X11430110Y-16511174D02*
X11420587Y-16520698D01*
X11630110Y-16634984D02*
X11611063Y-16625460D01*
X11611063Y-16625460D02*
X11601539Y-16615936D01*
X11601539Y-16615936D02*
X11592015Y-16596888D01*
X11592015Y-16596888D02*
X11592015Y-16539746D01*
X11592015Y-16539746D02*
X11601539Y-16520698D01*
X11601539Y-16520698D02*
X11611063Y-16511174D01*
X11611063Y-16511174D02*
X11630110Y-16501650D01*
X11630110Y-16501650D02*
X11658682Y-16501650D01*
X11658682Y-16501650D02*
X11677730Y-16511174D01*
X11677730Y-16511174D02*
X11687253Y-16520698D01*
X11687253Y-16520698D02*
X11696777Y-16539746D01*
X11696777Y-16539746D02*
X11696777Y-16596888D01*
X11696777Y-16596888D02*
X11687253Y-16615936D01*
X11687253Y-16615936D02*
X11677730Y-16625460D01*
X11677730Y-16625460D02*
X11658682Y-16634984D01*
X11658682Y-16634984D02*
X11630110Y-16634984D01*
X11811063Y-16634984D02*
X11792015Y-16625460D01*
X11792015Y-16625460D02*
X11782491Y-16606412D01*
X11782491Y-16606412D02*
X11782491Y-16434984D01*
X11963444Y-16625460D02*
X11944396Y-16634984D01*
X11944396Y-16634984D02*
X11906301Y-16634984D01*
X11906301Y-16634984D02*
X11887253Y-16625460D01*
X11887253Y-16625460D02*
X11877730Y-16606412D01*
X11877730Y-16606412D02*
X11877730Y-16530222D01*
X11877730Y-16530222D02*
X11887253Y-16511174D01*
X11887253Y-16511174D02*
X11906301Y-16501650D01*
X11906301Y-16501650D02*
X11944396Y-16501650D01*
X11944396Y-16501650D02*
X11963444Y-16511174D01*
X11963444Y-16511174D02*
X11972968Y-16530222D01*
X11972968Y-16530222D02*
X11972968Y-16549269D01*
X11972968Y-16549269D02*
X11877730Y-16568317D01*
X12049158Y-16625460D02*
X12068206Y-16634984D01*
X12068206Y-16634984D02*
X12106301Y-16634984D01*
X12106301Y-16634984D02*
X12125349Y-16625460D01*
X12125349Y-16625460D02*
X12134872Y-16606412D01*
X12134872Y-16606412D02*
X12134872Y-16596888D01*
X12134872Y-16596888D02*
X12125349Y-16577841D01*
X12125349Y-16577841D02*
X12106301Y-16568317D01*
X12106301Y-16568317D02*
X12077730Y-16568317D01*
X12077730Y-16568317D02*
X12058682Y-16558793D01*
X12058682Y-16558793D02*
X12049158Y-16539746D01*
X12049158Y-16539746D02*
X12049158Y-16530222D01*
X12049158Y-16530222D02*
X12058682Y-16511174D01*
X12058682Y-16511174D02*
X12077730Y-16501650D01*
X12077730Y-16501650D02*
X12106301Y-16501650D01*
X12106301Y-16501650D02*
X12125349Y-16511174D01*
X12201539Y-16711174D02*
X12211063Y-16701650D01*
X12211063Y-16701650D02*
X12230111Y-16673079D01*
X12230111Y-16673079D02*
X12239634Y-16654031D01*
X12239634Y-16654031D02*
X12249158Y-16625460D01*
X12249158Y-16625460D02*
X12258682Y-16577841D01*
X12258682Y-16577841D02*
X12258682Y-16539746D01*
X12258682Y-16539746D02*
X12249158Y-16492127D01*
X12249158Y-16492127D02*
X12239634Y-16463555D01*
X12239634Y-16463555D02*
X12230111Y-16444508D01*
X12230111Y-16444508D02*
X12211063Y-16415936D01*
X12211063Y-16415936D02*
X12201539Y-16406412D01*
D10*
X7222820Y-16839320D02*
X7222820Y-16775680D01*
X7159180Y-16775680D01*
X7159180Y-16839320D01*
X7222820Y-16839320D01*
D11*
X7534872Y-16698984D02*
X7553920Y-16698984D01*
X7553920Y-16698984D02*
X7572967Y-16708508D01*
X7572967Y-16708508D02*
X7582491Y-16718031D01*
X7582491Y-16718031D02*
X7592015Y-16737079D01*
X7592015Y-16737079D02*
X7601539Y-16775174D01*
X7601539Y-16775174D02*
X7601539Y-16822793D01*
X7601539Y-16822793D02*
X7592015Y-16860889D01*
X7592015Y-16860889D02*
X7582491Y-16879936D01*
X7582491Y-16879936D02*
X7572967Y-16889460D01*
X7572967Y-16889460D02*
X7553920Y-16898984D01*
X7553920Y-16898984D02*
X7534872Y-16898984D01*
X7534872Y-16898984D02*
X7515824Y-16889460D01*
X7515824Y-16889460D02*
X7506301Y-16879936D01*
X7506301Y-16879936D02*
X7496777Y-16860889D01*
X7496777Y-16860889D02*
X7487253Y-16822793D01*
X7487253Y-16822793D02*
X7487253Y-16775174D01*
X7487253Y-16775174D02*
X7496777Y-16737079D01*
X7496777Y-16737079D02*
X7506301Y-16718031D01*
X7506301Y-16718031D02*
X7515824Y-16708508D01*
X7515824Y-16708508D02*
X7534872Y-16698984D01*
X7687253Y-16879936D02*
X7696777Y-16889460D01*
X7696777Y-16889460D02*
X7687253Y-16898984D01*
X7687253Y-16898984D02*
X7677729Y-16889460D01*
X7677729Y-16889460D02*
X7687253Y-16879936D01*
X7687253Y-16879936D02*
X7687253Y-16898984D01*
X7792015Y-16898984D02*
X7830110Y-16898984D01*
X7830110Y-16898984D02*
X7849158Y-16889460D01*
X7849158Y-16889460D02*
X7858682Y-16879936D01*
X7858682Y-16879936D02*
X7877729Y-16851365D01*
X7877729Y-16851365D02*
X7887253Y-16813270D01*
X7887253Y-16813270D02*
X7887253Y-16737079D01*
X7887253Y-16737079D02*
X7877729Y-16718031D01*
X7877729Y-16718031D02*
X7868205Y-16708508D01*
X7868205Y-16708508D02*
X7849158Y-16698984D01*
X7849158Y-16698984D02*
X7811062Y-16698984D01*
X7811062Y-16698984D02*
X7792015Y-16708508D01*
X7792015Y-16708508D02*
X7782491Y-16718031D01*
X7782491Y-16718031D02*
X7772967Y-16737079D01*
X7772967Y-16737079D02*
X7772967Y-16784698D01*
X7772967Y-16784698D02*
X7782491Y-16803746D01*
X7782491Y-16803746D02*
X7792015Y-16813270D01*
X7792015Y-16813270D02*
X7811062Y-16822793D01*
X7811062Y-16822793D02*
X7849158Y-16822793D01*
X7849158Y-16822793D02*
X7868205Y-16813270D01*
X7868205Y-16813270D02*
X7877729Y-16803746D01*
X7877729Y-16803746D02*
X7887253Y-16784698D01*
X8011062Y-16698984D02*
X8030110Y-16698984D01*
X8030110Y-16698984D02*
X8049158Y-16708508D01*
X8049158Y-16708508D02*
X8058682Y-16718031D01*
X8058682Y-16718031D02*
X8068205Y-16737079D01*
X8068205Y-16737079D02*
X8077729Y-16775174D01*
X8077729Y-16775174D02*
X8077729Y-16822793D01*
X8077729Y-16822793D02*
X8068205Y-16860889D01*
X8068205Y-16860889D02*
X8058682Y-16879936D01*
X8058682Y-16879936D02*
X8049158Y-16889460D01*
X8049158Y-16889460D02*
X8030110Y-16898984D01*
X8030110Y-16898984D02*
X8011062Y-16898984D01*
X8011062Y-16898984D02*
X7992015Y-16889460D01*
X7992015Y-16889460D02*
X7982491Y-16879936D01*
X7982491Y-16879936D02*
X7972967Y-16860889D01*
X7972967Y-16860889D02*
X7963443Y-16822793D01*
X7963443Y-16822793D02*
X7963443Y-16775174D01*
X7963443Y-16775174D02*
X7972967Y-16737079D01*
X7972967Y-16737079D02*
X7982491Y-16718031D01*
X7982491Y-16718031D02*
X7992015Y-16708508D01*
X7992015Y-16708508D02*
X8011062Y-16698984D01*
X8201539Y-16698984D02*
X8220586Y-16698984D01*
X8220586Y-16698984D02*
X8239634Y-16708508D01*
X8239634Y-16708508D02*
X8249158Y-16718031D01*
X8249158Y-16718031D02*
X8258682Y-16737079D01*
X8258682Y-16737079D02*
X8268205Y-16775174D01*
X8268205Y-16775174D02*
X8268205Y-16822793D01*
X8268205Y-16822793D02*
X8258682Y-16860889D01*
X8258682Y-16860889D02*
X8249158Y-16879936D01*
X8249158Y-16879936D02*
X8239634Y-16889460D01*
X8239634Y-16889460D02*
X8220586Y-16898984D01*
X8220586Y-16898984D02*
X8201539Y-16898984D01*
X8201539Y-16898984D02*
X8182491Y-16889460D01*
X8182491Y-16889460D02*
X8172967Y-16879936D01*
X8172967Y-16879936D02*
X8163443Y-16860889D01*
X8163443Y-16860889D02*
X8153920Y-16822793D01*
X8153920Y-16822793D02*
X8153920Y-16775174D01*
X8153920Y-16775174D02*
X8163443Y-16737079D01*
X8163443Y-16737079D02*
X8172967Y-16718031D01*
X8172967Y-16718031D02*
X8182491Y-16708508D01*
X8182491Y-16708508D02*
X8201539Y-16698984D01*
X8353920Y-16898984D02*
X8353920Y-16765650D01*
X8353920Y-16784698D02*
X8363443Y-16775174D01*
X8363443Y-16775174D02*
X8382491Y-16765650D01*
X8382491Y-16765650D02*
X8411063Y-16765650D01*
X8411063Y-16765650D02*
X8430110Y-16775174D01*
X8430110Y-16775174D02*
X8439634Y-16794222D01*
X8439634Y-16794222D02*
X8439634Y-16898984D01*
X8439634Y-16794222D02*
X8449158Y-16775174D01*
X8449158Y-16775174D02*
X8468205Y-16765650D01*
X8468205Y-16765650D02*
X8496777Y-16765650D01*
X8496777Y-16765650D02*
X8515825Y-16775174D01*
X8515825Y-16775174D02*
X8525348Y-16794222D01*
X8525348Y-16794222D02*
X8525348Y-16898984D01*
X8620586Y-16898984D02*
X8620586Y-16765650D01*
X8620586Y-16784698D02*
X8630110Y-16775174D01*
X8630110Y-16775174D02*
X8649158Y-16765650D01*
X8649158Y-16765650D02*
X8677729Y-16765650D01*
X8677729Y-16765650D02*
X8696777Y-16775174D01*
X8696777Y-16775174D02*
X8706301Y-16794222D01*
X8706301Y-16794222D02*
X8706301Y-16898984D01*
X8706301Y-16794222D02*
X8715825Y-16775174D01*
X8715825Y-16775174D02*
X8734872Y-16765650D01*
X8734872Y-16765650D02*
X8763444Y-16765650D01*
X8763444Y-16765650D02*
X8782491Y-16775174D01*
X8782491Y-16775174D02*
X8792015Y-16794222D01*
X8792015Y-16794222D02*
X8792015Y-16898984D01*
X9182491Y-16689460D02*
X9011063Y-16946603D01*
X9439634Y-16698984D02*
X9458682Y-16698984D01*
X9458682Y-16698984D02*
X9477729Y-16708508D01*
X9477729Y-16708508D02*
X9487253Y-16718031D01*
X9487253Y-16718031D02*
X9496777Y-16737079D01*
X9496777Y-16737079D02*
X9506301Y-16775174D01*
X9506301Y-16775174D02*
X9506301Y-16822793D01*
X9506301Y-16822793D02*
X9496777Y-16860889D01*
X9496777Y-16860889D02*
X9487253Y-16879936D01*
X9487253Y-16879936D02*
X9477729Y-16889460D01*
X9477729Y-16889460D02*
X9458682Y-16898984D01*
X9458682Y-16898984D02*
X9439634Y-16898984D01*
X9439634Y-16898984D02*
X9420587Y-16889460D01*
X9420587Y-16889460D02*
X9411063Y-16879936D01*
X9411063Y-16879936D02*
X9401539Y-16860889D01*
X9401539Y-16860889D02*
X9392015Y-16822793D01*
X9392015Y-16822793D02*
X9392015Y-16775174D01*
X9392015Y-16775174D02*
X9401539Y-16737079D01*
X9401539Y-16737079D02*
X9411063Y-16718031D01*
X9411063Y-16718031D02*
X9420587Y-16708508D01*
X9420587Y-16708508D02*
X9439634Y-16698984D01*
X9592015Y-16879936D02*
X9601539Y-16889460D01*
X9601539Y-16889460D02*
X9592015Y-16898984D01*
X9592015Y-16898984D02*
X9582491Y-16889460D01*
X9582491Y-16889460D02*
X9592015Y-16879936D01*
X9592015Y-16879936D02*
X9592015Y-16898984D01*
X9725348Y-16698984D02*
X9744396Y-16698984D01*
X9744396Y-16698984D02*
X9763444Y-16708508D01*
X9763444Y-16708508D02*
X9772968Y-16718031D01*
X9772968Y-16718031D02*
X9782491Y-16737079D01*
X9782491Y-16737079D02*
X9792015Y-16775174D01*
X9792015Y-16775174D02*
X9792015Y-16822793D01*
X9792015Y-16822793D02*
X9782491Y-16860889D01*
X9782491Y-16860889D02*
X9772968Y-16879936D01*
X9772968Y-16879936D02*
X9763444Y-16889460D01*
X9763444Y-16889460D02*
X9744396Y-16898984D01*
X9744396Y-16898984D02*
X9725348Y-16898984D01*
X9725348Y-16898984D02*
X9706301Y-16889460D01*
X9706301Y-16889460D02*
X9696777Y-16879936D01*
X9696777Y-16879936D02*
X9687253Y-16860889D01*
X9687253Y-16860889D02*
X9677729Y-16822793D01*
X9677729Y-16822793D02*
X9677729Y-16775174D01*
X9677729Y-16775174D02*
X9687253Y-16737079D01*
X9687253Y-16737079D02*
X9696777Y-16718031D01*
X9696777Y-16718031D02*
X9706301Y-16708508D01*
X9706301Y-16708508D02*
X9725348Y-16698984D01*
X9858682Y-16698984D02*
X9982491Y-16698984D01*
X9982491Y-16698984D02*
X9915825Y-16775174D01*
X9915825Y-16775174D02*
X9944396Y-16775174D01*
X9944396Y-16775174D02*
X9963444Y-16784698D01*
X9963444Y-16784698D02*
X9972968Y-16794222D01*
X9972968Y-16794222D02*
X9982491Y-16813270D01*
X9982491Y-16813270D02*
X9982491Y-16860889D01*
X9982491Y-16860889D02*
X9972968Y-16879936D01*
X9972968Y-16879936D02*
X9963444Y-16889460D01*
X9963444Y-16889460D02*
X9944396Y-16898984D01*
X9944396Y-16898984D02*
X9887253Y-16898984D01*
X9887253Y-16898984D02*
X9868206Y-16889460D01*
X9868206Y-16889460D02*
X9858682Y-16879936D01*
X10163444Y-16698984D02*
X10068206Y-16698984D01*
X10068206Y-16698984D02*
X10058682Y-16794222D01*
X10058682Y-16794222D02*
X10068206Y-16784698D01*
X10068206Y-16784698D02*
X10087253Y-16775174D01*
X10087253Y-16775174D02*
X10134872Y-16775174D01*
X10134872Y-16775174D02*
X10153920Y-16784698D01*
X10153920Y-16784698D02*
X10163444Y-16794222D01*
X10163444Y-16794222D02*
X10172968Y-16813270D01*
X10172968Y-16813270D02*
X10172968Y-16860889D01*
X10172968Y-16860889D02*
X10163444Y-16879936D01*
X10163444Y-16879936D02*
X10153920Y-16889460D01*
X10153920Y-16889460D02*
X10134872Y-16898984D01*
X10134872Y-16898984D02*
X10087253Y-16898984D01*
X10087253Y-16898984D02*
X10068206Y-16889460D01*
X10068206Y-16889460D02*
X10058682Y-16879936D01*
X10344396Y-16765650D02*
X10344396Y-16898984D01*
X10296777Y-16689460D02*
X10249158Y-16832317D01*
X10249158Y-16832317D02*
X10372968Y-16832317D01*
X10439634Y-16698984D02*
X10439634Y-16737079D01*
X10515825Y-16698984D02*
X10515825Y-16737079D01*
X10811063Y-16975174D02*
X10801539Y-16965650D01*
X10801539Y-16965650D02*
X10782491Y-16937079D01*
X10782491Y-16937079D02*
X10772968Y-16918031D01*
X10772968Y-16918031D02*
X10763444Y-16889460D01*
X10763444Y-16889460D02*
X10753920Y-16841841D01*
X10753920Y-16841841D02*
X10753920Y-16803746D01*
X10753920Y-16803746D02*
X10763444Y-16756127D01*
X10763444Y-16756127D02*
X10772968Y-16727555D01*
X10772968Y-16727555D02*
X10782491Y-16708508D01*
X10782491Y-16708508D02*
X10801539Y-16679936D01*
X10801539Y-16679936D02*
X10811063Y-16670412D01*
X10877730Y-16718031D02*
X10887253Y-16708508D01*
X10887253Y-16708508D02*
X10906301Y-16698984D01*
X10906301Y-16698984D02*
X10953920Y-16698984D01*
X10953920Y-16698984D02*
X10972968Y-16708508D01*
X10972968Y-16708508D02*
X10982491Y-16718031D01*
X10982491Y-16718031D02*
X10992015Y-16737079D01*
X10992015Y-16737079D02*
X10992015Y-16756127D01*
X10992015Y-16756127D02*
X10982491Y-16784698D01*
X10982491Y-16784698D02*
X10868206Y-16898984D01*
X10868206Y-16898984D02*
X10992015Y-16898984D01*
X11163444Y-16765650D02*
X11163444Y-16898984D01*
X11115825Y-16689460D02*
X11068206Y-16832317D01*
X11068206Y-16832317D02*
X11192015Y-16832317D01*
X11420587Y-16898984D02*
X11420587Y-16698984D01*
X11506301Y-16898984D02*
X11506301Y-16794222D01*
X11506301Y-16794222D02*
X11496777Y-16775174D01*
X11496777Y-16775174D02*
X11477730Y-16765650D01*
X11477730Y-16765650D02*
X11449158Y-16765650D01*
X11449158Y-16765650D02*
X11430110Y-16775174D01*
X11430110Y-16775174D02*
X11420587Y-16784698D01*
X11630110Y-16898984D02*
X11611063Y-16889460D01*
X11611063Y-16889460D02*
X11601539Y-16879936D01*
X11601539Y-16879936D02*
X11592015Y-16860889D01*
X11592015Y-16860889D02*
X11592015Y-16803746D01*
X11592015Y-16803746D02*
X11601539Y-16784698D01*
X11601539Y-16784698D02*
X11611063Y-16775174D01*
X11611063Y-16775174D02*
X11630110Y-16765650D01*
X11630110Y-16765650D02*
X11658682Y-16765650D01*
X11658682Y-16765650D02*
X11677730Y-16775174D01*
X11677730Y-16775174D02*
X11687253Y-16784698D01*
X11687253Y-16784698D02*
X11696777Y-16803746D01*
X11696777Y-16803746D02*
X11696777Y-16860889D01*
X11696777Y-16860889D02*
X11687253Y-16879936D01*
X11687253Y-16879936D02*
X11677730Y-16889460D01*
X11677730Y-16889460D02*
X11658682Y-16898984D01*
X11658682Y-16898984D02*
X11630110Y-16898984D01*
X11811063Y-16898984D02*
X11792015Y-16889460D01*
X11792015Y-16889460D02*
X11782491Y-16870412D01*
X11782491Y-16870412D02*
X11782491Y-16698984D01*
X11963444Y-16889460D02*
X11944396Y-16898984D01*
X11944396Y-16898984D02*
X11906301Y-16898984D01*
X11906301Y-16898984D02*
X11887253Y-16889460D01*
X11887253Y-16889460D02*
X11877730Y-16870412D01*
X11877730Y-16870412D02*
X11877730Y-16794222D01*
X11877730Y-16794222D02*
X11887253Y-16775174D01*
X11887253Y-16775174D02*
X11906301Y-16765650D01*
X11906301Y-16765650D02*
X11944396Y-16765650D01*
X11944396Y-16765650D02*
X11963444Y-16775174D01*
X11963444Y-16775174D02*
X11972968Y-16794222D01*
X11972968Y-16794222D02*
X11972968Y-16813270D01*
X11972968Y-16813270D02*
X11877730Y-16832317D01*
X12049158Y-16889460D02*
X12068206Y-16898984D01*
X12068206Y-16898984D02*
X12106301Y-16898984D01*
X12106301Y-16898984D02*
X12125349Y-16889460D01*
X12125349Y-16889460D02*
X12134872Y-16870412D01*
X12134872Y-16870412D02*
X12134872Y-16860889D01*
X12134872Y-16860889D02*
X12125349Y-16841841D01*
X12125349Y-16841841D02*
X12106301Y-16832317D01*
X12106301Y-16832317D02*
X12077730Y-16832317D01*
X12077730Y-16832317D02*
X12058682Y-16822793D01*
X12058682Y-16822793D02*
X12049158Y-16803746D01*
X12049158Y-16803746D02*
X12049158Y-16794222D01*
X12049158Y-16794222D02*
X12058682Y-16775174D01*
X12058682Y-16775174D02*
X12077730Y-16765650D01*
X12077730Y-16765650D02*
X12106301Y-16765650D01*
X12106301Y-16765650D02*
X12125349Y-16775174D01*
X12201539Y-16975174D02*
X12211063Y-16965650D01*
X12211063Y-16965650D02*
X12230111Y-16937079D01*
X12230111Y-16937079D02*
X12239634Y-16918031D01*
X12239634Y-16918031D02*
X12249158Y-16889460D01*
X12249158Y-16889460D02*
X12258682Y-16841841D01*
X12258682Y-16841841D02*
X12258682Y-16803746D01*
X12258682Y-16803746D02*
X12249158Y-16756127D01*
X12249158Y-16756127D02*
X12239634Y-16727555D01*
X12239634Y-16727555D02*
X12230111Y-16708508D01*
X12230111Y-16708508D02*
X12211063Y-16679936D01*
X12211063Y-16679936D02*
X12201539Y-16670412D01*
D10*
X7186000Y-17121500D02*
X7236000Y-17071500D01*
X7186000Y-17021500D01*
X7136000Y-17071500D01*
X7186000Y-17121500D01*
D11*
X7601539Y-17162984D02*
X7487253Y-17162984D01*
X7544396Y-17162984D02*
X7544396Y-16962984D01*
X7544396Y-16962984D02*
X7525348Y-16991555D01*
X7525348Y-16991555D02*
X7506301Y-17010603D01*
X7506301Y-17010603D02*
X7487253Y-17020127D01*
X7687253Y-17143936D02*
X7696777Y-17153460D01*
X7696777Y-17153460D02*
X7687253Y-17162984D01*
X7687253Y-17162984D02*
X7677729Y-17153460D01*
X7677729Y-17153460D02*
X7687253Y-17143936D01*
X7687253Y-17143936D02*
X7687253Y-17162984D01*
X7820586Y-16962984D02*
X7839634Y-16962984D01*
X7839634Y-16962984D02*
X7858682Y-16972508D01*
X7858682Y-16972508D02*
X7868205Y-16982031D01*
X7868205Y-16982031D02*
X7877729Y-17001079D01*
X7877729Y-17001079D02*
X7887253Y-17039174D01*
X7887253Y-17039174D02*
X7887253Y-17086793D01*
X7887253Y-17086793D02*
X7877729Y-17124889D01*
X7877729Y-17124889D02*
X7868205Y-17143936D01*
X7868205Y-17143936D02*
X7858682Y-17153460D01*
X7858682Y-17153460D02*
X7839634Y-17162984D01*
X7839634Y-17162984D02*
X7820586Y-17162984D01*
X7820586Y-17162984D02*
X7801539Y-17153460D01*
X7801539Y-17153460D02*
X7792015Y-17143936D01*
X7792015Y-17143936D02*
X7782491Y-17124889D01*
X7782491Y-17124889D02*
X7772967Y-17086793D01*
X7772967Y-17086793D02*
X7772967Y-17039174D01*
X7772967Y-17039174D02*
X7782491Y-17001079D01*
X7782491Y-17001079D02*
X7792015Y-16982031D01*
X7792015Y-16982031D02*
X7801539Y-16972508D01*
X7801539Y-16972508D02*
X7820586Y-16962984D01*
X8011062Y-16962984D02*
X8030110Y-16962984D01*
X8030110Y-16962984D02*
X8049158Y-16972508D01*
X8049158Y-16972508D02*
X8058682Y-16982031D01*
X8058682Y-16982031D02*
X8068205Y-17001079D01*
X8068205Y-17001079D02*
X8077729Y-17039174D01*
X8077729Y-17039174D02*
X8077729Y-17086793D01*
X8077729Y-17086793D02*
X8068205Y-17124889D01*
X8068205Y-17124889D02*
X8058682Y-17143936D01*
X8058682Y-17143936D02*
X8049158Y-17153460D01*
X8049158Y-17153460D02*
X8030110Y-17162984D01*
X8030110Y-17162984D02*
X8011062Y-17162984D01*
X8011062Y-17162984D02*
X7992015Y-17153460D01*
X7992015Y-17153460D02*
X7982491Y-17143936D01*
X7982491Y-17143936D02*
X7972967Y-17124889D01*
X7972967Y-17124889D02*
X7963443Y-17086793D01*
X7963443Y-17086793D02*
X7963443Y-17039174D01*
X7963443Y-17039174D02*
X7972967Y-17001079D01*
X7972967Y-17001079D02*
X7982491Y-16982031D01*
X7982491Y-16982031D02*
X7992015Y-16972508D01*
X7992015Y-16972508D02*
X8011062Y-16962984D01*
X8201539Y-16962984D02*
X8220586Y-16962984D01*
X8220586Y-16962984D02*
X8239634Y-16972508D01*
X8239634Y-16972508D02*
X8249158Y-16982031D01*
X8249158Y-16982031D02*
X8258682Y-17001079D01*
X8258682Y-17001079D02*
X8268205Y-17039174D01*
X8268205Y-17039174D02*
X8268205Y-17086793D01*
X8268205Y-17086793D02*
X8258682Y-17124889D01*
X8258682Y-17124889D02*
X8249158Y-17143936D01*
X8249158Y-17143936D02*
X8239634Y-17153460D01*
X8239634Y-17153460D02*
X8220586Y-17162984D01*
X8220586Y-17162984D02*
X8201539Y-17162984D01*
X8201539Y-17162984D02*
X8182491Y-17153460D01*
X8182491Y-17153460D02*
X8172967Y-17143936D01*
X8172967Y-17143936D02*
X8163443Y-17124889D01*
X8163443Y-17124889D02*
X8153920Y-17086793D01*
X8153920Y-17086793D02*
X8153920Y-17039174D01*
X8153920Y-17039174D02*
X8163443Y-17001079D01*
X8163443Y-17001079D02*
X8172967Y-16982031D01*
X8172967Y-16982031D02*
X8182491Y-16972508D01*
X8182491Y-16972508D02*
X8201539Y-16962984D01*
X8353920Y-17162984D02*
X8353920Y-17029650D01*
X8353920Y-17048698D02*
X8363443Y-17039174D01*
X8363443Y-17039174D02*
X8382491Y-17029650D01*
X8382491Y-17029650D02*
X8411063Y-17029650D01*
X8411063Y-17029650D02*
X8430110Y-17039174D01*
X8430110Y-17039174D02*
X8439634Y-17058222D01*
X8439634Y-17058222D02*
X8439634Y-17162984D01*
X8439634Y-17058222D02*
X8449158Y-17039174D01*
X8449158Y-17039174D02*
X8468205Y-17029650D01*
X8468205Y-17029650D02*
X8496777Y-17029650D01*
X8496777Y-17029650D02*
X8515825Y-17039174D01*
X8515825Y-17039174D02*
X8525348Y-17058222D01*
X8525348Y-17058222D02*
X8525348Y-17162984D01*
X8620586Y-17162984D02*
X8620586Y-17029650D01*
X8620586Y-17048698D02*
X8630110Y-17039174D01*
X8630110Y-17039174D02*
X8649158Y-17029650D01*
X8649158Y-17029650D02*
X8677729Y-17029650D01*
X8677729Y-17029650D02*
X8696777Y-17039174D01*
X8696777Y-17039174D02*
X8706301Y-17058222D01*
X8706301Y-17058222D02*
X8706301Y-17162984D01*
X8706301Y-17058222D02*
X8715825Y-17039174D01*
X8715825Y-17039174D02*
X8734872Y-17029650D01*
X8734872Y-17029650D02*
X8763444Y-17029650D01*
X8763444Y-17029650D02*
X8782491Y-17039174D01*
X8782491Y-17039174D02*
X8792015Y-17058222D01*
X8792015Y-17058222D02*
X8792015Y-17162984D01*
X9182491Y-16953460D02*
X9011063Y-17210603D01*
X9439634Y-16962984D02*
X9458682Y-16962984D01*
X9458682Y-16962984D02*
X9477729Y-16972508D01*
X9477729Y-16972508D02*
X9487253Y-16982031D01*
X9487253Y-16982031D02*
X9496777Y-17001079D01*
X9496777Y-17001079D02*
X9506301Y-17039174D01*
X9506301Y-17039174D02*
X9506301Y-17086793D01*
X9506301Y-17086793D02*
X9496777Y-17124889D01*
X9496777Y-17124889D02*
X9487253Y-17143936D01*
X9487253Y-17143936D02*
X9477729Y-17153460D01*
X9477729Y-17153460D02*
X9458682Y-17162984D01*
X9458682Y-17162984D02*
X9439634Y-17162984D01*
X9439634Y-17162984D02*
X9420587Y-17153460D01*
X9420587Y-17153460D02*
X9411063Y-17143936D01*
X9411063Y-17143936D02*
X9401539Y-17124889D01*
X9401539Y-17124889D02*
X9392015Y-17086793D01*
X9392015Y-17086793D02*
X9392015Y-17039174D01*
X9392015Y-17039174D02*
X9401539Y-17001079D01*
X9401539Y-17001079D02*
X9411063Y-16982031D01*
X9411063Y-16982031D02*
X9420587Y-16972508D01*
X9420587Y-16972508D02*
X9439634Y-16962984D01*
X9592015Y-17143936D02*
X9601539Y-17153460D01*
X9601539Y-17153460D02*
X9592015Y-17162984D01*
X9592015Y-17162984D02*
X9582491Y-17153460D01*
X9582491Y-17153460D02*
X9592015Y-17143936D01*
X9592015Y-17143936D02*
X9592015Y-17162984D01*
X9725348Y-16962984D02*
X9744396Y-16962984D01*
X9744396Y-16962984D02*
X9763444Y-16972508D01*
X9763444Y-16972508D02*
X9772968Y-16982031D01*
X9772968Y-16982031D02*
X9782491Y-17001079D01*
X9782491Y-17001079D02*
X9792015Y-17039174D01*
X9792015Y-17039174D02*
X9792015Y-17086793D01*
X9792015Y-17086793D02*
X9782491Y-17124889D01*
X9782491Y-17124889D02*
X9772968Y-17143936D01*
X9772968Y-17143936D02*
X9763444Y-17153460D01*
X9763444Y-17153460D02*
X9744396Y-17162984D01*
X9744396Y-17162984D02*
X9725348Y-17162984D01*
X9725348Y-17162984D02*
X9706301Y-17153460D01*
X9706301Y-17153460D02*
X9696777Y-17143936D01*
X9696777Y-17143936D02*
X9687253Y-17124889D01*
X9687253Y-17124889D02*
X9677729Y-17086793D01*
X9677729Y-17086793D02*
X9677729Y-17039174D01*
X9677729Y-17039174D02*
X9687253Y-17001079D01*
X9687253Y-17001079D02*
X9696777Y-16982031D01*
X9696777Y-16982031D02*
X9706301Y-16972508D01*
X9706301Y-16972508D02*
X9725348Y-16962984D01*
X9858682Y-16962984D02*
X9982491Y-16962984D01*
X9982491Y-16962984D02*
X9915825Y-17039174D01*
X9915825Y-17039174D02*
X9944396Y-17039174D01*
X9944396Y-17039174D02*
X9963444Y-17048698D01*
X9963444Y-17048698D02*
X9972968Y-17058222D01*
X9972968Y-17058222D02*
X9982491Y-17077270D01*
X9982491Y-17077270D02*
X9982491Y-17124889D01*
X9982491Y-17124889D02*
X9972968Y-17143936D01*
X9972968Y-17143936D02*
X9963444Y-17153460D01*
X9963444Y-17153460D02*
X9944396Y-17162984D01*
X9944396Y-17162984D02*
X9887253Y-17162984D01*
X9887253Y-17162984D02*
X9868206Y-17153460D01*
X9868206Y-17153460D02*
X9858682Y-17143936D01*
X10077729Y-17162984D02*
X10115825Y-17162984D01*
X10115825Y-17162984D02*
X10134872Y-17153460D01*
X10134872Y-17153460D02*
X10144396Y-17143936D01*
X10144396Y-17143936D02*
X10163444Y-17115365D01*
X10163444Y-17115365D02*
X10172968Y-17077270D01*
X10172968Y-17077270D02*
X10172968Y-17001079D01*
X10172968Y-17001079D02*
X10163444Y-16982031D01*
X10163444Y-16982031D02*
X10153920Y-16972508D01*
X10153920Y-16972508D02*
X10134872Y-16962984D01*
X10134872Y-16962984D02*
X10096777Y-16962984D01*
X10096777Y-16962984D02*
X10077729Y-16972508D01*
X10077729Y-16972508D02*
X10068206Y-16982031D01*
X10068206Y-16982031D02*
X10058682Y-17001079D01*
X10058682Y-17001079D02*
X10058682Y-17048698D01*
X10058682Y-17048698D02*
X10068206Y-17067746D01*
X10068206Y-17067746D02*
X10077729Y-17077270D01*
X10077729Y-17077270D02*
X10096777Y-17086793D01*
X10096777Y-17086793D02*
X10134872Y-17086793D01*
X10134872Y-17086793D02*
X10153920Y-17077270D01*
X10153920Y-17077270D02*
X10163444Y-17067746D01*
X10163444Y-17067746D02*
X10172968Y-17048698D01*
X10344396Y-17029650D02*
X10344396Y-17162984D01*
X10296777Y-16953460D02*
X10249158Y-17096317D01*
X10249158Y-17096317D02*
X10372968Y-17096317D01*
X10439634Y-16962984D02*
X10439634Y-17001079D01*
X10515825Y-16962984D02*
X10515825Y-17001079D01*
X10811063Y-17239174D02*
X10801539Y-17229650D01*
X10801539Y-17229650D02*
X10782491Y-17201079D01*
X10782491Y-17201079D02*
X10772968Y-17182031D01*
X10772968Y-17182031D02*
X10763444Y-17153460D01*
X10763444Y-17153460D02*
X10753920Y-17105841D01*
X10753920Y-17105841D02*
X10753920Y-17067746D01*
X10753920Y-17067746D02*
X10763444Y-17020127D01*
X10763444Y-17020127D02*
X10772968Y-16991555D01*
X10772968Y-16991555D02*
X10782491Y-16972508D01*
X10782491Y-16972508D02*
X10801539Y-16943936D01*
X10801539Y-16943936D02*
X10811063Y-16934412D01*
X10868206Y-16962984D02*
X10992015Y-16962984D01*
X10992015Y-16962984D02*
X10925349Y-17039174D01*
X10925349Y-17039174D02*
X10953920Y-17039174D01*
X10953920Y-17039174D02*
X10972968Y-17048698D01*
X10972968Y-17048698D02*
X10982491Y-17058222D01*
X10982491Y-17058222D02*
X10992015Y-17077270D01*
X10992015Y-17077270D02*
X10992015Y-17124889D01*
X10992015Y-17124889D02*
X10982491Y-17143936D01*
X10982491Y-17143936D02*
X10972968Y-17153460D01*
X10972968Y-17153460D02*
X10953920Y-17162984D01*
X10953920Y-17162984D02*
X10896777Y-17162984D01*
X10896777Y-17162984D02*
X10877730Y-17153460D01*
X10877730Y-17153460D02*
X10868206Y-17143936D01*
X11115825Y-16962984D02*
X11134872Y-16962984D01*
X11134872Y-16962984D02*
X11153920Y-16972508D01*
X11153920Y-16972508D02*
X11163444Y-16982031D01*
X11163444Y-16982031D02*
X11172968Y-17001079D01*
X11172968Y-17001079D02*
X11182491Y-17039174D01*
X11182491Y-17039174D02*
X11182491Y-17086793D01*
X11182491Y-17086793D02*
X11172968Y-17124889D01*
X11172968Y-17124889D02*
X11163444Y-17143936D01*
X11163444Y-17143936D02*
X11153920Y-17153460D01*
X11153920Y-17153460D02*
X11134872Y-17162984D01*
X11134872Y-17162984D02*
X11115825Y-17162984D01*
X11115825Y-17162984D02*
X11096777Y-17153460D01*
X11096777Y-17153460D02*
X11087253Y-17143936D01*
X11087253Y-17143936D02*
X11077730Y-17124889D01*
X11077730Y-17124889D02*
X11068206Y-17086793D01*
X11068206Y-17086793D02*
X11068206Y-17039174D01*
X11068206Y-17039174D02*
X11077730Y-17001079D01*
X11077730Y-17001079D02*
X11087253Y-16982031D01*
X11087253Y-16982031D02*
X11096777Y-16972508D01*
X11096777Y-16972508D02*
X11115825Y-16962984D01*
X11420587Y-17162984D02*
X11420587Y-16962984D01*
X11506301Y-17162984D02*
X11506301Y-17058222D01*
X11506301Y-17058222D02*
X11496777Y-17039174D01*
X11496777Y-17039174D02*
X11477730Y-17029650D01*
X11477730Y-17029650D02*
X11449158Y-17029650D01*
X11449158Y-17029650D02*
X11430110Y-17039174D01*
X11430110Y-17039174D02*
X11420587Y-17048698D01*
X11630110Y-17162984D02*
X11611063Y-17153460D01*
X11611063Y-17153460D02*
X11601539Y-17143936D01*
X11601539Y-17143936D02*
X11592015Y-17124889D01*
X11592015Y-17124889D02*
X11592015Y-17067746D01*
X11592015Y-17067746D02*
X11601539Y-17048698D01*
X11601539Y-17048698D02*
X11611063Y-17039174D01*
X11611063Y-17039174D02*
X11630110Y-17029650D01*
X11630110Y-17029650D02*
X11658682Y-17029650D01*
X11658682Y-17029650D02*
X11677730Y-17039174D01*
X11677730Y-17039174D02*
X11687253Y-17048698D01*
X11687253Y-17048698D02*
X11696777Y-17067746D01*
X11696777Y-17067746D02*
X11696777Y-17124889D01*
X11696777Y-17124889D02*
X11687253Y-17143936D01*
X11687253Y-17143936D02*
X11677730Y-17153460D01*
X11677730Y-17153460D02*
X11658682Y-17162984D01*
X11658682Y-17162984D02*
X11630110Y-17162984D01*
X11811063Y-17162984D02*
X11792015Y-17153460D01*
X11792015Y-17153460D02*
X11782491Y-17134412D01*
X11782491Y-17134412D02*
X11782491Y-16962984D01*
X11963444Y-17153460D02*
X11944396Y-17162984D01*
X11944396Y-17162984D02*
X11906301Y-17162984D01*
X11906301Y-17162984D02*
X11887253Y-17153460D01*
X11887253Y-17153460D02*
X11877730Y-17134412D01*
X11877730Y-17134412D02*
X11877730Y-17058222D01*
X11877730Y-17058222D02*
X11887253Y-17039174D01*
X11887253Y-17039174D02*
X11906301Y-17029650D01*
X11906301Y-17029650D02*
X11944396Y-17029650D01*
X11944396Y-17029650D02*
X11963444Y-17039174D01*
X11963444Y-17039174D02*
X11972968Y-17058222D01*
X11972968Y-17058222D02*
X11972968Y-17077270D01*
X11972968Y-17077270D02*
X11877730Y-17096317D01*
X12049158Y-17153460D02*
X12068206Y-17162984D01*
X12068206Y-17162984D02*
X12106301Y-17162984D01*
X12106301Y-17162984D02*
X12125349Y-17153460D01*
X12125349Y-17153460D02*
X12134872Y-17134412D01*
X12134872Y-17134412D02*
X12134872Y-17124889D01*
X12134872Y-17124889D02*
X12125349Y-17105841D01*
X12125349Y-17105841D02*
X12106301Y-17096317D01*
X12106301Y-17096317D02*
X12077730Y-17096317D01*
X12077730Y-17096317D02*
X12058682Y-17086793D01*
X12058682Y-17086793D02*
X12049158Y-17067746D01*
X12049158Y-17067746D02*
X12049158Y-17058222D01*
X12049158Y-17058222D02*
X12058682Y-17039174D01*
X12058682Y-17039174D02*
X12077730Y-17029650D01*
X12077730Y-17029650D02*
X12106301Y-17029650D01*
X12106301Y-17029650D02*
X12125349Y-17039174D01*
X12201539Y-17239174D02*
X12211063Y-17229650D01*
X12211063Y-17229650D02*
X12230111Y-17201079D01*
X12230111Y-17201079D02*
X12239634Y-17182031D01*
X12239634Y-17182031D02*
X12249158Y-17153460D01*
X12249158Y-17153460D02*
X12258682Y-17105841D01*
X12258682Y-17105841D02*
X12258682Y-17067746D01*
X12258682Y-17067746D02*
X12249158Y-17020127D01*
X12249158Y-17020127D02*
X12239634Y-16991555D01*
X12239634Y-16991555D02*
X12230111Y-16972508D01*
X12230111Y-16972508D02*
X12211063Y-16943936D01*
X12211063Y-16943936D02*
X12201539Y-16934412D01*
D12*
X7086000Y-17260500D02*
X7236000Y-17410500D01*
X7236000Y-17260500D02*
X7086000Y-17410500D01*
X7236000Y-17335500D02*
G75*
G03*
X7086000Y-17335500I-75000J0D01*
G01*
X7086000Y-17335500D02*
G75*
G03*
X7236000Y-17335500I75000J0D01*
G01*
D11*
X7601539Y-17426984D02*
X7487253Y-17426984D01*
X7544396Y-17426984D02*
X7544396Y-17226984D01*
X7544396Y-17226984D02*
X7525348Y-17255555D01*
X7525348Y-17255555D02*
X7506301Y-17274603D01*
X7506301Y-17274603D02*
X7487253Y-17284127D01*
X7687253Y-17407936D02*
X7696777Y-17417460D01*
X7696777Y-17417460D02*
X7687253Y-17426984D01*
X7687253Y-17426984D02*
X7677729Y-17417460D01*
X7677729Y-17417460D02*
X7687253Y-17407936D01*
X7687253Y-17407936D02*
X7687253Y-17426984D01*
X7877729Y-17226984D02*
X7782491Y-17226984D01*
X7782491Y-17226984D02*
X7772967Y-17322222D01*
X7772967Y-17322222D02*
X7782491Y-17312698D01*
X7782491Y-17312698D02*
X7801539Y-17303174D01*
X7801539Y-17303174D02*
X7849158Y-17303174D01*
X7849158Y-17303174D02*
X7868205Y-17312698D01*
X7868205Y-17312698D02*
X7877729Y-17322222D01*
X7877729Y-17322222D02*
X7887253Y-17341270D01*
X7887253Y-17341270D02*
X7887253Y-17388889D01*
X7887253Y-17388889D02*
X7877729Y-17407936D01*
X7877729Y-17407936D02*
X7868205Y-17417460D01*
X7868205Y-17417460D02*
X7849158Y-17426984D01*
X7849158Y-17426984D02*
X7801539Y-17426984D01*
X7801539Y-17426984D02*
X7782491Y-17417460D01*
X7782491Y-17417460D02*
X7772967Y-17407936D01*
X8011062Y-17226984D02*
X8030110Y-17226984D01*
X8030110Y-17226984D02*
X8049158Y-17236508D01*
X8049158Y-17236508D02*
X8058682Y-17246031D01*
X8058682Y-17246031D02*
X8068205Y-17265079D01*
X8068205Y-17265079D02*
X8077729Y-17303174D01*
X8077729Y-17303174D02*
X8077729Y-17350793D01*
X8077729Y-17350793D02*
X8068205Y-17388889D01*
X8068205Y-17388889D02*
X8058682Y-17407936D01*
X8058682Y-17407936D02*
X8049158Y-17417460D01*
X8049158Y-17417460D02*
X8030110Y-17426984D01*
X8030110Y-17426984D02*
X8011062Y-17426984D01*
X8011062Y-17426984D02*
X7992015Y-17417460D01*
X7992015Y-17417460D02*
X7982491Y-17407936D01*
X7982491Y-17407936D02*
X7972967Y-17388889D01*
X7972967Y-17388889D02*
X7963443Y-17350793D01*
X7963443Y-17350793D02*
X7963443Y-17303174D01*
X7963443Y-17303174D02*
X7972967Y-17265079D01*
X7972967Y-17265079D02*
X7982491Y-17246031D01*
X7982491Y-17246031D02*
X7992015Y-17236508D01*
X7992015Y-17236508D02*
X8011062Y-17226984D01*
X8201539Y-17226984D02*
X8220586Y-17226984D01*
X8220586Y-17226984D02*
X8239634Y-17236508D01*
X8239634Y-17236508D02*
X8249158Y-17246031D01*
X8249158Y-17246031D02*
X8258682Y-17265079D01*
X8258682Y-17265079D02*
X8268205Y-17303174D01*
X8268205Y-17303174D02*
X8268205Y-17350793D01*
X8268205Y-17350793D02*
X8258682Y-17388889D01*
X8258682Y-17388889D02*
X8249158Y-17407936D01*
X8249158Y-17407936D02*
X8239634Y-17417460D01*
X8239634Y-17417460D02*
X8220586Y-17426984D01*
X8220586Y-17426984D02*
X8201539Y-17426984D01*
X8201539Y-17426984D02*
X8182491Y-17417460D01*
X8182491Y-17417460D02*
X8172967Y-17407936D01*
X8172967Y-17407936D02*
X8163443Y-17388889D01*
X8163443Y-17388889D02*
X8153920Y-17350793D01*
X8153920Y-17350793D02*
X8153920Y-17303174D01*
X8153920Y-17303174D02*
X8163443Y-17265079D01*
X8163443Y-17265079D02*
X8172967Y-17246031D01*
X8172967Y-17246031D02*
X8182491Y-17236508D01*
X8182491Y-17236508D02*
X8201539Y-17226984D01*
X8353920Y-17426984D02*
X8353920Y-17293650D01*
X8353920Y-17312698D02*
X8363443Y-17303174D01*
X8363443Y-17303174D02*
X8382491Y-17293650D01*
X8382491Y-17293650D02*
X8411063Y-17293650D01*
X8411063Y-17293650D02*
X8430110Y-17303174D01*
X8430110Y-17303174D02*
X8439634Y-17322222D01*
X8439634Y-17322222D02*
X8439634Y-17426984D01*
X8439634Y-17322222D02*
X8449158Y-17303174D01*
X8449158Y-17303174D02*
X8468205Y-17293650D01*
X8468205Y-17293650D02*
X8496777Y-17293650D01*
X8496777Y-17293650D02*
X8515825Y-17303174D01*
X8515825Y-17303174D02*
X8525348Y-17322222D01*
X8525348Y-17322222D02*
X8525348Y-17426984D01*
X8620586Y-17426984D02*
X8620586Y-17293650D01*
X8620586Y-17312698D02*
X8630110Y-17303174D01*
X8630110Y-17303174D02*
X8649158Y-17293650D01*
X8649158Y-17293650D02*
X8677729Y-17293650D01*
X8677729Y-17293650D02*
X8696777Y-17303174D01*
X8696777Y-17303174D02*
X8706301Y-17322222D01*
X8706301Y-17322222D02*
X8706301Y-17426984D01*
X8706301Y-17322222D02*
X8715825Y-17303174D01*
X8715825Y-17303174D02*
X8734872Y-17293650D01*
X8734872Y-17293650D02*
X8763444Y-17293650D01*
X8763444Y-17293650D02*
X8782491Y-17303174D01*
X8782491Y-17303174D02*
X8792015Y-17322222D01*
X8792015Y-17322222D02*
X8792015Y-17426984D01*
X9182491Y-17217460D02*
X9011063Y-17474603D01*
X9439634Y-17226984D02*
X9458682Y-17226984D01*
X9458682Y-17226984D02*
X9477729Y-17236508D01*
X9477729Y-17236508D02*
X9487253Y-17246031D01*
X9487253Y-17246031D02*
X9496777Y-17265079D01*
X9496777Y-17265079D02*
X9506301Y-17303174D01*
X9506301Y-17303174D02*
X9506301Y-17350793D01*
X9506301Y-17350793D02*
X9496777Y-17388889D01*
X9496777Y-17388889D02*
X9487253Y-17407936D01*
X9487253Y-17407936D02*
X9477729Y-17417460D01*
X9477729Y-17417460D02*
X9458682Y-17426984D01*
X9458682Y-17426984D02*
X9439634Y-17426984D01*
X9439634Y-17426984D02*
X9420587Y-17417460D01*
X9420587Y-17417460D02*
X9411063Y-17407936D01*
X9411063Y-17407936D02*
X9401539Y-17388889D01*
X9401539Y-17388889D02*
X9392015Y-17350793D01*
X9392015Y-17350793D02*
X9392015Y-17303174D01*
X9392015Y-17303174D02*
X9401539Y-17265079D01*
X9401539Y-17265079D02*
X9411063Y-17246031D01*
X9411063Y-17246031D02*
X9420587Y-17236508D01*
X9420587Y-17236508D02*
X9439634Y-17226984D01*
X9592015Y-17407936D02*
X9601539Y-17417460D01*
X9601539Y-17417460D02*
X9592015Y-17426984D01*
X9592015Y-17426984D02*
X9582491Y-17417460D01*
X9582491Y-17417460D02*
X9592015Y-17407936D01*
X9592015Y-17407936D02*
X9592015Y-17426984D01*
X9725348Y-17226984D02*
X9744396Y-17226984D01*
X9744396Y-17226984D02*
X9763444Y-17236508D01*
X9763444Y-17236508D02*
X9772968Y-17246031D01*
X9772968Y-17246031D02*
X9782491Y-17265079D01*
X9782491Y-17265079D02*
X9792015Y-17303174D01*
X9792015Y-17303174D02*
X9792015Y-17350793D01*
X9792015Y-17350793D02*
X9782491Y-17388889D01*
X9782491Y-17388889D02*
X9772968Y-17407936D01*
X9772968Y-17407936D02*
X9763444Y-17417460D01*
X9763444Y-17417460D02*
X9744396Y-17426984D01*
X9744396Y-17426984D02*
X9725348Y-17426984D01*
X9725348Y-17426984D02*
X9706301Y-17417460D01*
X9706301Y-17417460D02*
X9696777Y-17407936D01*
X9696777Y-17407936D02*
X9687253Y-17388889D01*
X9687253Y-17388889D02*
X9677729Y-17350793D01*
X9677729Y-17350793D02*
X9677729Y-17303174D01*
X9677729Y-17303174D02*
X9687253Y-17265079D01*
X9687253Y-17265079D02*
X9696777Y-17246031D01*
X9696777Y-17246031D02*
X9706301Y-17236508D01*
X9706301Y-17236508D02*
X9725348Y-17226984D01*
X9972968Y-17226984D02*
X9877729Y-17226984D01*
X9877729Y-17226984D02*
X9868206Y-17322222D01*
X9868206Y-17322222D02*
X9877729Y-17312698D01*
X9877729Y-17312698D02*
X9896777Y-17303174D01*
X9896777Y-17303174D02*
X9944396Y-17303174D01*
X9944396Y-17303174D02*
X9963444Y-17312698D01*
X9963444Y-17312698D02*
X9972968Y-17322222D01*
X9972968Y-17322222D02*
X9982491Y-17341270D01*
X9982491Y-17341270D02*
X9982491Y-17388889D01*
X9982491Y-17388889D02*
X9972968Y-17407936D01*
X9972968Y-17407936D02*
X9963444Y-17417460D01*
X9963444Y-17417460D02*
X9944396Y-17426984D01*
X9944396Y-17426984D02*
X9896777Y-17426984D01*
X9896777Y-17426984D02*
X9877729Y-17417460D01*
X9877729Y-17417460D02*
X9868206Y-17407936D01*
X10077729Y-17426984D02*
X10115825Y-17426984D01*
X10115825Y-17426984D02*
X10134872Y-17417460D01*
X10134872Y-17417460D02*
X10144396Y-17407936D01*
X10144396Y-17407936D02*
X10163444Y-17379365D01*
X10163444Y-17379365D02*
X10172968Y-17341270D01*
X10172968Y-17341270D02*
X10172968Y-17265079D01*
X10172968Y-17265079D02*
X10163444Y-17246031D01*
X10163444Y-17246031D02*
X10153920Y-17236508D01*
X10153920Y-17236508D02*
X10134872Y-17226984D01*
X10134872Y-17226984D02*
X10096777Y-17226984D01*
X10096777Y-17226984D02*
X10077729Y-17236508D01*
X10077729Y-17236508D02*
X10068206Y-17246031D01*
X10068206Y-17246031D02*
X10058682Y-17265079D01*
X10058682Y-17265079D02*
X10058682Y-17312698D01*
X10058682Y-17312698D02*
X10068206Y-17331746D01*
X10068206Y-17331746D02*
X10077729Y-17341270D01*
X10077729Y-17341270D02*
X10096777Y-17350793D01*
X10096777Y-17350793D02*
X10134872Y-17350793D01*
X10134872Y-17350793D02*
X10153920Y-17341270D01*
X10153920Y-17341270D02*
X10163444Y-17331746D01*
X10163444Y-17331746D02*
X10172968Y-17312698D01*
X10363444Y-17426984D02*
X10249158Y-17426984D01*
X10306301Y-17426984D02*
X10306301Y-17226984D01*
X10306301Y-17226984D02*
X10287253Y-17255555D01*
X10287253Y-17255555D02*
X10268206Y-17274603D01*
X10268206Y-17274603D02*
X10249158Y-17284127D01*
X10439634Y-17226984D02*
X10439634Y-17265079D01*
X10515825Y-17226984D02*
X10515825Y-17265079D01*
X10811063Y-17503174D02*
X10801539Y-17493650D01*
X10801539Y-17493650D02*
X10782491Y-17465079D01*
X10782491Y-17465079D02*
X10772968Y-17446031D01*
X10772968Y-17446031D02*
X10763444Y-17417460D01*
X10763444Y-17417460D02*
X10753920Y-17369841D01*
X10753920Y-17369841D02*
X10753920Y-17331746D01*
X10753920Y-17331746D02*
X10763444Y-17284127D01*
X10763444Y-17284127D02*
X10772968Y-17255555D01*
X10772968Y-17255555D02*
X10782491Y-17236508D01*
X10782491Y-17236508D02*
X10801539Y-17207936D01*
X10801539Y-17207936D02*
X10811063Y-17198412D01*
X10992015Y-17426984D02*
X10877730Y-17426984D01*
X10934872Y-17426984D02*
X10934872Y-17226984D01*
X10934872Y-17226984D02*
X10915825Y-17255555D01*
X10915825Y-17255555D02*
X10896777Y-17274603D01*
X10896777Y-17274603D02*
X10877730Y-17284127D01*
X11068206Y-17246031D02*
X11077730Y-17236508D01*
X11077730Y-17236508D02*
X11096777Y-17226984D01*
X11096777Y-17226984D02*
X11144396Y-17226984D01*
X11144396Y-17226984D02*
X11163444Y-17236508D01*
X11163444Y-17236508D02*
X11172968Y-17246031D01*
X11172968Y-17246031D02*
X11182491Y-17265079D01*
X11182491Y-17265079D02*
X11182491Y-17284127D01*
X11182491Y-17284127D02*
X11172968Y-17312698D01*
X11172968Y-17312698D02*
X11058682Y-17426984D01*
X11058682Y-17426984D02*
X11182491Y-17426984D01*
X11420587Y-17426984D02*
X11420587Y-17226984D01*
X11506301Y-17426984D02*
X11506301Y-17322222D01*
X11506301Y-17322222D02*
X11496777Y-17303174D01*
X11496777Y-17303174D02*
X11477730Y-17293650D01*
X11477730Y-17293650D02*
X11449158Y-17293650D01*
X11449158Y-17293650D02*
X11430110Y-17303174D01*
X11430110Y-17303174D02*
X11420587Y-17312698D01*
X11630110Y-17426984D02*
X11611063Y-17417460D01*
X11611063Y-17417460D02*
X11601539Y-17407936D01*
X11601539Y-17407936D02*
X11592015Y-17388889D01*
X11592015Y-17388889D02*
X11592015Y-17331746D01*
X11592015Y-17331746D02*
X11601539Y-17312698D01*
X11601539Y-17312698D02*
X11611063Y-17303174D01*
X11611063Y-17303174D02*
X11630110Y-17293650D01*
X11630110Y-17293650D02*
X11658682Y-17293650D01*
X11658682Y-17293650D02*
X11677730Y-17303174D01*
X11677730Y-17303174D02*
X11687253Y-17312698D01*
X11687253Y-17312698D02*
X11696777Y-17331746D01*
X11696777Y-17331746D02*
X11696777Y-17388889D01*
X11696777Y-17388889D02*
X11687253Y-17407936D01*
X11687253Y-17407936D02*
X11677730Y-17417460D01*
X11677730Y-17417460D02*
X11658682Y-17426984D01*
X11658682Y-17426984D02*
X11630110Y-17426984D01*
X11811063Y-17426984D02*
X11792015Y-17417460D01*
X11792015Y-17417460D02*
X11782491Y-17398412D01*
X11782491Y-17398412D02*
X11782491Y-17226984D01*
X11963444Y-17417460D02*
X11944396Y-17426984D01*
X11944396Y-17426984D02*
X11906301Y-17426984D01*
X11906301Y-17426984D02*
X11887253Y-17417460D01*
X11887253Y-17417460D02*
X11877730Y-17398412D01*
X11877730Y-17398412D02*
X11877730Y-17322222D01*
X11877730Y-17322222D02*
X11887253Y-17303174D01*
X11887253Y-17303174D02*
X11906301Y-17293650D01*
X11906301Y-17293650D02*
X11944396Y-17293650D01*
X11944396Y-17293650D02*
X11963444Y-17303174D01*
X11963444Y-17303174D02*
X11972968Y-17322222D01*
X11972968Y-17322222D02*
X11972968Y-17341270D01*
X11972968Y-17341270D02*
X11877730Y-17360317D01*
X12049158Y-17417460D02*
X12068206Y-17426984D01*
X12068206Y-17426984D02*
X12106301Y-17426984D01*
X12106301Y-17426984D02*
X12125349Y-17417460D01*
X12125349Y-17417460D02*
X12134872Y-17398412D01*
X12134872Y-17398412D02*
X12134872Y-17388889D01*
X12134872Y-17388889D02*
X12125349Y-17369841D01*
X12125349Y-17369841D02*
X12106301Y-17360317D01*
X12106301Y-17360317D02*
X12077730Y-17360317D01*
X12077730Y-17360317D02*
X12058682Y-17350793D01*
X12058682Y-17350793D02*
X12049158Y-17331746D01*
X12049158Y-17331746D02*
X12049158Y-17322222D01*
X12049158Y-17322222D02*
X12058682Y-17303174D01*
X12058682Y-17303174D02*
X12077730Y-17293650D01*
X12077730Y-17293650D02*
X12106301Y-17293650D01*
X12106301Y-17293650D02*
X12125349Y-17303174D01*
X12201539Y-17503174D02*
X12211063Y-17493650D01*
X12211063Y-17493650D02*
X12230111Y-17465079D01*
X12230111Y-17465079D02*
X12239634Y-17446031D01*
X12239634Y-17446031D02*
X12249158Y-17417460D01*
X12249158Y-17417460D02*
X12258682Y-17369841D01*
X12258682Y-17369841D02*
X12258682Y-17331746D01*
X12258682Y-17331746D02*
X12249158Y-17284127D01*
X12249158Y-17284127D02*
X12239634Y-17255555D01*
X12239634Y-17255555D02*
X12230111Y-17236508D01*
X12230111Y-17236508D02*
X12211063Y-17207936D01*
X12211063Y-17207936D02*
X12201539Y-17198412D01*
M02*
