%TF.GenerationSoftware,KiCad,Pcbnew,7.0.10*%
%TF.CreationDate,2024-01-20T21:13:39+08:00*%
%TF.ProjectId,Deej,4465656a-2e6b-4696-9361-645f70636258,rev?*%
%TF.SameCoordinates,Original*%
%TF.FileFunction,Legend,Top*%
%TF.FilePolarity,Positive*%
%FSLAX46Y46*%
G04 Gerber Fmt 4.6, Leading zero omitted, Abs format (unit mm)*
G04 Created by KiCad (PCBNEW 7.0.10) date 2024-01-20 21:13:39*
%MOMM*%
%LPD*%
G01*
G04 APERTURE LIST*
%ADD10C,0.100000*%
%ADD11C,0.150000*%
%ADD12C,0.300000*%
%ADD13C,0.400000*%
%ADD14C,0.200000*%
%ADD15C,0.120000*%
G04 APERTURE END LIST*
D10*
D11*
X177002200Y-166007200D02*
X285002200Y-166007200D01*
X285002200Y-198007200D01*
X177002200Y-198007200D01*
X177002200Y-166007200D01*
D10*
D11*
X10000000Y-10000000D02*
X287002200Y-10000000D01*
X287002200Y-200007200D01*
X10000000Y-200007200D01*
X10000000Y-10000000D01*
D10*
D11*
X12000000Y-12000000D02*
X285002200Y-12000000D01*
X285002200Y-198007200D01*
X12000000Y-198007200D01*
X12000000Y-12000000D01*
D10*
D11*
X60000000Y-12000000D02*
X60000000Y-10000000D01*
D10*
D11*
X110000000Y-12000000D02*
X110000000Y-10000000D01*
D10*
D11*
X160000000Y-12000000D02*
X160000000Y-10000000D01*
D10*
D11*
X210000000Y-12000000D02*
X210000000Y-10000000D01*
D10*
D11*
X260000000Y-12000000D02*
X260000000Y-10000000D01*
D10*
D11*
X36089160Y-11593604D02*
X35346303Y-11593604D01*
X35717731Y-11593604D02*
X35717731Y-10293604D01*
X35717731Y-10293604D02*
X35593922Y-10479319D01*
X35593922Y-10479319D02*
X35470112Y-10603128D01*
X35470112Y-10603128D02*
X35346303Y-10665033D01*
D10*
D11*
X85346303Y-10417414D02*
X85408207Y-10355509D01*
X85408207Y-10355509D02*
X85532017Y-10293604D01*
X85532017Y-10293604D02*
X85841541Y-10293604D01*
X85841541Y-10293604D02*
X85965350Y-10355509D01*
X85965350Y-10355509D02*
X86027255Y-10417414D01*
X86027255Y-10417414D02*
X86089160Y-10541223D01*
X86089160Y-10541223D02*
X86089160Y-10665033D01*
X86089160Y-10665033D02*
X86027255Y-10850747D01*
X86027255Y-10850747D02*
X85284398Y-11593604D01*
X85284398Y-11593604D02*
X86089160Y-11593604D01*
D10*
D11*
X135284398Y-10293604D02*
X136089160Y-10293604D01*
X136089160Y-10293604D02*
X135655826Y-10788842D01*
X135655826Y-10788842D02*
X135841541Y-10788842D01*
X135841541Y-10788842D02*
X135965350Y-10850747D01*
X135965350Y-10850747D02*
X136027255Y-10912652D01*
X136027255Y-10912652D02*
X136089160Y-11036461D01*
X136089160Y-11036461D02*
X136089160Y-11345985D01*
X136089160Y-11345985D02*
X136027255Y-11469795D01*
X136027255Y-11469795D02*
X135965350Y-11531700D01*
X135965350Y-11531700D02*
X135841541Y-11593604D01*
X135841541Y-11593604D02*
X135470112Y-11593604D01*
X135470112Y-11593604D02*
X135346303Y-11531700D01*
X135346303Y-11531700D02*
X135284398Y-11469795D01*
D10*
D11*
X185965350Y-10726938D02*
X185965350Y-11593604D01*
X185655826Y-10231700D02*
X185346303Y-11160271D01*
X185346303Y-11160271D02*
X186151064Y-11160271D01*
D10*
D11*
X236027255Y-10293604D02*
X235408207Y-10293604D01*
X235408207Y-10293604D02*
X235346303Y-10912652D01*
X235346303Y-10912652D02*
X235408207Y-10850747D01*
X235408207Y-10850747D02*
X235532017Y-10788842D01*
X235532017Y-10788842D02*
X235841541Y-10788842D01*
X235841541Y-10788842D02*
X235965350Y-10850747D01*
X235965350Y-10850747D02*
X236027255Y-10912652D01*
X236027255Y-10912652D02*
X236089160Y-11036461D01*
X236089160Y-11036461D02*
X236089160Y-11345985D01*
X236089160Y-11345985D02*
X236027255Y-11469795D01*
X236027255Y-11469795D02*
X235965350Y-11531700D01*
X235965350Y-11531700D02*
X235841541Y-11593604D01*
X235841541Y-11593604D02*
X235532017Y-11593604D01*
X235532017Y-11593604D02*
X235408207Y-11531700D01*
X235408207Y-11531700D02*
X235346303Y-11469795D01*
D10*
D11*
X285965350Y-10293604D02*
X285717731Y-10293604D01*
X285717731Y-10293604D02*
X285593922Y-10355509D01*
X285593922Y-10355509D02*
X285532017Y-10417414D01*
X285532017Y-10417414D02*
X285408207Y-10603128D01*
X285408207Y-10603128D02*
X285346303Y-10850747D01*
X285346303Y-10850747D02*
X285346303Y-11345985D01*
X285346303Y-11345985D02*
X285408207Y-11469795D01*
X285408207Y-11469795D02*
X285470112Y-11531700D01*
X285470112Y-11531700D02*
X285593922Y-11593604D01*
X285593922Y-11593604D02*
X285841541Y-11593604D01*
X285841541Y-11593604D02*
X285965350Y-11531700D01*
X285965350Y-11531700D02*
X286027255Y-11469795D01*
X286027255Y-11469795D02*
X286089160Y-11345985D01*
X286089160Y-11345985D02*
X286089160Y-11036461D01*
X286089160Y-11036461D02*
X286027255Y-10912652D01*
X286027255Y-10912652D02*
X285965350Y-10850747D01*
X285965350Y-10850747D02*
X285841541Y-10788842D01*
X285841541Y-10788842D02*
X285593922Y-10788842D01*
X285593922Y-10788842D02*
X285470112Y-10850747D01*
X285470112Y-10850747D02*
X285408207Y-10912652D01*
X285408207Y-10912652D02*
X285346303Y-11036461D01*
D10*
D11*
X60000000Y-198007200D02*
X60000000Y-200007200D01*
D10*
D11*
X110000000Y-198007200D02*
X110000000Y-200007200D01*
D10*
D11*
X160000000Y-198007200D02*
X160000000Y-200007200D01*
D10*
D11*
X210000000Y-198007200D02*
X210000000Y-200007200D01*
D10*
D11*
X260000000Y-198007200D02*
X260000000Y-200007200D01*
D10*
D11*
X36089160Y-199600804D02*
X35346303Y-199600804D01*
X35717731Y-199600804D02*
X35717731Y-198300804D01*
X35717731Y-198300804D02*
X35593922Y-198486519D01*
X35593922Y-198486519D02*
X35470112Y-198610328D01*
X35470112Y-198610328D02*
X35346303Y-198672233D01*
D10*
D11*
X85346303Y-198424614D02*
X85408207Y-198362709D01*
X85408207Y-198362709D02*
X85532017Y-198300804D01*
X85532017Y-198300804D02*
X85841541Y-198300804D01*
X85841541Y-198300804D02*
X85965350Y-198362709D01*
X85965350Y-198362709D02*
X86027255Y-198424614D01*
X86027255Y-198424614D02*
X86089160Y-198548423D01*
X86089160Y-198548423D02*
X86089160Y-198672233D01*
X86089160Y-198672233D02*
X86027255Y-198857947D01*
X86027255Y-198857947D02*
X85284398Y-199600804D01*
X85284398Y-199600804D02*
X86089160Y-199600804D01*
D10*
D11*
X135284398Y-198300804D02*
X136089160Y-198300804D01*
X136089160Y-198300804D02*
X135655826Y-198796042D01*
X135655826Y-198796042D02*
X135841541Y-198796042D01*
X135841541Y-198796042D02*
X135965350Y-198857947D01*
X135965350Y-198857947D02*
X136027255Y-198919852D01*
X136027255Y-198919852D02*
X136089160Y-199043661D01*
X136089160Y-199043661D02*
X136089160Y-199353185D01*
X136089160Y-199353185D02*
X136027255Y-199476995D01*
X136027255Y-199476995D02*
X135965350Y-199538900D01*
X135965350Y-199538900D02*
X135841541Y-199600804D01*
X135841541Y-199600804D02*
X135470112Y-199600804D01*
X135470112Y-199600804D02*
X135346303Y-199538900D01*
X135346303Y-199538900D02*
X135284398Y-199476995D01*
D10*
D11*
X185965350Y-198734138D02*
X185965350Y-199600804D01*
X185655826Y-198238900D02*
X185346303Y-199167471D01*
X185346303Y-199167471D02*
X186151064Y-199167471D01*
D10*
D11*
X236027255Y-198300804D02*
X235408207Y-198300804D01*
X235408207Y-198300804D02*
X235346303Y-198919852D01*
X235346303Y-198919852D02*
X235408207Y-198857947D01*
X235408207Y-198857947D02*
X235532017Y-198796042D01*
X235532017Y-198796042D02*
X235841541Y-198796042D01*
X235841541Y-198796042D02*
X235965350Y-198857947D01*
X235965350Y-198857947D02*
X236027255Y-198919852D01*
X236027255Y-198919852D02*
X236089160Y-199043661D01*
X236089160Y-199043661D02*
X236089160Y-199353185D01*
X236089160Y-199353185D02*
X236027255Y-199476995D01*
X236027255Y-199476995D02*
X235965350Y-199538900D01*
X235965350Y-199538900D02*
X235841541Y-199600804D01*
X235841541Y-199600804D02*
X235532017Y-199600804D01*
X235532017Y-199600804D02*
X235408207Y-199538900D01*
X235408207Y-199538900D02*
X235346303Y-199476995D01*
D10*
D11*
X285965350Y-198300804D02*
X285717731Y-198300804D01*
X285717731Y-198300804D02*
X285593922Y-198362709D01*
X285593922Y-198362709D02*
X285532017Y-198424614D01*
X285532017Y-198424614D02*
X285408207Y-198610328D01*
X285408207Y-198610328D02*
X285346303Y-198857947D01*
X285346303Y-198857947D02*
X285346303Y-199353185D01*
X285346303Y-199353185D02*
X285408207Y-199476995D01*
X285408207Y-199476995D02*
X285470112Y-199538900D01*
X285470112Y-199538900D02*
X285593922Y-199600804D01*
X285593922Y-199600804D02*
X285841541Y-199600804D01*
X285841541Y-199600804D02*
X285965350Y-199538900D01*
X285965350Y-199538900D02*
X286027255Y-199476995D01*
X286027255Y-199476995D02*
X286089160Y-199353185D01*
X286089160Y-199353185D02*
X286089160Y-199043661D01*
X286089160Y-199043661D02*
X286027255Y-198919852D01*
X286027255Y-198919852D02*
X285965350Y-198857947D01*
X285965350Y-198857947D02*
X285841541Y-198796042D01*
X285841541Y-198796042D02*
X285593922Y-198796042D01*
X285593922Y-198796042D02*
X285470112Y-198857947D01*
X285470112Y-198857947D02*
X285408207Y-198919852D01*
X285408207Y-198919852D02*
X285346303Y-199043661D01*
D10*
D11*
X10000000Y-60000000D02*
X12000000Y-60000000D01*
D10*
D11*
X10000000Y-110000000D02*
X12000000Y-110000000D01*
D10*
D11*
X10000000Y-160000000D02*
X12000000Y-160000000D01*
D10*
D11*
X10690476Y-35222176D02*
X11309523Y-35222176D01*
X10566666Y-35593604D02*
X10999999Y-34293604D01*
X10999999Y-34293604D02*
X11433333Y-35593604D01*
D10*
D11*
X11092857Y-84912652D02*
X11278571Y-84974557D01*
X11278571Y-84974557D02*
X11340476Y-85036461D01*
X11340476Y-85036461D02*
X11402380Y-85160271D01*
X11402380Y-85160271D02*
X11402380Y-85345985D01*
X11402380Y-85345985D02*
X11340476Y-85469795D01*
X11340476Y-85469795D02*
X11278571Y-85531700D01*
X11278571Y-85531700D02*
X11154761Y-85593604D01*
X11154761Y-85593604D02*
X10659523Y-85593604D01*
X10659523Y-85593604D02*
X10659523Y-84293604D01*
X10659523Y-84293604D02*
X11092857Y-84293604D01*
X11092857Y-84293604D02*
X11216666Y-84355509D01*
X11216666Y-84355509D02*
X11278571Y-84417414D01*
X11278571Y-84417414D02*
X11340476Y-84541223D01*
X11340476Y-84541223D02*
X11340476Y-84665033D01*
X11340476Y-84665033D02*
X11278571Y-84788842D01*
X11278571Y-84788842D02*
X11216666Y-84850747D01*
X11216666Y-84850747D02*
X11092857Y-84912652D01*
X11092857Y-84912652D02*
X10659523Y-84912652D01*
D10*
D11*
X11402380Y-135469795D02*
X11340476Y-135531700D01*
X11340476Y-135531700D02*
X11154761Y-135593604D01*
X11154761Y-135593604D02*
X11030952Y-135593604D01*
X11030952Y-135593604D02*
X10845238Y-135531700D01*
X10845238Y-135531700D02*
X10721428Y-135407890D01*
X10721428Y-135407890D02*
X10659523Y-135284080D01*
X10659523Y-135284080D02*
X10597619Y-135036461D01*
X10597619Y-135036461D02*
X10597619Y-134850747D01*
X10597619Y-134850747D02*
X10659523Y-134603128D01*
X10659523Y-134603128D02*
X10721428Y-134479319D01*
X10721428Y-134479319D02*
X10845238Y-134355509D01*
X10845238Y-134355509D02*
X11030952Y-134293604D01*
X11030952Y-134293604D02*
X11154761Y-134293604D01*
X11154761Y-134293604D02*
X11340476Y-134355509D01*
X11340476Y-134355509D02*
X11402380Y-134417414D01*
D10*
D11*
X10659523Y-185593604D02*
X10659523Y-184293604D01*
X10659523Y-184293604D02*
X10969047Y-184293604D01*
X10969047Y-184293604D02*
X11154761Y-184355509D01*
X11154761Y-184355509D02*
X11278571Y-184479319D01*
X11278571Y-184479319D02*
X11340476Y-184603128D01*
X11340476Y-184603128D02*
X11402380Y-184850747D01*
X11402380Y-184850747D02*
X11402380Y-185036461D01*
X11402380Y-185036461D02*
X11340476Y-185284080D01*
X11340476Y-185284080D02*
X11278571Y-185407890D01*
X11278571Y-185407890D02*
X11154761Y-185531700D01*
X11154761Y-185531700D02*
X10969047Y-185593604D01*
X10969047Y-185593604D02*
X10659523Y-185593604D01*
D10*
D11*
X287002200Y-60000000D02*
X285002200Y-60000000D01*
D10*
D11*
X287002200Y-110000000D02*
X285002200Y-110000000D01*
D10*
D11*
X287002200Y-160000000D02*
X285002200Y-160000000D01*
D10*
D11*
X285692676Y-35222176D02*
X286311723Y-35222176D01*
X285568866Y-35593604D02*
X286002199Y-34293604D01*
X286002199Y-34293604D02*
X286435533Y-35593604D01*
D10*
D11*
X286095057Y-84912652D02*
X286280771Y-84974557D01*
X286280771Y-84974557D02*
X286342676Y-85036461D01*
X286342676Y-85036461D02*
X286404580Y-85160271D01*
X286404580Y-85160271D02*
X286404580Y-85345985D01*
X286404580Y-85345985D02*
X286342676Y-85469795D01*
X286342676Y-85469795D02*
X286280771Y-85531700D01*
X286280771Y-85531700D02*
X286156961Y-85593604D01*
X286156961Y-85593604D02*
X285661723Y-85593604D01*
X285661723Y-85593604D02*
X285661723Y-84293604D01*
X285661723Y-84293604D02*
X286095057Y-84293604D01*
X286095057Y-84293604D02*
X286218866Y-84355509D01*
X286218866Y-84355509D02*
X286280771Y-84417414D01*
X286280771Y-84417414D02*
X286342676Y-84541223D01*
X286342676Y-84541223D02*
X286342676Y-84665033D01*
X286342676Y-84665033D02*
X286280771Y-84788842D01*
X286280771Y-84788842D02*
X286218866Y-84850747D01*
X286218866Y-84850747D02*
X286095057Y-84912652D01*
X286095057Y-84912652D02*
X285661723Y-84912652D01*
D10*
D11*
X286404580Y-135469795D02*
X286342676Y-135531700D01*
X286342676Y-135531700D02*
X286156961Y-135593604D01*
X286156961Y-135593604D02*
X286033152Y-135593604D01*
X286033152Y-135593604D02*
X285847438Y-135531700D01*
X285847438Y-135531700D02*
X285723628Y-135407890D01*
X285723628Y-135407890D02*
X285661723Y-135284080D01*
X285661723Y-135284080D02*
X285599819Y-135036461D01*
X285599819Y-135036461D02*
X285599819Y-134850747D01*
X285599819Y-134850747D02*
X285661723Y-134603128D01*
X285661723Y-134603128D02*
X285723628Y-134479319D01*
X285723628Y-134479319D02*
X285847438Y-134355509D01*
X285847438Y-134355509D02*
X286033152Y-134293604D01*
X286033152Y-134293604D02*
X286156961Y-134293604D01*
X286156961Y-134293604D02*
X286342676Y-134355509D01*
X286342676Y-134355509D02*
X286404580Y-134417414D01*
D10*
D11*
X285661723Y-185593604D02*
X285661723Y-184293604D01*
X285661723Y-184293604D02*
X285971247Y-184293604D01*
X285971247Y-184293604D02*
X286156961Y-184355509D01*
X286156961Y-184355509D02*
X286280771Y-184479319D01*
X286280771Y-184479319D02*
X286342676Y-184603128D01*
X286342676Y-184603128D02*
X286404580Y-184850747D01*
X286404580Y-184850747D02*
X286404580Y-185036461D01*
X286404580Y-185036461D02*
X286342676Y-185284080D01*
X286342676Y-185284080D02*
X286280771Y-185407890D01*
X286280771Y-185407890D02*
X286156961Y-185531700D01*
X286156961Y-185531700D02*
X285971247Y-185593604D01*
X285971247Y-185593604D02*
X285661723Y-185593604D01*
D10*
D11*
X200458026Y-193793328D02*
X200458026Y-192293328D01*
X200458026Y-192293328D02*
X200815169Y-192293328D01*
X200815169Y-192293328D02*
X201029455Y-192364757D01*
X201029455Y-192364757D02*
X201172312Y-192507614D01*
X201172312Y-192507614D02*
X201243741Y-192650471D01*
X201243741Y-192650471D02*
X201315169Y-192936185D01*
X201315169Y-192936185D02*
X201315169Y-193150471D01*
X201315169Y-193150471D02*
X201243741Y-193436185D01*
X201243741Y-193436185D02*
X201172312Y-193579042D01*
X201172312Y-193579042D02*
X201029455Y-193721900D01*
X201029455Y-193721900D02*
X200815169Y-193793328D01*
X200815169Y-193793328D02*
X200458026Y-193793328D01*
X202600884Y-193793328D02*
X202600884Y-193007614D01*
X202600884Y-193007614D02*
X202529455Y-192864757D01*
X202529455Y-192864757D02*
X202386598Y-192793328D01*
X202386598Y-192793328D02*
X202100884Y-192793328D01*
X202100884Y-192793328D02*
X201958026Y-192864757D01*
X202600884Y-193721900D02*
X202458026Y-193793328D01*
X202458026Y-193793328D02*
X202100884Y-193793328D01*
X202100884Y-193793328D02*
X201958026Y-193721900D01*
X201958026Y-193721900D02*
X201886598Y-193579042D01*
X201886598Y-193579042D02*
X201886598Y-193436185D01*
X201886598Y-193436185D02*
X201958026Y-193293328D01*
X201958026Y-193293328D02*
X202100884Y-193221900D01*
X202100884Y-193221900D02*
X202458026Y-193221900D01*
X202458026Y-193221900D02*
X202600884Y-193150471D01*
X203100884Y-192793328D02*
X203672312Y-192793328D01*
X203315169Y-192293328D02*
X203315169Y-193579042D01*
X203315169Y-193579042D02*
X203386598Y-193721900D01*
X203386598Y-193721900D02*
X203529455Y-193793328D01*
X203529455Y-193793328D02*
X203672312Y-193793328D01*
X204743741Y-193721900D02*
X204600884Y-193793328D01*
X204600884Y-193793328D02*
X204315170Y-193793328D01*
X204315170Y-193793328D02*
X204172312Y-193721900D01*
X204172312Y-193721900D02*
X204100884Y-193579042D01*
X204100884Y-193579042D02*
X204100884Y-193007614D01*
X204100884Y-193007614D02*
X204172312Y-192864757D01*
X204172312Y-192864757D02*
X204315170Y-192793328D01*
X204315170Y-192793328D02*
X204600884Y-192793328D01*
X204600884Y-192793328D02*
X204743741Y-192864757D01*
X204743741Y-192864757D02*
X204815170Y-193007614D01*
X204815170Y-193007614D02*
X204815170Y-193150471D01*
X204815170Y-193150471D02*
X204100884Y-193293328D01*
X205458026Y-193650471D02*
X205529455Y-193721900D01*
X205529455Y-193721900D02*
X205458026Y-193793328D01*
X205458026Y-193793328D02*
X205386598Y-193721900D01*
X205386598Y-193721900D02*
X205458026Y-193650471D01*
X205458026Y-193650471D02*
X205458026Y-193793328D01*
X205458026Y-192864757D02*
X205529455Y-192936185D01*
X205529455Y-192936185D02*
X205458026Y-193007614D01*
X205458026Y-193007614D02*
X205386598Y-192936185D01*
X205386598Y-192936185D02*
X205458026Y-192864757D01*
X205458026Y-192864757D02*
X205458026Y-193007614D01*
D10*
D11*
X177002200Y-194507200D02*
X285002200Y-194507200D01*
D10*
D11*
X178458026Y-196593328D02*
X178458026Y-195093328D01*
X179315169Y-196593328D02*
X178672312Y-195736185D01*
X179315169Y-195093328D02*
X178458026Y-195950471D01*
X179958026Y-196593328D02*
X179958026Y-195593328D01*
X179958026Y-195093328D02*
X179886598Y-195164757D01*
X179886598Y-195164757D02*
X179958026Y-195236185D01*
X179958026Y-195236185D02*
X180029455Y-195164757D01*
X180029455Y-195164757D02*
X179958026Y-195093328D01*
X179958026Y-195093328D02*
X179958026Y-195236185D01*
X181529455Y-196450471D02*
X181458027Y-196521900D01*
X181458027Y-196521900D02*
X181243741Y-196593328D01*
X181243741Y-196593328D02*
X181100884Y-196593328D01*
X181100884Y-196593328D02*
X180886598Y-196521900D01*
X180886598Y-196521900D02*
X180743741Y-196379042D01*
X180743741Y-196379042D02*
X180672312Y-196236185D01*
X180672312Y-196236185D02*
X180600884Y-195950471D01*
X180600884Y-195950471D02*
X180600884Y-195736185D01*
X180600884Y-195736185D02*
X180672312Y-195450471D01*
X180672312Y-195450471D02*
X180743741Y-195307614D01*
X180743741Y-195307614D02*
X180886598Y-195164757D01*
X180886598Y-195164757D02*
X181100884Y-195093328D01*
X181100884Y-195093328D02*
X181243741Y-195093328D01*
X181243741Y-195093328D02*
X181458027Y-195164757D01*
X181458027Y-195164757D02*
X181529455Y-195236185D01*
X182815170Y-196593328D02*
X182815170Y-195807614D01*
X182815170Y-195807614D02*
X182743741Y-195664757D01*
X182743741Y-195664757D02*
X182600884Y-195593328D01*
X182600884Y-195593328D02*
X182315170Y-195593328D01*
X182315170Y-195593328D02*
X182172312Y-195664757D01*
X182815170Y-196521900D02*
X182672312Y-196593328D01*
X182672312Y-196593328D02*
X182315170Y-196593328D01*
X182315170Y-196593328D02*
X182172312Y-196521900D01*
X182172312Y-196521900D02*
X182100884Y-196379042D01*
X182100884Y-196379042D02*
X182100884Y-196236185D01*
X182100884Y-196236185D02*
X182172312Y-196093328D01*
X182172312Y-196093328D02*
X182315170Y-196021900D01*
X182315170Y-196021900D02*
X182672312Y-196021900D01*
X182672312Y-196021900D02*
X182815170Y-195950471D01*
X184172313Y-196593328D02*
X184172313Y-195093328D01*
X184172313Y-196521900D02*
X184029455Y-196593328D01*
X184029455Y-196593328D02*
X183743741Y-196593328D01*
X183743741Y-196593328D02*
X183600884Y-196521900D01*
X183600884Y-196521900D02*
X183529455Y-196450471D01*
X183529455Y-196450471D02*
X183458027Y-196307614D01*
X183458027Y-196307614D02*
X183458027Y-195879042D01*
X183458027Y-195879042D02*
X183529455Y-195736185D01*
X183529455Y-195736185D02*
X183600884Y-195664757D01*
X183600884Y-195664757D02*
X183743741Y-195593328D01*
X183743741Y-195593328D02*
X184029455Y-195593328D01*
X184029455Y-195593328D02*
X184172313Y-195664757D01*
X186029455Y-195807614D02*
X186529455Y-195807614D01*
X186743741Y-196593328D02*
X186029455Y-196593328D01*
X186029455Y-196593328D02*
X186029455Y-195093328D01*
X186029455Y-195093328D02*
X186743741Y-195093328D01*
X187386598Y-196450471D02*
X187458027Y-196521900D01*
X187458027Y-196521900D02*
X187386598Y-196593328D01*
X187386598Y-196593328D02*
X187315170Y-196521900D01*
X187315170Y-196521900D02*
X187386598Y-196450471D01*
X187386598Y-196450471D02*
X187386598Y-196593328D01*
X188100884Y-196593328D02*
X188100884Y-195093328D01*
X188100884Y-195093328D02*
X188458027Y-195093328D01*
X188458027Y-195093328D02*
X188672313Y-195164757D01*
X188672313Y-195164757D02*
X188815170Y-195307614D01*
X188815170Y-195307614D02*
X188886599Y-195450471D01*
X188886599Y-195450471D02*
X188958027Y-195736185D01*
X188958027Y-195736185D02*
X188958027Y-195950471D01*
X188958027Y-195950471D02*
X188886599Y-196236185D01*
X188886599Y-196236185D02*
X188815170Y-196379042D01*
X188815170Y-196379042D02*
X188672313Y-196521900D01*
X188672313Y-196521900D02*
X188458027Y-196593328D01*
X188458027Y-196593328D02*
X188100884Y-196593328D01*
X189600884Y-196450471D02*
X189672313Y-196521900D01*
X189672313Y-196521900D02*
X189600884Y-196593328D01*
X189600884Y-196593328D02*
X189529456Y-196521900D01*
X189529456Y-196521900D02*
X189600884Y-196450471D01*
X189600884Y-196450471D02*
X189600884Y-196593328D01*
X190243742Y-196164757D02*
X190958028Y-196164757D01*
X190100885Y-196593328D02*
X190600885Y-195093328D01*
X190600885Y-195093328D02*
X191100885Y-196593328D01*
X191600884Y-196450471D02*
X191672313Y-196521900D01*
X191672313Y-196521900D02*
X191600884Y-196593328D01*
X191600884Y-196593328D02*
X191529456Y-196521900D01*
X191529456Y-196521900D02*
X191600884Y-196450471D01*
X191600884Y-196450471D02*
X191600884Y-196593328D01*
X194600884Y-196593328D02*
X194600884Y-195093328D01*
X194743742Y-196021900D02*
X195172313Y-196593328D01*
X195172313Y-195593328D02*
X194600884Y-196164757D01*
X195815170Y-196593328D02*
X195815170Y-195593328D01*
X195815170Y-195093328D02*
X195743742Y-195164757D01*
X195743742Y-195164757D02*
X195815170Y-195236185D01*
X195815170Y-195236185D02*
X195886599Y-195164757D01*
X195886599Y-195164757D02*
X195815170Y-195093328D01*
X195815170Y-195093328D02*
X195815170Y-195236185D01*
X197172314Y-196521900D02*
X197029456Y-196593328D01*
X197029456Y-196593328D02*
X196743742Y-196593328D01*
X196743742Y-196593328D02*
X196600885Y-196521900D01*
X196600885Y-196521900D02*
X196529456Y-196450471D01*
X196529456Y-196450471D02*
X196458028Y-196307614D01*
X196458028Y-196307614D02*
X196458028Y-195879042D01*
X196458028Y-195879042D02*
X196529456Y-195736185D01*
X196529456Y-195736185D02*
X196600885Y-195664757D01*
X196600885Y-195664757D02*
X196743742Y-195593328D01*
X196743742Y-195593328D02*
X197029456Y-195593328D01*
X197029456Y-195593328D02*
X197172314Y-195664757D01*
X198458028Y-196593328D02*
X198458028Y-195807614D01*
X198458028Y-195807614D02*
X198386599Y-195664757D01*
X198386599Y-195664757D02*
X198243742Y-195593328D01*
X198243742Y-195593328D02*
X197958028Y-195593328D01*
X197958028Y-195593328D02*
X197815170Y-195664757D01*
X198458028Y-196521900D02*
X198315170Y-196593328D01*
X198315170Y-196593328D02*
X197958028Y-196593328D01*
X197958028Y-196593328D02*
X197815170Y-196521900D01*
X197815170Y-196521900D02*
X197743742Y-196379042D01*
X197743742Y-196379042D02*
X197743742Y-196236185D01*
X197743742Y-196236185D02*
X197815170Y-196093328D01*
X197815170Y-196093328D02*
X197958028Y-196021900D01*
X197958028Y-196021900D02*
X198315170Y-196021900D01*
X198315170Y-196021900D02*
X198458028Y-195950471D01*
X199815171Y-196593328D02*
X199815171Y-195093328D01*
X199815171Y-196521900D02*
X199672313Y-196593328D01*
X199672313Y-196593328D02*
X199386599Y-196593328D01*
X199386599Y-196593328D02*
X199243742Y-196521900D01*
X199243742Y-196521900D02*
X199172313Y-196450471D01*
X199172313Y-196450471D02*
X199100885Y-196307614D01*
X199100885Y-196307614D02*
X199100885Y-195879042D01*
X199100885Y-195879042D02*
X199172313Y-195736185D01*
X199172313Y-195736185D02*
X199243742Y-195664757D01*
X199243742Y-195664757D02*
X199386599Y-195593328D01*
X199386599Y-195593328D02*
X199672313Y-195593328D01*
X199672313Y-195593328D02*
X199815171Y-195664757D01*
X201529456Y-195093328D02*
X202529456Y-195093328D01*
X202529456Y-195093328D02*
X201886599Y-196593328D01*
X203100884Y-196450471D02*
X203172313Y-196521900D01*
X203172313Y-196521900D02*
X203100884Y-196593328D01*
X203100884Y-196593328D02*
X203029456Y-196521900D01*
X203029456Y-196521900D02*
X203100884Y-196450471D01*
X203100884Y-196450471D02*
X203100884Y-196593328D01*
X204100885Y-195093328D02*
X204243742Y-195093328D01*
X204243742Y-195093328D02*
X204386599Y-195164757D01*
X204386599Y-195164757D02*
X204458028Y-195236185D01*
X204458028Y-195236185D02*
X204529456Y-195379042D01*
X204529456Y-195379042D02*
X204600885Y-195664757D01*
X204600885Y-195664757D02*
X204600885Y-196021900D01*
X204600885Y-196021900D02*
X204529456Y-196307614D01*
X204529456Y-196307614D02*
X204458028Y-196450471D01*
X204458028Y-196450471D02*
X204386599Y-196521900D01*
X204386599Y-196521900D02*
X204243742Y-196593328D01*
X204243742Y-196593328D02*
X204100885Y-196593328D01*
X204100885Y-196593328D02*
X203958028Y-196521900D01*
X203958028Y-196521900D02*
X203886599Y-196450471D01*
X203886599Y-196450471D02*
X203815170Y-196307614D01*
X203815170Y-196307614D02*
X203743742Y-196021900D01*
X203743742Y-196021900D02*
X203743742Y-195664757D01*
X203743742Y-195664757D02*
X203815170Y-195379042D01*
X203815170Y-195379042D02*
X203886599Y-195236185D01*
X203886599Y-195236185D02*
X203958028Y-195164757D01*
X203958028Y-195164757D02*
X204100885Y-195093328D01*
X205243741Y-196450471D02*
X205315170Y-196521900D01*
X205315170Y-196521900D02*
X205243741Y-196593328D01*
X205243741Y-196593328D02*
X205172313Y-196521900D01*
X205172313Y-196521900D02*
X205243741Y-196450471D01*
X205243741Y-196450471D02*
X205243741Y-196593328D01*
X206743742Y-196593328D02*
X205886599Y-196593328D01*
X206315170Y-196593328D02*
X206315170Y-195093328D01*
X206315170Y-195093328D02*
X206172313Y-195307614D01*
X206172313Y-195307614D02*
X206029456Y-195450471D01*
X206029456Y-195450471D02*
X205886599Y-195521900D01*
X207672313Y-195093328D02*
X207815170Y-195093328D01*
X207815170Y-195093328D02*
X207958027Y-195164757D01*
X207958027Y-195164757D02*
X208029456Y-195236185D01*
X208029456Y-195236185D02*
X208100884Y-195379042D01*
X208100884Y-195379042D02*
X208172313Y-195664757D01*
X208172313Y-195664757D02*
X208172313Y-196021900D01*
X208172313Y-196021900D02*
X208100884Y-196307614D01*
X208100884Y-196307614D02*
X208029456Y-196450471D01*
X208029456Y-196450471D02*
X207958027Y-196521900D01*
X207958027Y-196521900D02*
X207815170Y-196593328D01*
X207815170Y-196593328D02*
X207672313Y-196593328D01*
X207672313Y-196593328D02*
X207529456Y-196521900D01*
X207529456Y-196521900D02*
X207458027Y-196450471D01*
X207458027Y-196450471D02*
X207386598Y-196307614D01*
X207386598Y-196307614D02*
X207315170Y-196021900D01*
X207315170Y-196021900D02*
X207315170Y-195664757D01*
X207315170Y-195664757D02*
X207386598Y-195379042D01*
X207386598Y-195379042D02*
X207458027Y-195236185D01*
X207458027Y-195236185D02*
X207529456Y-195164757D01*
X207529456Y-195164757D02*
X207672313Y-195093328D01*
D10*
D11*
X177002200Y-191507200D02*
X285002200Y-191507200D01*
D10*
D12*
X264413853Y-193785528D02*
X263913853Y-193071242D01*
X263556710Y-193785528D02*
X263556710Y-192285528D01*
X263556710Y-192285528D02*
X264128139Y-192285528D01*
X264128139Y-192285528D02*
X264270996Y-192356957D01*
X264270996Y-192356957D02*
X264342425Y-192428385D01*
X264342425Y-192428385D02*
X264413853Y-192571242D01*
X264413853Y-192571242D02*
X264413853Y-192785528D01*
X264413853Y-192785528D02*
X264342425Y-192928385D01*
X264342425Y-192928385D02*
X264270996Y-192999814D01*
X264270996Y-192999814D02*
X264128139Y-193071242D01*
X264128139Y-193071242D02*
X263556710Y-193071242D01*
X265628139Y-193714100D02*
X265485282Y-193785528D01*
X265485282Y-193785528D02*
X265199568Y-193785528D01*
X265199568Y-193785528D02*
X265056710Y-193714100D01*
X265056710Y-193714100D02*
X264985282Y-193571242D01*
X264985282Y-193571242D02*
X264985282Y-192999814D01*
X264985282Y-192999814D02*
X265056710Y-192856957D01*
X265056710Y-192856957D02*
X265199568Y-192785528D01*
X265199568Y-192785528D02*
X265485282Y-192785528D01*
X265485282Y-192785528D02*
X265628139Y-192856957D01*
X265628139Y-192856957D02*
X265699568Y-192999814D01*
X265699568Y-192999814D02*
X265699568Y-193142671D01*
X265699568Y-193142671D02*
X264985282Y-193285528D01*
X266199567Y-192785528D02*
X266556710Y-193785528D01*
X266556710Y-193785528D02*
X266913853Y-192785528D01*
X267485281Y-193642671D02*
X267556710Y-193714100D01*
X267556710Y-193714100D02*
X267485281Y-193785528D01*
X267485281Y-193785528D02*
X267413853Y-193714100D01*
X267413853Y-193714100D02*
X267485281Y-193642671D01*
X267485281Y-193642671D02*
X267485281Y-193785528D01*
X267485281Y-192856957D02*
X267556710Y-192928385D01*
X267556710Y-192928385D02*
X267485281Y-192999814D01*
X267485281Y-192999814D02*
X267413853Y-192928385D01*
X267413853Y-192928385D02*
X267485281Y-192856957D01*
X267485281Y-192856957D02*
X267485281Y-192999814D01*
D10*
D11*
X178386598Y-193721900D02*
X178600884Y-193793328D01*
X178600884Y-193793328D02*
X178958026Y-193793328D01*
X178958026Y-193793328D02*
X179100884Y-193721900D01*
X179100884Y-193721900D02*
X179172312Y-193650471D01*
X179172312Y-193650471D02*
X179243741Y-193507614D01*
X179243741Y-193507614D02*
X179243741Y-193364757D01*
X179243741Y-193364757D02*
X179172312Y-193221900D01*
X179172312Y-193221900D02*
X179100884Y-193150471D01*
X179100884Y-193150471D02*
X178958026Y-193079042D01*
X178958026Y-193079042D02*
X178672312Y-193007614D01*
X178672312Y-193007614D02*
X178529455Y-192936185D01*
X178529455Y-192936185D02*
X178458026Y-192864757D01*
X178458026Y-192864757D02*
X178386598Y-192721900D01*
X178386598Y-192721900D02*
X178386598Y-192579042D01*
X178386598Y-192579042D02*
X178458026Y-192436185D01*
X178458026Y-192436185D02*
X178529455Y-192364757D01*
X178529455Y-192364757D02*
X178672312Y-192293328D01*
X178672312Y-192293328D02*
X179029455Y-192293328D01*
X179029455Y-192293328D02*
X179243741Y-192364757D01*
X179886597Y-193793328D02*
X179886597Y-192793328D01*
X179886597Y-192293328D02*
X179815169Y-192364757D01*
X179815169Y-192364757D02*
X179886597Y-192436185D01*
X179886597Y-192436185D02*
X179958026Y-192364757D01*
X179958026Y-192364757D02*
X179886597Y-192293328D01*
X179886597Y-192293328D02*
X179886597Y-192436185D01*
X180458026Y-192793328D02*
X181243741Y-192793328D01*
X181243741Y-192793328D02*
X180458026Y-193793328D01*
X180458026Y-193793328D02*
X181243741Y-193793328D01*
X182386598Y-193721900D02*
X182243741Y-193793328D01*
X182243741Y-193793328D02*
X181958027Y-193793328D01*
X181958027Y-193793328D02*
X181815169Y-193721900D01*
X181815169Y-193721900D02*
X181743741Y-193579042D01*
X181743741Y-193579042D02*
X181743741Y-193007614D01*
X181743741Y-193007614D02*
X181815169Y-192864757D01*
X181815169Y-192864757D02*
X181958027Y-192793328D01*
X181958027Y-192793328D02*
X182243741Y-192793328D01*
X182243741Y-192793328D02*
X182386598Y-192864757D01*
X182386598Y-192864757D02*
X182458027Y-193007614D01*
X182458027Y-193007614D02*
X182458027Y-193150471D01*
X182458027Y-193150471D02*
X181743741Y-193293328D01*
X183100883Y-193650471D02*
X183172312Y-193721900D01*
X183172312Y-193721900D02*
X183100883Y-193793328D01*
X183100883Y-193793328D02*
X183029455Y-193721900D01*
X183029455Y-193721900D02*
X183100883Y-193650471D01*
X183100883Y-193650471D02*
X183100883Y-193793328D01*
X183100883Y-192864757D02*
X183172312Y-192936185D01*
X183172312Y-192936185D02*
X183100883Y-193007614D01*
X183100883Y-193007614D02*
X183029455Y-192936185D01*
X183029455Y-192936185D02*
X183100883Y-192864757D01*
X183100883Y-192864757D02*
X183100883Y-193007614D01*
X184886598Y-193364757D02*
X185600884Y-193364757D01*
X184743741Y-193793328D02*
X185243741Y-192293328D01*
X185243741Y-192293328D02*
X185743741Y-193793328D01*
X186886598Y-192793328D02*
X186886598Y-193793328D01*
X186529455Y-192221900D02*
X186172312Y-193293328D01*
X186172312Y-193293328D02*
X187100883Y-193293328D01*
D10*
D11*
X263458026Y-196593328D02*
X263458026Y-195093328D01*
X264815170Y-196593328D02*
X264815170Y-195093328D01*
X264815170Y-196521900D02*
X264672312Y-196593328D01*
X264672312Y-196593328D02*
X264386598Y-196593328D01*
X264386598Y-196593328D02*
X264243741Y-196521900D01*
X264243741Y-196521900D02*
X264172312Y-196450471D01*
X264172312Y-196450471D02*
X264100884Y-196307614D01*
X264100884Y-196307614D02*
X264100884Y-195879042D01*
X264100884Y-195879042D02*
X264172312Y-195736185D01*
X264172312Y-195736185D02*
X264243741Y-195664757D01*
X264243741Y-195664757D02*
X264386598Y-195593328D01*
X264386598Y-195593328D02*
X264672312Y-195593328D01*
X264672312Y-195593328D02*
X264815170Y-195664757D01*
X265529455Y-196450471D02*
X265600884Y-196521900D01*
X265600884Y-196521900D02*
X265529455Y-196593328D01*
X265529455Y-196593328D02*
X265458027Y-196521900D01*
X265458027Y-196521900D02*
X265529455Y-196450471D01*
X265529455Y-196450471D02*
X265529455Y-196593328D01*
X265529455Y-195664757D02*
X265600884Y-195736185D01*
X265600884Y-195736185D02*
X265529455Y-195807614D01*
X265529455Y-195807614D02*
X265458027Y-195736185D01*
X265458027Y-195736185D02*
X265529455Y-195664757D01*
X265529455Y-195664757D02*
X265529455Y-195807614D01*
X268172313Y-196593328D02*
X267315170Y-196593328D01*
X267743741Y-196593328D02*
X267743741Y-195093328D01*
X267743741Y-195093328D02*
X267600884Y-195307614D01*
X267600884Y-195307614D02*
X267458027Y-195450471D01*
X267458027Y-195450471D02*
X267315170Y-195521900D01*
X269886598Y-195021900D02*
X268600884Y-196950471D01*
X271172313Y-196593328D02*
X270315170Y-196593328D01*
X270743741Y-196593328D02*
X270743741Y-195093328D01*
X270743741Y-195093328D02*
X270600884Y-195307614D01*
X270600884Y-195307614D02*
X270458027Y-195450471D01*
X270458027Y-195450471D02*
X270315170Y-195521900D01*
D10*
D11*
X177002200Y-187507200D02*
X285002200Y-187507200D01*
D10*
D13*
X178693928Y-188211638D02*
X179836785Y-188211638D01*
X179015357Y-190211638D02*
X179265357Y-188211638D01*
X180253452Y-190211638D02*
X180420119Y-188878304D01*
X180503452Y-188211638D02*
X180396309Y-188306876D01*
X180396309Y-188306876D02*
X180479643Y-188402114D01*
X180479643Y-188402114D02*
X180586786Y-188306876D01*
X180586786Y-188306876D02*
X180503452Y-188211638D01*
X180503452Y-188211638D02*
X180479643Y-188402114D01*
X181086786Y-188878304D02*
X181848690Y-188878304D01*
X181455833Y-188211638D02*
X181241548Y-189925923D01*
X181241548Y-189925923D02*
X181312976Y-190116400D01*
X181312976Y-190116400D02*
X181491548Y-190211638D01*
X181491548Y-190211638D02*
X181682024Y-190211638D01*
X182634405Y-190211638D02*
X182455833Y-190116400D01*
X182455833Y-190116400D02*
X182384405Y-189925923D01*
X182384405Y-189925923D02*
X182598690Y-188211638D01*
X184170119Y-190116400D02*
X183967738Y-190211638D01*
X183967738Y-190211638D02*
X183586785Y-190211638D01*
X183586785Y-190211638D02*
X183408214Y-190116400D01*
X183408214Y-190116400D02*
X183336785Y-189925923D01*
X183336785Y-189925923D02*
X183432024Y-189164019D01*
X183432024Y-189164019D02*
X183551071Y-188973542D01*
X183551071Y-188973542D02*
X183753452Y-188878304D01*
X183753452Y-188878304D02*
X184134404Y-188878304D01*
X184134404Y-188878304D02*
X184312976Y-188973542D01*
X184312976Y-188973542D02*
X184384404Y-189164019D01*
X184384404Y-189164019D02*
X184360595Y-189354495D01*
X184360595Y-189354495D02*
X183384404Y-189544971D01*
X185134405Y-190021161D02*
X185217738Y-190116400D01*
X185217738Y-190116400D02*
X185110595Y-190211638D01*
X185110595Y-190211638D02*
X185027262Y-190116400D01*
X185027262Y-190116400D02*
X185134405Y-190021161D01*
X185134405Y-190021161D02*
X185110595Y-190211638D01*
X185265357Y-188973542D02*
X185348690Y-189068780D01*
X185348690Y-189068780D02*
X185241548Y-189164019D01*
X185241548Y-189164019D02*
X185158214Y-189068780D01*
X185158214Y-189068780D02*
X185265357Y-188973542D01*
X185265357Y-188973542D02*
X185241548Y-189164019D01*
D10*
D11*
X178958026Y-185607614D02*
X178458026Y-185607614D01*
X178458026Y-186393328D02*
X178458026Y-184893328D01*
X178458026Y-184893328D02*
X179172312Y-184893328D01*
X179743740Y-186393328D02*
X179743740Y-185393328D01*
X179743740Y-184893328D02*
X179672312Y-184964757D01*
X179672312Y-184964757D02*
X179743740Y-185036185D01*
X179743740Y-185036185D02*
X179815169Y-184964757D01*
X179815169Y-184964757D02*
X179743740Y-184893328D01*
X179743740Y-184893328D02*
X179743740Y-185036185D01*
X180672312Y-186393328D02*
X180529455Y-186321900D01*
X180529455Y-186321900D02*
X180458026Y-186179042D01*
X180458026Y-186179042D02*
X180458026Y-184893328D01*
X181815169Y-186321900D02*
X181672312Y-186393328D01*
X181672312Y-186393328D02*
X181386598Y-186393328D01*
X181386598Y-186393328D02*
X181243740Y-186321900D01*
X181243740Y-186321900D02*
X181172312Y-186179042D01*
X181172312Y-186179042D02*
X181172312Y-185607614D01*
X181172312Y-185607614D02*
X181243740Y-185464757D01*
X181243740Y-185464757D02*
X181386598Y-185393328D01*
X181386598Y-185393328D02*
X181672312Y-185393328D01*
X181672312Y-185393328D02*
X181815169Y-185464757D01*
X181815169Y-185464757D02*
X181886598Y-185607614D01*
X181886598Y-185607614D02*
X181886598Y-185750471D01*
X181886598Y-185750471D02*
X181172312Y-185893328D01*
X182529454Y-186250471D02*
X182600883Y-186321900D01*
X182600883Y-186321900D02*
X182529454Y-186393328D01*
X182529454Y-186393328D02*
X182458026Y-186321900D01*
X182458026Y-186321900D02*
X182529454Y-186250471D01*
X182529454Y-186250471D02*
X182529454Y-186393328D01*
X182529454Y-185464757D02*
X182600883Y-185536185D01*
X182600883Y-185536185D02*
X182529454Y-185607614D01*
X182529454Y-185607614D02*
X182458026Y-185536185D01*
X182458026Y-185536185D02*
X182529454Y-185464757D01*
X182529454Y-185464757D02*
X182529454Y-185607614D01*
X184386597Y-186393328D02*
X184386597Y-184893328D01*
X184386597Y-184893328D02*
X184743740Y-184893328D01*
X184743740Y-184893328D02*
X184958026Y-184964757D01*
X184958026Y-184964757D02*
X185100883Y-185107614D01*
X185100883Y-185107614D02*
X185172312Y-185250471D01*
X185172312Y-185250471D02*
X185243740Y-185536185D01*
X185243740Y-185536185D02*
X185243740Y-185750471D01*
X185243740Y-185750471D02*
X185172312Y-186036185D01*
X185172312Y-186036185D02*
X185100883Y-186179042D01*
X185100883Y-186179042D02*
X184958026Y-186321900D01*
X184958026Y-186321900D02*
X184743740Y-186393328D01*
X184743740Y-186393328D02*
X184386597Y-186393328D01*
X186458026Y-186321900D02*
X186315169Y-186393328D01*
X186315169Y-186393328D02*
X186029455Y-186393328D01*
X186029455Y-186393328D02*
X185886597Y-186321900D01*
X185886597Y-186321900D02*
X185815169Y-186179042D01*
X185815169Y-186179042D02*
X185815169Y-185607614D01*
X185815169Y-185607614D02*
X185886597Y-185464757D01*
X185886597Y-185464757D02*
X186029455Y-185393328D01*
X186029455Y-185393328D02*
X186315169Y-185393328D01*
X186315169Y-185393328D02*
X186458026Y-185464757D01*
X186458026Y-185464757D02*
X186529455Y-185607614D01*
X186529455Y-185607614D02*
X186529455Y-185750471D01*
X186529455Y-185750471D02*
X185815169Y-185893328D01*
X187743740Y-186321900D02*
X187600883Y-186393328D01*
X187600883Y-186393328D02*
X187315169Y-186393328D01*
X187315169Y-186393328D02*
X187172311Y-186321900D01*
X187172311Y-186321900D02*
X187100883Y-186179042D01*
X187100883Y-186179042D02*
X187100883Y-185607614D01*
X187100883Y-185607614D02*
X187172311Y-185464757D01*
X187172311Y-185464757D02*
X187315169Y-185393328D01*
X187315169Y-185393328D02*
X187600883Y-185393328D01*
X187600883Y-185393328D02*
X187743740Y-185464757D01*
X187743740Y-185464757D02*
X187815169Y-185607614D01*
X187815169Y-185607614D02*
X187815169Y-185750471D01*
X187815169Y-185750471D02*
X187100883Y-185893328D01*
X188458025Y-185393328D02*
X188458025Y-186679042D01*
X188458025Y-186679042D02*
X188386597Y-186821900D01*
X188386597Y-186821900D02*
X188243740Y-186893328D01*
X188243740Y-186893328D02*
X188172311Y-186893328D01*
X188458025Y-184893328D02*
X188386597Y-184964757D01*
X188386597Y-184964757D02*
X188458025Y-185036185D01*
X188458025Y-185036185D02*
X188529454Y-184964757D01*
X188529454Y-184964757D02*
X188458025Y-184893328D01*
X188458025Y-184893328D02*
X188458025Y-185036185D01*
X189172311Y-186250471D02*
X189243740Y-186321900D01*
X189243740Y-186321900D02*
X189172311Y-186393328D01*
X189172311Y-186393328D02*
X189100883Y-186321900D01*
X189100883Y-186321900D02*
X189172311Y-186250471D01*
X189172311Y-186250471D02*
X189172311Y-186393328D01*
X189886597Y-186393328D02*
X189886597Y-184893328D01*
X190029455Y-185821900D02*
X190458026Y-186393328D01*
X190458026Y-185393328D02*
X189886597Y-185964757D01*
X191100883Y-186393328D02*
X191100883Y-185393328D01*
X191100883Y-184893328D02*
X191029455Y-184964757D01*
X191029455Y-184964757D02*
X191100883Y-185036185D01*
X191100883Y-185036185D02*
X191172312Y-184964757D01*
X191172312Y-184964757D02*
X191100883Y-184893328D01*
X191100883Y-184893328D02*
X191100883Y-185036185D01*
X192458027Y-186321900D02*
X192315169Y-186393328D01*
X192315169Y-186393328D02*
X192029455Y-186393328D01*
X192029455Y-186393328D02*
X191886598Y-186321900D01*
X191886598Y-186321900D02*
X191815169Y-186250471D01*
X191815169Y-186250471D02*
X191743741Y-186107614D01*
X191743741Y-186107614D02*
X191743741Y-185679042D01*
X191743741Y-185679042D02*
X191815169Y-185536185D01*
X191815169Y-185536185D02*
X191886598Y-185464757D01*
X191886598Y-185464757D02*
X192029455Y-185393328D01*
X192029455Y-185393328D02*
X192315169Y-185393328D01*
X192315169Y-185393328D02*
X192458027Y-185464757D01*
X193743741Y-186393328D02*
X193743741Y-185607614D01*
X193743741Y-185607614D02*
X193672312Y-185464757D01*
X193672312Y-185464757D02*
X193529455Y-185393328D01*
X193529455Y-185393328D02*
X193243741Y-185393328D01*
X193243741Y-185393328D02*
X193100883Y-185464757D01*
X193743741Y-186321900D02*
X193600883Y-186393328D01*
X193600883Y-186393328D02*
X193243741Y-186393328D01*
X193243741Y-186393328D02*
X193100883Y-186321900D01*
X193100883Y-186321900D02*
X193029455Y-186179042D01*
X193029455Y-186179042D02*
X193029455Y-186036185D01*
X193029455Y-186036185D02*
X193100883Y-185893328D01*
X193100883Y-185893328D02*
X193243741Y-185821900D01*
X193243741Y-185821900D02*
X193600883Y-185821900D01*
X193600883Y-185821900D02*
X193743741Y-185750471D01*
X195100884Y-186393328D02*
X195100884Y-184893328D01*
X195100884Y-186321900D02*
X194958026Y-186393328D01*
X194958026Y-186393328D02*
X194672312Y-186393328D01*
X194672312Y-186393328D02*
X194529455Y-186321900D01*
X194529455Y-186321900D02*
X194458026Y-186250471D01*
X194458026Y-186250471D02*
X194386598Y-186107614D01*
X194386598Y-186107614D02*
X194386598Y-185679042D01*
X194386598Y-185679042D02*
X194458026Y-185536185D01*
X194458026Y-185536185D02*
X194529455Y-185464757D01*
X194529455Y-185464757D02*
X194672312Y-185393328D01*
X194672312Y-185393328D02*
X194958026Y-185393328D01*
X194958026Y-185393328D02*
X195100884Y-185464757D01*
X195458027Y-186536185D02*
X196600884Y-186536185D01*
X196958026Y-185393328D02*
X196958026Y-186893328D01*
X196958026Y-185464757D02*
X197100884Y-185393328D01*
X197100884Y-185393328D02*
X197386598Y-185393328D01*
X197386598Y-185393328D02*
X197529455Y-185464757D01*
X197529455Y-185464757D02*
X197600884Y-185536185D01*
X197600884Y-185536185D02*
X197672312Y-185679042D01*
X197672312Y-185679042D02*
X197672312Y-186107614D01*
X197672312Y-186107614D02*
X197600884Y-186250471D01*
X197600884Y-186250471D02*
X197529455Y-186321900D01*
X197529455Y-186321900D02*
X197386598Y-186393328D01*
X197386598Y-186393328D02*
X197100884Y-186393328D01*
X197100884Y-186393328D02*
X196958026Y-186321900D01*
X198958027Y-186321900D02*
X198815169Y-186393328D01*
X198815169Y-186393328D02*
X198529455Y-186393328D01*
X198529455Y-186393328D02*
X198386598Y-186321900D01*
X198386598Y-186321900D02*
X198315169Y-186250471D01*
X198315169Y-186250471D02*
X198243741Y-186107614D01*
X198243741Y-186107614D02*
X198243741Y-185679042D01*
X198243741Y-185679042D02*
X198315169Y-185536185D01*
X198315169Y-185536185D02*
X198386598Y-185464757D01*
X198386598Y-185464757D02*
X198529455Y-185393328D01*
X198529455Y-185393328D02*
X198815169Y-185393328D01*
X198815169Y-185393328D02*
X198958027Y-185464757D01*
X199600883Y-186393328D02*
X199600883Y-184893328D01*
X199600883Y-185464757D02*
X199743741Y-185393328D01*
X199743741Y-185393328D02*
X200029455Y-185393328D01*
X200029455Y-185393328D02*
X200172312Y-185464757D01*
X200172312Y-185464757D02*
X200243741Y-185536185D01*
X200243741Y-185536185D02*
X200315169Y-185679042D01*
X200315169Y-185679042D02*
X200315169Y-186107614D01*
X200315169Y-186107614D02*
X200243741Y-186250471D01*
X200243741Y-186250471D02*
X200172312Y-186321900D01*
X200172312Y-186321900D02*
X200029455Y-186393328D01*
X200029455Y-186393328D02*
X199743741Y-186393328D01*
X199743741Y-186393328D02*
X199600883Y-186321900D01*
D10*
D11*
X177002200Y-181507200D02*
X285002200Y-181507200D01*
D10*
D11*
X178386598Y-183621900D02*
X178600884Y-183693328D01*
X178600884Y-183693328D02*
X178958026Y-183693328D01*
X178958026Y-183693328D02*
X179100884Y-183621900D01*
X179100884Y-183621900D02*
X179172312Y-183550471D01*
X179172312Y-183550471D02*
X179243741Y-183407614D01*
X179243741Y-183407614D02*
X179243741Y-183264757D01*
X179243741Y-183264757D02*
X179172312Y-183121900D01*
X179172312Y-183121900D02*
X179100884Y-183050471D01*
X179100884Y-183050471D02*
X178958026Y-182979042D01*
X178958026Y-182979042D02*
X178672312Y-182907614D01*
X178672312Y-182907614D02*
X178529455Y-182836185D01*
X178529455Y-182836185D02*
X178458026Y-182764757D01*
X178458026Y-182764757D02*
X178386598Y-182621900D01*
X178386598Y-182621900D02*
X178386598Y-182479042D01*
X178386598Y-182479042D02*
X178458026Y-182336185D01*
X178458026Y-182336185D02*
X178529455Y-182264757D01*
X178529455Y-182264757D02*
X178672312Y-182193328D01*
X178672312Y-182193328D02*
X179029455Y-182193328D01*
X179029455Y-182193328D02*
X179243741Y-182264757D01*
X179886597Y-183693328D02*
X179886597Y-182193328D01*
X180529455Y-183693328D02*
X180529455Y-182907614D01*
X180529455Y-182907614D02*
X180458026Y-182764757D01*
X180458026Y-182764757D02*
X180315169Y-182693328D01*
X180315169Y-182693328D02*
X180100883Y-182693328D01*
X180100883Y-182693328D02*
X179958026Y-182764757D01*
X179958026Y-182764757D02*
X179886597Y-182836185D01*
X181815169Y-183621900D02*
X181672312Y-183693328D01*
X181672312Y-183693328D02*
X181386598Y-183693328D01*
X181386598Y-183693328D02*
X181243740Y-183621900D01*
X181243740Y-183621900D02*
X181172312Y-183479042D01*
X181172312Y-183479042D02*
X181172312Y-182907614D01*
X181172312Y-182907614D02*
X181243740Y-182764757D01*
X181243740Y-182764757D02*
X181386598Y-182693328D01*
X181386598Y-182693328D02*
X181672312Y-182693328D01*
X181672312Y-182693328D02*
X181815169Y-182764757D01*
X181815169Y-182764757D02*
X181886598Y-182907614D01*
X181886598Y-182907614D02*
X181886598Y-183050471D01*
X181886598Y-183050471D02*
X181172312Y-183193328D01*
X183100883Y-183621900D02*
X182958026Y-183693328D01*
X182958026Y-183693328D02*
X182672312Y-183693328D01*
X182672312Y-183693328D02*
X182529454Y-183621900D01*
X182529454Y-183621900D02*
X182458026Y-183479042D01*
X182458026Y-183479042D02*
X182458026Y-182907614D01*
X182458026Y-182907614D02*
X182529454Y-182764757D01*
X182529454Y-182764757D02*
X182672312Y-182693328D01*
X182672312Y-182693328D02*
X182958026Y-182693328D01*
X182958026Y-182693328D02*
X183100883Y-182764757D01*
X183100883Y-182764757D02*
X183172312Y-182907614D01*
X183172312Y-182907614D02*
X183172312Y-183050471D01*
X183172312Y-183050471D02*
X182458026Y-183193328D01*
X183600883Y-182693328D02*
X184172311Y-182693328D01*
X183815168Y-182193328D02*
X183815168Y-183479042D01*
X183815168Y-183479042D02*
X183886597Y-183621900D01*
X183886597Y-183621900D02*
X184029454Y-183693328D01*
X184029454Y-183693328D02*
X184172311Y-183693328D01*
X184672311Y-183550471D02*
X184743740Y-183621900D01*
X184743740Y-183621900D02*
X184672311Y-183693328D01*
X184672311Y-183693328D02*
X184600883Y-183621900D01*
X184600883Y-183621900D02*
X184672311Y-183550471D01*
X184672311Y-183550471D02*
X184672311Y-183693328D01*
X184672311Y-182764757D02*
X184743740Y-182836185D01*
X184743740Y-182836185D02*
X184672311Y-182907614D01*
X184672311Y-182907614D02*
X184600883Y-182836185D01*
X184600883Y-182836185D02*
X184672311Y-182764757D01*
X184672311Y-182764757D02*
X184672311Y-182907614D01*
D10*
D12*
D10*
D11*
D10*
D11*
D10*
D11*
D10*
D11*
D10*
D11*
X197002200Y-191507200D02*
X197002200Y-194507200D01*
D10*
D11*
X261002200Y-191507200D02*
X261002200Y-198007200D01*
D14*
X114170979Y-56794838D02*
X114170979Y-54794838D01*
X114170979Y-54794838D02*
X114647169Y-54794838D01*
X114647169Y-54794838D02*
X114932884Y-54890076D01*
X114932884Y-54890076D02*
X115123360Y-55080552D01*
X115123360Y-55080552D02*
X115218598Y-55271028D01*
X115218598Y-55271028D02*
X115313836Y-55651980D01*
X115313836Y-55651980D02*
X115313836Y-55937695D01*
X115313836Y-55937695D02*
X115218598Y-56318647D01*
X115218598Y-56318647D02*
X115123360Y-56509123D01*
X115123360Y-56509123D02*
X114932884Y-56699600D01*
X114932884Y-56699600D02*
X114647169Y-56794838D01*
X114647169Y-56794838D02*
X114170979Y-56794838D01*
X116932884Y-56699600D02*
X116742408Y-56794838D01*
X116742408Y-56794838D02*
X116361455Y-56794838D01*
X116361455Y-56794838D02*
X116170979Y-56699600D01*
X116170979Y-56699600D02*
X116075741Y-56509123D01*
X116075741Y-56509123D02*
X116075741Y-55747219D01*
X116075741Y-55747219D02*
X116170979Y-55556742D01*
X116170979Y-55556742D02*
X116361455Y-55461504D01*
X116361455Y-55461504D02*
X116742408Y-55461504D01*
X116742408Y-55461504D02*
X116932884Y-55556742D01*
X116932884Y-55556742D02*
X117028122Y-55747219D01*
X117028122Y-55747219D02*
X117028122Y-55937695D01*
X117028122Y-55937695D02*
X116075741Y-56128171D01*
X118647170Y-56699600D02*
X118456694Y-56794838D01*
X118456694Y-56794838D02*
X118075741Y-56794838D01*
X118075741Y-56794838D02*
X117885265Y-56699600D01*
X117885265Y-56699600D02*
X117790027Y-56509123D01*
X117790027Y-56509123D02*
X117790027Y-55747219D01*
X117790027Y-55747219D02*
X117885265Y-55556742D01*
X117885265Y-55556742D02*
X118075741Y-55461504D01*
X118075741Y-55461504D02*
X118456694Y-55461504D01*
X118456694Y-55461504D02*
X118647170Y-55556742D01*
X118647170Y-55556742D02*
X118742408Y-55747219D01*
X118742408Y-55747219D02*
X118742408Y-55937695D01*
X118742408Y-55937695D02*
X117790027Y-56128171D01*
X119599551Y-55461504D02*
X119599551Y-57175790D01*
X119599551Y-57175790D02*
X119504313Y-57366266D01*
X119504313Y-57366266D02*
X119313837Y-57461504D01*
X119313837Y-57461504D02*
X119218599Y-57461504D01*
X119599551Y-54794838D02*
X119504313Y-54890076D01*
X119504313Y-54890076D02*
X119599551Y-54985314D01*
X119599551Y-54985314D02*
X119694789Y-54890076D01*
X119694789Y-54890076D02*
X119599551Y-54794838D01*
X119599551Y-54794838D02*
X119599551Y-54985314D01*
X121885266Y-55461504D02*
X122361456Y-56794838D01*
X122361456Y-56794838D02*
X122837647Y-55461504D01*
X124647171Y-56794838D02*
X123504314Y-56794838D01*
X124075742Y-56794838D02*
X124075742Y-54794838D01*
X124075742Y-54794838D02*
X123885266Y-55080552D01*
X123885266Y-55080552D02*
X123694790Y-55271028D01*
X123694790Y-55271028D02*
X123504314Y-55366266D01*
X125504314Y-56604361D02*
X125599552Y-56699600D01*
X125599552Y-56699600D02*
X125504314Y-56794838D01*
X125504314Y-56794838D02*
X125409076Y-56699600D01*
X125409076Y-56699600D02*
X125504314Y-56604361D01*
X125504314Y-56604361D02*
X125504314Y-56794838D01*
X126837647Y-54794838D02*
X127028124Y-54794838D01*
X127028124Y-54794838D02*
X127218600Y-54890076D01*
X127218600Y-54890076D02*
X127313838Y-54985314D01*
X127313838Y-54985314D02*
X127409076Y-55175790D01*
X127409076Y-55175790D02*
X127504314Y-55556742D01*
X127504314Y-55556742D02*
X127504314Y-56032933D01*
X127504314Y-56032933D02*
X127409076Y-56413885D01*
X127409076Y-56413885D02*
X127313838Y-56604361D01*
X127313838Y-56604361D02*
X127218600Y-56699600D01*
X127218600Y-56699600D02*
X127028124Y-56794838D01*
X127028124Y-56794838D02*
X126837647Y-56794838D01*
X126837647Y-56794838D02*
X126647171Y-56699600D01*
X126647171Y-56699600D02*
X126551933Y-56604361D01*
X126551933Y-56604361D02*
X126456695Y-56413885D01*
X126456695Y-56413885D02*
X126361457Y-56032933D01*
X126361457Y-56032933D02*
X126361457Y-55556742D01*
X126361457Y-55556742D02*
X126456695Y-55175790D01*
X126456695Y-55175790D02*
X126551933Y-54985314D01*
X126551933Y-54985314D02*
X126647171Y-54890076D01*
X126647171Y-54890076D02*
X126837647Y-54794838D01*
D10*
X185483332Y-73758200D02*
X185340475Y-73710580D01*
X185340475Y-73710580D02*
X185102380Y-73710580D01*
X185102380Y-73710580D02*
X185007142Y-73758200D01*
X185007142Y-73758200D02*
X184959523Y-73805819D01*
X184959523Y-73805819D02*
X184911904Y-73901057D01*
X184911904Y-73901057D02*
X184911904Y-73996295D01*
X184911904Y-73996295D02*
X184959523Y-74091533D01*
X184959523Y-74091533D02*
X185007142Y-74139152D01*
X185007142Y-74139152D02*
X185102380Y-74186771D01*
X185102380Y-74186771D02*
X185292856Y-74234390D01*
X185292856Y-74234390D02*
X185388094Y-74282009D01*
X185388094Y-74282009D02*
X185435713Y-74329628D01*
X185435713Y-74329628D02*
X185483332Y-74424866D01*
X185483332Y-74424866D02*
X185483332Y-74520104D01*
X185483332Y-74520104D02*
X185435713Y-74615342D01*
X185435713Y-74615342D02*
X185388094Y-74662961D01*
X185388094Y-74662961D02*
X185292856Y-74710580D01*
X185292856Y-74710580D02*
X185054761Y-74710580D01*
X185054761Y-74710580D02*
X184911904Y-74662961D01*
X184578570Y-74710580D02*
X184340475Y-73710580D01*
X184340475Y-73710580D02*
X184149999Y-74424866D01*
X184149999Y-74424866D02*
X183959523Y-73710580D01*
X183959523Y-73710580D02*
X183721428Y-74710580D01*
X182816666Y-73710580D02*
X183388094Y-73710580D01*
X183102380Y-73710580D02*
X183102380Y-74710580D01*
X183102380Y-74710580D02*
X183197618Y-74567723D01*
X183197618Y-74567723D02*
X183292856Y-74472485D01*
X183292856Y-74472485D02*
X183388094Y-74424866D01*
X136036476Y-102581419D02*
X136369809Y-103581419D01*
X136369809Y-103581419D02*
X136703142Y-102581419D01*
X137607904Y-103581419D02*
X137274571Y-103105228D01*
X137036476Y-103581419D02*
X137036476Y-102581419D01*
X137036476Y-102581419D02*
X137417428Y-102581419D01*
X137417428Y-102581419D02*
X137512666Y-102629038D01*
X137512666Y-102629038D02*
X137560285Y-102676657D01*
X137560285Y-102676657D02*
X137607904Y-102771895D01*
X137607904Y-102771895D02*
X137607904Y-102914752D01*
X137607904Y-102914752D02*
X137560285Y-103009990D01*
X137560285Y-103009990D02*
X137512666Y-103057609D01*
X137512666Y-103057609D02*
X137417428Y-103105228D01*
X137417428Y-103105228D02*
X137036476Y-103105228D01*
X137941238Y-102581419D02*
X138560285Y-102581419D01*
X138560285Y-102581419D02*
X138226952Y-102962371D01*
X138226952Y-102962371D02*
X138369809Y-102962371D01*
X138369809Y-102962371D02*
X138465047Y-103009990D01*
X138465047Y-103009990D02*
X138512666Y-103057609D01*
X138512666Y-103057609D02*
X138560285Y-103152847D01*
X138560285Y-103152847D02*
X138560285Y-103390942D01*
X138560285Y-103390942D02*
X138512666Y-103486180D01*
X138512666Y-103486180D02*
X138465047Y-103533800D01*
X138465047Y-103533800D02*
X138369809Y-103581419D01*
X138369809Y-103581419D02*
X138084095Y-103581419D01*
X138084095Y-103581419D02*
X137988857Y-103533800D01*
X137988857Y-103533800D02*
X137941238Y-103486180D01*
X136036476Y-133061419D02*
X136369809Y-134061419D01*
X136369809Y-134061419D02*
X136703142Y-133061419D01*
X137607904Y-134061419D02*
X137274571Y-133585228D01*
X137036476Y-134061419D02*
X137036476Y-133061419D01*
X137036476Y-133061419D02*
X137417428Y-133061419D01*
X137417428Y-133061419D02*
X137512666Y-133109038D01*
X137512666Y-133109038D02*
X137560285Y-133156657D01*
X137560285Y-133156657D02*
X137607904Y-133251895D01*
X137607904Y-133251895D02*
X137607904Y-133394752D01*
X137607904Y-133394752D02*
X137560285Y-133489990D01*
X137560285Y-133489990D02*
X137512666Y-133537609D01*
X137512666Y-133537609D02*
X137417428Y-133585228D01*
X137417428Y-133585228D02*
X137036476Y-133585228D01*
X138512666Y-133061419D02*
X138036476Y-133061419D01*
X138036476Y-133061419D02*
X137988857Y-133537609D01*
X137988857Y-133537609D02*
X138036476Y-133489990D01*
X138036476Y-133489990D02*
X138131714Y-133442371D01*
X138131714Y-133442371D02*
X138369809Y-133442371D01*
X138369809Y-133442371D02*
X138465047Y-133489990D01*
X138465047Y-133489990D02*
X138512666Y-133537609D01*
X138512666Y-133537609D02*
X138560285Y-133632847D01*
X138560285Y-133632847D02*
X138560285Y-133870942D01*
X138560285Y-133870942D02*
X138512666Y-133966180D01*
X138512666Y-133966180D02*
X138465047Y-134013800D01*
X138465047Y-134013800D02*
X138369809Y-134061419D01*
X138369809Y-134061419D02*
X138131714Y-134061419D01*
X138131714Y-134061419D02*
X138036476Y-134013800D01*
X138036476Y-134013800D02*
X137988857Y-133966180D01*
X136036476Y-148301419D02*
X136369809Y-149301419D01*
X136369809Y-149301419D02*
X136703142Y-148301419D01*
X137607904Y-149301419D02*
X137274571Y-148825228D01*
X137036476Y-149301419D02*
X137036476Y-148301419D01*
X137036476Y-148301419D02*
X137417428Y-148301419D01*
X137417428Y-148301419D02*
X137512666Y-148349038D01*
X137512666Y-148349038D02*
X137560285Y-148396657D01*
X137560285Y-148396657D02*
X137607904Y-148491895D01*
X137607904Y-148491895D02*
X137607904Y-148634752D01*
X137607904Y-148634752D02*
X137560285Y-148729990D01*
X137560285Y-148729990D02*
X137512666Y-148777609D01*
X137512666Y-148777609D02*
X137417428Y-148825228D01*
X137417428Y-148825228D02*
X137036476Y-148825228D01*
X138465047Y-148301419D02*
X138274571Y-148301419D01*
X138274571Y-148301419D02*
X138179333Y-148349038D01*
X138179333Y-148349038D02*
X138131714Y-148396657D01*
X138131714Y-148396657D02*
X138036476Y-148539514D01*
X138036476Y-148539514D02*
X137988857Y-148729990D01*
X137988857Y-148729990D02*
X137988857Y-149110942D01*
X137988857Y-149110942D02*
X138036476Y-149206180D01*
X138036476Y-149206180D02*
X138084095Y-149253800D01*
X138084095Y-149253800D02*
X138179333Y-149301419D01*
X138179333Y-149301419D02*
X138369809Y-149301419D01*
X138369809Y-149301419D02*
X138465047Y-149253800D01*
X138465047Y-149253800D02*
X138512666Y-149206180D01*
X138512666Y-149206180D02*
X138560285Y-149110942D01*
X138560285Y-149110942D02*
X138560285Y-148872847D01*
X138560285Y-148872847D02*
X138512666Y-148777609D01*
X138512666Y-148777609D02*
X138465047Y-148729990D01*
X138465047Y-148729990D02*
X138369809Y-148682371D01*
X138369809Y-148682371D02*
X138179333Y-148682371D01*
X138179333Y-148682371D02*
X138084095Y-148729990D01*
X138084095Y-148729990D02*
X138036476Y-148777609D01*
X138036476Y-148777609D02*
X137988857Y-148872847D01*
X185483332Y-104238200D02*
X185340475Y-104190580D01*
X185340475Y-104190580D02*
X185102380Y-104190580D01*
X185102380Y-104190580D02*
X185007142Y-104238200D01*
X185007142Y-104238200D02*
X184959523Y-104285819D01*
X184959523Y-104285819D02*
X184911904Y-104381057D01*
X184911904Y-104381057D02*
X184911904Y-104476295D01*
X184911904Y-104476295D02*
X184959523Y-104571533D01*
X184959523Y-104571533D02*
X185007142Y-104619152D01*
X185007142Y-104619152D02*
X185102380Y-104666771D01*
X185102380Y-104666771D02*
X185292856Y-104714390D01*
X185292856Y-104714390D02*
X185388094Y-104762009D01*
X185388094Y-104762009D02*
X185435713Y-104809628D01*
X185435713Y-104809628D02*
X185483332Y-104904866D01*
X185483332Y-104904866D02*
X185483332Y-105000104D01*
X185483332Y-105000104D02*
X185435713Y-105095342D01*
X185435713Y-105095342D02*
X185388094Y-105142961D01*
X185388094Y-105142961D02*
X185292856Y-105190580D01*
X185292856Y-105190580D02*
X185054761Y-105190580D01*
X185054761Y-105190580D02*
X184911904Y-105142961D01*
X184578570Y-105190580D02*
X184340475Y-104190580D01*
X184340475Y-104190580D02*
X184149999Y-104904866D01*
X184149999Y-104904866D02*
X183959523Y-104190580D01*
X183959523Y-104190580D02*
X183721428Y-105190580D01*
X183435713Y-105190580D02*
X182816666Y-105190580D01*
X182816666Y-105190580D02*
X183149999Y-104809628D01*
X183149999Y-104809628D02*
X183007142Y-104809628D01*
X183007142Y-104809628D02*
X182911904Y-104762009D01*
X182911904Y-104762009D02*
X182864285Y-104714390D01*
X182864285Y-104714390D02*
X182816666Y-104619152D01*
X182816666Y-104619152D02*
X182816666Y-104381057D01*
X182816666Y-104381057D02*
X182864285Y-104285819D01*
X182864285Y-104285819D02*
X182911904Y-104238200D01*
X182911904Y-104238200D02*
X183007142Y-104190580D01*
X183007142Y-104190580D02*
X183292856Y-104190580D01*
X183292856Y-104190580D02*
X183388094Y-104238200D01*
X183388094Y-104238200D02*
X183435713Y-104285819D01*
X136036476Y-117821419D02*
X136369809Y-118821419D01*
X136369809Y-118821419D02*
X136703142Y-117821419D01*
X137607904Y-118821419D02*
X137274571Y-118345228D01*
X137036476Y-118821419D02*
X137036476Y-117821419D01*
X137036476Y-117821419D02*
X137417428Y-117821419D01*
X137417428Y-117821419D02*
X137512666Y-117869038D01*
X137512666Y-117869038D02*
X137560285Y-117916657D01*
X137560285Y-117916657D02*
X137607904Y-118011895D01*
X137607904Y-118011895D02*
X137607904Y-118154752D01*
X137607904Y-118154752D02*
X137560285Y-118249990D01*
X137560285Y-118249990D02*
X137512666Y-118297609D01*
X137512666Y-118297609D02*
X137417428Y-118345228D01*
X137417428Y-118345228D02*
X137036476Y-118345228D01*
X138465047Y-118154752D02*
X138465047Y-118821419D01*
X138226952Y-117773800D02*
X137988857Y-118488085D01*
X137988857Y-118488085D02*
X138607904Y-118488085D01*
D11*
X150664104Y-57864285D02*
X150664104Y-57388095D01*
X150949819Y-57959523D02*
X149949819Y-57626190D01*
X149949819Y-57626190D02*
X150949819Y-57292857D01*
X150949819Y-56435714D02*
X150949819Y-57007142D01*
X150949819Y-56721428D02*
X149949819Y-56721428D01*
X149949819Y-56721428D02*
X150092676Y-56816666D01*
X150092676Y-56816666D02*
X150187914Y-56911904D01*
X150187914Y-56911904D02*
X150235533Y-57007142D01*
X190589819Y-58411904D02*
X191399342Y-58411904D01*
X191399342Y-58411904D02*
X191494580Y-58364285D01*
X191494580Y-58364285D02*
X191542200Y-58316666D01*
X191542200Y-58316666D02*
X191589819Y-58221428D01*
X191589819Y-58221428D02*
X191589819Y-58030952D01*
X191589819Y-58030952D02*
X191542200Y-57935714D01*
X191542200Y-57935714D02*
X191494580Y-57888095D01*
X191494580Y-57888095D02*
X191399342Y-57840476D01*
X191399342Y-57840476D02*
X190589819Y-57840476D01*
X191542200Y-57411904D02*
X191589819Y-57269047D01*
X191589819Y-57269047D02*
X191589819Y-57030952D01*
X191589819Y-57030952D02*
X191542200Y-56935714D01*
X191542200Y-56935714D02*
X191494580Y-56888095D01*
X191494580Y-56888095D02*
X191399342Y-56840476D01*
X191399342Y-56840476D02*
X191304104Y-56840476D01*
X191304104Y-56840476D02*
X191208866Y-56888095D01*
X191208866Y-56888095D02*
X191161247Y-56935714D01*
X191161247Y-56935714D02*
X191113628Y-57030952D01*
X191113628Y-57030952D02*
X191066009Y-57221428D01*
X191066009Y-57221428D02*
X191018390Y-57316666D01*
X191018390Y-57316666D02*
X190970771Y-57364285D01*
X190970771Y-57364285D02*
X190875533Y-57411904D01*
X190875533Y-57411904D02*
X190780295Y-57411904D01*
X190780295Y-57411904D02*
X190685057Y-57364285D01*
X190685057Y-57364285D02*
X190637438Y-57316666D01*
X190637438Y-57316666D02*
X190589819Y-57221428D01*
X190589819Y-57221428D02*
X190589819Y-56983333D01*
X190589819Y-56983333D02*
X190637438Y-56840476D01*
X191066009Y-56078571D02*
X191113628Y-55935714D01*
X191113628Y-55935714D02*
X191161247Y-55888095D01*
X191161247Y-55888095D02*
X191256485Y-55840476D01*
X191256485Y-55840476D02*
X191399342Y-55840476D01*
X191399342Y-55840476D02*
X191494580Y-55888095D01*
X191494580Y-55888095D02*
X191542200Y-55935714D01*
X191542200Y-55935714D02*
X191589819Y-56030952D01*
X191589819Y-56030952D02*
X191589819Y-56411904D01*
X191589819Y-56411904D02*
X190589819Y-56411904D01*
X190589819Y-56411904D02*
X190589819Y-56078571D01*
X190589819Y-56078571D02*
X190637438Y-55983333D01*
X190637438Y-55983333D02*
X190685057Y-55935714D01*
X190685057Y-55935714D02*
X190780295Y-55888095D01*
X190780295Y-55888095D02*
X190875533Y-55888095D01*
X190875533Y-55888095D02*
X190970771Y-55935714D01*
X190970771Y-55935714D02*
X191018390Y-55983333D01*
X191018390Y-55983333D02*
X191066009Y-56078571D01*
X191066009Y-56078571D02*
X191066009Y-56411904D01*
D10*
X185483332Y-119478200D02*
X185340475Y-119430580D01*
X185340475Y-119430580D02*
X185102380Y-119430580D01*
X185102380Y-119430580D02*
X185007142Y-119478200D01*
X185007142Y-119478200D02*
X184959523Y-119525819D01*
X184959523Y-119525819D02*
X184911904Y-119621057D01*
X184911904Y-119621057D02*
X184911904Y-119716295D01*
X184911904Y-119716295D02*
X184959523Y-119811533D01*
X184959523Y-119811533D02*
X185007142Y-119859152D01*
X185007142Y-119859152D02*
X185102380Y-119906771D01*
X185102380Y-119906771D02*
X185292856Y-119954390D01*
X185292856Y-119954390D02*
X185388094Y-120002009D01*
X185388094Y-120002009D02*
X185435713Y-120049628D01*
X185435713Y-120049628D02*
X185483332Y-120144866D01*
X185483332Y-120144866D02*
X185483332Y-120240104D01*
X185483332Y-120240104D02*
X185435713Y-120335342D01*
X185435713Y-120335342D02*
X185388094Y-120382961D01*
X185388094Y-120382961D02*
X185292856Y-120430580D01*
X185292856Y-120430580D02*
X185054761Y-120430580D01*
X185054761Y-120430580D02*
X184911904Y-120382961D01*
X184578570Y-120430580D02*
X184340475Y-119430580D01*
X184340475Y-119430580D02*
X184149999Y-120144866D01*
X184149999Y-120144866D02*
X183959523Y-119430580D01*
X183959523Y-119430580D02*
X183721428Y-120430580D01*
X182911904Y-120097247D02*
X182911904Y-119430580D01*
X183149999Y-120478200D02*
X183388094Y-119763914D01*
X183388094Y-119763914D02*
X182769047Y-119763914D01*
X185483332Y-149958200D02*
X185340475Y-149910580D01*
X185340475Y-149910580D02*
X185102380Y-149910580D01*
X185102380Y-149910580D02*
X185007142Y-149958200D01*
X185007142Y-149958200D02*
X184959523Y-150005819D01*
X184959523Y-150005819D02*
X184911904Y-150101057D01*
X184911904Y-150101057D02*
X184911904Y-150196295D01*
X184911904Y-150196295D02*
X184959523Y-150291533D01*
X184959523Y-150291533D02*
X185007142Y-150339152D01*
X185007142Y-150339152D02*
X185102380Y-150386771D01*
X185102380Y-150386771D02*
X185292856Y-150434390D01*
X185292856Y-150434390D02*
X185388094Y-150482009D01*
X185388094Y-150482009D02*
X185435713Y-150529628D01*
X185435713Y-150529628D02*
X185483332Y-150624866D01*
X185483332Y-150624866D02*
X185483332Y-150720104D01*
X185483332Y-150720104D02*
X185435713Y-150815342D01*
X185435713Y-150815342D02*
X185388094Y-150862961D01*
X185388094Y-150862961D02*
X185292856Y-150910580D01*
X185292856Y-150910580D02*
X185054761Y-150910580D01*
X185054761Y-150910580D02*
X184911904Y-150862961D01*
X184578570Y-150910580D02*
X184340475Y-149910580D01*
X184340475Y-149910580D02*
X184149999Y-150624866D01*
X184149999Y-150624866D02*
X183959523Y-149910580D01*
X183959523Y-149910580D02*
X183721428Y-150910580D01*
X182911904Y-150910580D02*
X183102380Y-150910580D01*
X183102380Y-150910580D02*
X183197618Y-150862961D01*
X183197618Y-150862961D02*
X183245237Y-150815342D01*
X183245237Y-150815342D02*
X183340475Y-150672485D01*
X183340475Y-150672485D02*
X183388094Y-150482009D01*
X183388094Y-150482009D02*
X183388094Y-150101057D01*
X183388094Y-150101057D02*
X183340475Y-150005819D01*
X183340475Y-150005819D02*
X183292856Y-149958200D01*
X183292856Y-149958200D02*
X183197618Y-149910580D01*
X183197618Y-149910580D02*
X183007142Y-149910580D01*
X183007142Y-149910580D02*
X182911904Y-149958200D01*
X182911904Y-149958200D02*
X182864285Y-150005819D01*
X182864285Y-150005819D02*
X182816666Y-150101057D01*
X182816666Y-150101057D02*
X182816666Y-150339152D01*
X182816666Y-150339152D02*
X182864285Y-150434390D01*
X182864285Y-150434390D02*
X182911904Y-150482009D01*
X182911904Y-150482009D02*
X183007142Y-150529628D01*
X183007142Y-150529628D02*
X183197618Y-150529628D01*
X183197618Y-150529628D02*
X183292856Y-150482009D01*
X183292856Y-150482009D02*
X183340475Y-150434390D01*
X183340475Y-150434390D02*
X183388094Y-150339152D01*
X136036476Y-72101419D02*
X136369809Y-73101419D01*
X136369809Y-73101419D02*
X136703142Y-72101419D01*
X137607904Y-73101419D02*
X137274571Y-72625228D01*
X137036476Y-73101419D02*
X137036476Y-72101419D01*
X137036476Y-72101419D02*
X137417428Y-72101419D01*
X137417428Y-72101419D02*
X137512666Y-72149038D01*
X137512666Y-72149038D02*
X137560285Y-72196657D01*
X137560285Y-72196657D02*
X137607904Y-72291895D01*
X137607904Y-72291895D02*
X137607904Y-72434752D01*
X137607904Y-72434752D02*
X137560285Y-72529990D01*
X137560285Y-72529990D02*
X137512666Y-72577609D01*
X137512666Y-72577609D02*
X137417428Y-72625228D01*
X137417428Y-72625228D02*
X137036476Y-72625228D01*
X138560285Y-73101419D02*
X137988857Y-73101419D01*
X138274571Y-73101419D02*
X138274571Y-72101419D01*
X138274571Y-72101419D02*
X138179333Y-72244276D01*
X138179333Y-72244276D02*
X138084095Y-72339514D01*
X138084095Y-72339514D02*
X137988857Y-72387133D01*
X185483332Y-134718200D02*
X185340475Y-134670580D01*
X185340475Y-134670580D02*
X185102380Y-134670580D01*
X185102380Y-134670580D02*
X185007142Y-134718200D01*
X185007142Y-134718200D02*
X184959523Y-134765819D01*
X184959523Y-134765819D02*
X184911904Y-134861057D01*
X184911904Y-134861057D02*
X184911904Y-134956295D01*
X184911904Y-134956295D02*
X184959523Y-135051533D01*
X184959523Y-135051533D02*
X185007142Y-135099152D01*
X185007142Y-135099152D02*
X185102380Y-135146771D01*
X185102380Y-135146771D02*
X185292856Y-135194390D01*
X185292856Y-135194390D02*
X185388094Y-135242009D01*
X185388094Y-135242009D02*
X185435713Y-135289628D01*
X185435713Y-135289628D02*
X185483332Y-135384866D01*
X185483332Y-135384866D02*
X185483332Y-135480104D01*
X185483332Y-135480104D02*
X185435713Y-135575342D01*
X185435713Y-135575342D02*
X185388094Y-135622961D01*
X185388094Y-135622961D02*
X185292856Y-135670580D01*
X185292856Y-135670580D02*
X185054761Y-135670580D01*
X185054761Y-135670580D02*
X184911904Y-135622961D01*
X184578570Y-135670580D02*
X184340475Y-134670580D01*
X184340475Y-134670580D02*
X184149999Y-135384866D01*
X184149999Y-135384866D02*
X183959523Y-134670580D01*
X183959523Y-134670580D02*
X183721428Y-135670580D01*
X182864285Y-135670580D02*
X183340475Y-135670580D01*
X183340475Y-135670580D02*
X183388094Y-135194390D01*
X183388094Y-135194390D02*
X183340475Y-135242009D01*
X183340475Y-135242009D02*
X183245237Y-135289628D01*
X183245237Y-135289628D02*
X183007142Y-135289628D01*
X183007142Y-135289628D02*
X182911904Y-135242009D01*
X182911904Y-135242009D02*
X182864285Y-135194390D01*
X182864285Y-135194390D02*
X182816666Y-135099152D01*
X182816666Y-135099152D02*
X182816666Y-134861057D01*
X182816666Y-134861057D02*
X182864285Y-134765819D01*
X182864285Y-134765819D02*
X182911904Y-134718200D01*
X182911904Y-134718200D02*
X183007142Y-134670580D01*
X183007142Y-134670580D02*
X183245237Y-134670580D01*
X183245237Y-134670580D02*
X183340475Y-134718200D01*
X183340475Y-134718200D02*
X183388094Y-134765819D01*
X185483332Y-88998200D02*
X185340475Y-88950580D01*
X185340475Y-88950580D02*
X185102380Y-88950580D01*
X185102380Y-88950580D02*
X185007142Y-88998200D01*
X185007142Y-88998200D02*
X184959523Y-89045819D01*
X184959523Y-89045819D02*
X184911904Y-89141057D01*
X184911904Y-89141057D02*
X184911904Y-89236295D01*
X184911904Y-89236295D02*
X184959523Y-89331533D01*
X184959523Y-89331533D02*
X185007142Y-89379152D01*
X185007142Y-89379152D02*
X185102380Y-89426771D01*
X185102380Y-89426771D02*
X185292856Y-89474390D01*
X185292856Y-89474390D02*
X185388094Y-89522009D01*
X185388094Y-89522009D02*
X185435713Y-89569628D01*
X185435713Y-89569628D02*
X185483332Y-89664866D01*
X185483332Y-89664866D02*
X185483332Y-89760104D01*
X185483332Y-89760104D02*
X185435713Y-89855342D01*
X185435713Y-89855342D02*
X185388094Y-89902961D01*
X185388094Y-89902961D02*
X185292856Y-89950580D01*
X185292856Y-89950580D02*
X185054761Y-89950580D01*
X185054761Y-89950580D02*
X184911904Y-89902961D01*
X184578570Y-89950580D02*
X184340475Y-88950580D01*
X184340475Y-88950580D02*
X184149999Y-89664866D01*
X184149999Y-89664866D02*
X183959523Y-88950580D01*
X183959523Y-88950580D02*
X183721428Y-89950580D01*
X183388094Y-89855342D02*
X183340475Y-89902961D01*
X183340475Y-89902961D02*
X183245237Y-89950580D01*
X183245237Y-89950580D02*
X183007142Y-89950580D01*
X183007142Y-89950580D02*
X182911904Y-89902961D01*
X182911904Y-89902961D02*
X182864285Y-89855342D01*
X182864285Y-89855342D02*
X182816666Y-89760104D01*
X182816666Y-89760104D02*
X182816666Y-89664866D01*
X182816666Y-89664866D02*
X182864285Y-89522009D01*
X182864285Y-89522009D02*
X183435713Y-88950580D01*
X183435713Y-88950580D02*
X182816666Y-88950580D01*
X136036476Y-87341419D02*
X136369809Y-88341419D01*
X136369809Y-88341419D02*
X136703142Y-87341419D01*
X137607904Y-88341419D02*
X137274571Y-87865228D01*
X137036476Y-88341419D02*
X137036476Y-87341419D01*
X137036476Y-87341419D02*
X137417428Y-87341419D01*
X137417428Y-87341419D02*
X137512666Y-87389038D01*
X137512666Y-87389038D02*
X137560285Y-87436657D01*
X137560285Y-87436657D02*
X137607904Y-87531895D01*
X137607904Y-87531895D02*
X137607904Y-87674752D01*
X137607904Y-87674752D02*
X137560285Y-87769990D01*
X137560285Y-87769990D02*
X137512666Y-87817609D01*
X137512666Y-87817609D02*
X137417428Y-87865228D01*
X137417428Y-87865228D02*
X137036476Y-87865228D01*
X137988857Y-87436657D02*
X138036476Y-87389038D01*
X138036476Y-87389038D02*
X138131714Y-87341419D01*
X138131714Y-87341419D02*
X138369809Y-87341419D01*
X138369809Y-87341419D02*
X138465047Y-87389038D01*
X138465047Y-87389038D02*
X138512666Y-87436657D01*
X138512666Y-87436657D02*
X138560285Y-87531895D01*
X138560285Y-87531895D02*
X138560285Y-87627133D01*
X138560285Y-87627133D02*
X138512666Y-87769990D01*
X138512666Y-87769990D02*
X137941238Y-88341419D01*
X137941238Y-88341419D02*
X138560285Y-88341419D01*
%TO.C,SW1*%
X189230000Y-74930000D02*
X179070000Y-74930000D01*
X179070000Y-74930000D02*
X179070000Y-69850000D01*
X179070000Y-69850000D02*
X189230000Y-69850000D01*
X189230000Y-69850000D02*
X189230000Y-74930000D01*
%TO.C,VR3*%
X105850000Y-99060000D02*
X131250000Y-99060000D01*
X105850000Y-101600000D02*
X106950000Y-101600000D01*
X107350000Y-101600000D02*
X108450000Y-101600000D01*
X108850000Y-101600000D02*
X109950000Y-101600000D01*
X110350000Y-101600000D02*
X111450000Y-101600000D01*
X111850000Y-101600000D02*
X112950000Y-101600000D01*
X113350000Y-101600000D02*
X114450000Y-101600000D01*
X114850000Y-101600000D02*
X115950000Y-101600000D01*
X116350000Y-101600000D02*
X117450000Y-101600000D01*
X117850000Y-101600000D02*
X118950000Y-101600000D01*
X119350000Y-101600000D02*
X120450000Y-101600000D01*
X120850000Y-101600000D02*
X121950000Y-101600000D01*
X122350000Y-101600000D02*
X123450000Y-101600000D01*
X123850000Y-101600000D02*
X124950000Y-101600000D01*
X125350000Y-101600000D02*
X126450000Y-101600000D01*
X126850000Y-101600000D02*
X127950000Y-101600000D01*
X128350000Y-101600000D02*
X129450000Y-101600000D01*
X129850000Y-101600000D02*
X130950000Y-101600000D01*
X131350000Y-101600000D02*
X132450000Y-101600000D01*
X132850000Y-101600000D02*
X133950000Y-101600000D01*
X134350000Y-101600000D02*
X135450000Y-101600000D01*
X135850000Y-101600000D02*
X136950000Y-101600000D01*
X137350000Y-101600000D02*
X138450000Y-101600000D01*
X138850000Y-101600000D02*
X139950000Y-101600000D01*
X140350000Y-101600000D02*
X141450000Y-101600000D01*
X141850000Y-101600000D02*
X142950000Y-101600000D01*
X143350000Y-101600000D02*
X144450000Y-101600000D01*
X144850000Y-101600000D02*
X145950000Y-101600000D01*
X146350000Y-101600000D02*
X147450000Y-101600000D01*
X147850000Y-101600000D02*
X148950000Y-101600000D01*
X149350000Y-101600000D02*
X150450000Y-101600000D01*
X150850000Y-101600000D02*
X151950000Y-101600000D01*
X152350000Y-101600000D02*
X153450000Y-101600000D01*
X153850000Y-101600000D02*
X154950000Y-101600000D01*
X155350000Y-101600000D02*
X156450000Y-101600000D01*
X105850000Y-104140000D02*
X131250000Y-104140000D01*
X105850000Y-106680000D02*
X106950000Y-106680000D01*
X107350000Y-106680000D02*
X108450000Y-106680000D01*
X108850000Y-106680000D02*
X109950000Y-106680000D01*
X110350000Y-106680000D02*
X111450000Y-106680000D01*
X111850000Y-106680000D02*
X112950000Y-106680000D01*
X113350000Y-106680000D02*
X114450000Y-106680000D01*
X114850000Y-106680000D02*
X115950000Y-106680000D01*
X116350000Y-106680000D02*
X117450000Y-106680000D01*
X117850000Y-106680000D02*
X118950000Y-106680000D01*
X119350000Y-106680000D02*
X120450000Y-106680000D01*
X120850000Y-106680000D02*
X121950000Y-106680000D01*
X122350000Y-106680000D02*
X123450000Y-106680000D01*
X123850000Y-106680000D02*
X124950000Y-106680000D01*
X125350000Y-106680000D02*
X126450000Y-106680000D01*
X126850000Y-106680000D02*
X127950000Y-106680000D01*
X128350000Y-106680000D02*
X129450000Y-106680000D01*
X129850000Y-106680000D02*
X130950000Y-106680000D01*
X131350000Y-106680000D02*
X132450000Y-106680000D01*
X132850000Y-106680000D02*
X133950000Y-106680000D01*
X134350000Y-106680000D02*
X135450000Y-106680000D01*
X135850000Y-106680000D02*
X136950000Y-106680000D01*
X137350000Y-106680000D02*
X138450000Y-106680000D01*
X138850000Y-106680000D02*
X139950000Y-106680000D01*
X140350000Y-106680000D02*
X141450000Y-106680000D01*
X141850000Y-106680000D02*
X142950000Y-106680000D01*
X143350000Y-106680000D02*
X144450000Y-106680000D01*
X144850000Y-106680000D02*
X145950000Y-106680000D01*
X146350000Y-106680000D02*
X147450000Y-106680000D01*
X147850000Y-106680000D02*
X148950000Y-106680000D01*
X149350000Y-106680000D02*
X150450000Y-106680000D01*
X150850000Y-106680000D02*
X151950000Y-106680000D01*
X152350000Y-106680000D02*
X153450000Y-106680000D01*
X153850000Y-106680000D02*
X154950000Y-106680000D01*
X155350000Y-106680000D02*
X156450000Y-106680000D01*
X131250000Y-99060000D02*
X131250000Y-101600000D01*
X131250000Y-104140000D02*
X131250000Y-106680000D01*
X96250000Y-98140000D02*
X166250000Y-98140000D01*
X166250000Y-98140000D02*
X166250000Y-107640000D01*
X166250000Y-107640000D02*
X96250000Y-107640000D01*
X96250000Y-107640000D02*
X96250000Y-98140000D01*
%TO.C,VR5*%
X105850000Y-129540000D02*
X131250000Y-129540000D01*
X105850000Y-132080000D02*
X106950000Y-132080000D01*
X107350000Y-132080000D02*
X108450000Y-132080000D01*
X108850000Y-132080000D02*
X109950000Y-132080000D01*
X110350000Y-132080000D02*
X111450000Y-132080000D01*
X111850000Y-132080000D02*
X112950000Y-132080000D01*
X113350000Y-132080000D02*
X114450000Y-132080000D01*
X114850000Y-132080000D02*
X115950000Y-132080000D01*
X116350000Y-132080000D02*
X117450000Y-132080000D01*
X117850000Y-132080000D02*
X118950000Y-132080000D01*
X119350000Y-132080000D02*
X120450000Y-132080000D01*
X120850000Y-132080000D02*
X121950000Y-132080000D01*
X122350000Y-132080000D02*
X123450000Y-132080000D01*
X123850000Y-132080000D02*
X124950000Y-132080000D01*
X125350000Y-132080000D02*
X126450000Y-132080000D01*
X126850000Y-132080000D02*
X127950000Y-132080000D01*
X128350000Y-132080000D02*
X129450000Y-132080000D01*
X129850000Y-132080000D02*
X130950000Y-132080000D01*
X131350000Y-132080000D02*
X132450000Y-132080000D01*
X132850000Y-132080000D02*
X133950000Y-132080000D01*
X134350000Y-132080000D02*
X135450000Y-132080000D01*
X135850000Y-132080000D02*
X136950000Y-132080000D01*
X137350000Y-132080000D02*
X138450000Y-132080000D01*
X138850000Y-132080000D02*
X139950000Y-132080000D01*
X140350000Y-132080000D02*
X141450000Y-132080000D01*
X141850000Y-132080000D02*
X142950000Y-132080000D01*
X143350000Y-132080000D02*
X144450000Y-132080000D01*
X144850000Y-132080000D02*
X145950000Y-132080000D01*
X146350000Y-132080000D02*
X147450000Y-132080000D01*
X147850000Y-132080000D02*
X148950000Y-132080000D01*
X149350000Y-132080000D02*
X150450000Y-132080000D01*
X150850000Y-132080000D02*
X151950000Y-132080000D01*
X152350000Y-132080000D02*
X153450000Y-132080000D01*
X153850000Y-132080000D02*
X154950000Y-132080000D01*
X155350000Y-132080000D02*
X156450000Y-132080000D01*
X105850000Y-134620000D02*
X131250000Y-134620000D01*
X105850000Y-137160000D02*
X106950000Y-137160000D01*
X107350000Y-137160000D02*
X108450000Y-137160000D01*
X108850000Y-137160000D02*
X109950000Y-137160000D01*
X110350000Y-137160000D02*
X111450000Y-137160000D01*
X111850000Y-137160000D02*
X112950000Y-137160000D01*
X113350000Y-137160000D02*
X114450000Y-137160000D01*
X114850000Y-137160000D02*
X115950000Y-137160000D01*
X116350000Y-137160000D02*
X117450000Y-137160000D01*
X117850000Y-137160000D02*
X118950000Y-137160000D01*
X119350000Y-137160000D02*
X120450000Y-137160000D01*
X120850000Y-137160000D02*
X121950000Y-137160000D01*
X122350000Y-137160000D02*
X123450000Y-137160000D01*
X123850000Y-137160000D02*
X124950000Y-137160000D01*
X125350000Y-137160000D02*
X126450000Y-137160000D01*
X126850000Y-137160000D02*
X127950000Y-137160000D01*
X128350000Y-137160000D02*
X129450000Y-137160000D01*
X129850000Y-137160000D02*
X130950000Y-137160000D01*
X131350000Y-137160000D02*
X132450000Y-137160000D01*
X132850000Y-137160000D02*
X133950000Y-137160000D01*
X134350000Y-137160000D02*
X135450000Y-137160000D01*
X135850000Y-137160000D02*
X136950000Y-137160000D01*
X137350000Y-137160000D02*
X138450000Y-137160000D01*
X138850000Y-137160000D02*
X139950000Y-137160000D01*
X140350000Y-137160000D02*
X141450000Y-137160000D01*
X141850000Y-137160000D02*
X142950000Y-137160000D01*
X143350000Y-137160000D02*
X144450000Y-137160000D01*
X144850000Y-137160000D02*
X145950000Y-137160000D01*
X146350000Y-137160000D02*
X147450000Y-137160000D01*
X147850000Y-137160000D02*
X148950000Y-137160000D01*
X149350000Y-137160000D02*
X150450000Y-137160000D01*
X150850000Y-137160000D02*
X151950000Y-137160000D01*
X152350000Y-137160000D02*
X153450000Y-137160000D01*
X153850000Y-137160000D02*
X154950000Y-137160000D01*
X155350000Y-137160000D02*
X156450000Y-137160000D01*
X131250000Y-129540000D02*
X131250000Y-132080000D01*
X131250000Y-134620000D02*
X131250000Y-137160000D01*
X96250000Y-128620000D02*
X166250000Y-128620000D01*
X166250000Y-128620000D02*
X166250000Y-138120000D01*
X166250000Y-138120000D02*
X96250000Y-138120000D01*
X96250000Y-138120000D02*
X96250000Y-128620000D01*
%TO.C,VR6*%
X105850000Y-144780000D02*
X131250000Y-144780000D01*
X105850000Y-147320000D02*
X106950000Y-147320000D01*
X107350000Y-147320000D02*
X108450000Y-147320000D01*
X108850000Y-147320000D02*
X109950000Y-147320000D01*
X110350000Y-147320000D02*
X111450000Y-147320000D01*
X111850000Y-147320000D02*
X112950000Y-147320000D01*
X113350000Y-147320000D02*
X114450000Y-147320000D01*
X114850000Y-147320000D02*
X115950000Y-147320000D01*
X116350000Y-147320000D02*
X117450000Y-147320000D01*
X117850000Y-147320000D02*
X118950000Y-147320000D01*
X119350000Y-147320000D02*
X120450000Y-147320000D01*
X120850000Y-147320000D02*
X121950000Y-147320000D01*
X122350000Y-147320000D02*
X123450000Y-147320000D01*
X123850000Y-147320000D02*
X124950000Y-147320000D01*
X125350000Y-147320000D02*
X126450000Y-147320000D01*
X126850000Y-147320000D02*
X127950000Y-147320000D01*
X128350000Y-147320000D02*
X129450000Y-147320000D01*
X129850000Y-147320000D02*
X130950000Y-147320000D01*
X131350000Y-147320000D02*
X132450000Y-147320000D01*
X132850000Y-147320000D02*
X133950000Y-147320000D01*
X134350000Y-147320000D02*
X135450000Y-147320000D01*
X135850000Y-147320000D02*
X136950000Y-147320000D01*
X137350000Y-147320000D02*
X138450000Y-147320000D01*
X138850000Y-147320000D02*
X139950000Y-147320000D01*
X140350000Y-147320000D02*
X141450000Y-147320000D01*
X141850000Y-147320000D02*
X142950000Y-147320000D01*
X143350000Y-147320000D02*
X144450000Y-147320000D01*
X144850000Y-147320000D02*
X145950000Y-147320000D01*
X146350000Y-147320000D02*
X147450000Y-147320000D01*
X147850000Y-147320000D02*
X148950000Y-147320000D01*
X149350000Y-147320000D02*
X150450000Y-147320000D01*
X150850000Y-147320000D02*
X151950000Y-147320000D01*
X152350000Y-147320000D02*
X153450000Y-147320000D01*
X153850000Y-147320000D02*
X154950000Y-147320000D01*
X155350000Y-147320000D02*
X156450000Y-147320000D01*
X105850000Y-149860000D02*
X131250000Y-149860000D01*
X105850000Y-152400000D02*
X106950000Y-152400000D01*
X107350000Y-152400000D02*
X108450000Y-152400000D01*
X108850000Y-152400000D02*
X109950000Y-152400000D01*
X110350000Y-152400000D02*
X111450000Y-152400000D01*
X111850000Y-152400000D02*
X112950000Y-152400000D01*
X113350000Y-152400000D02*
X114450000Y-152400000D01*
X114850000Y-152400000D02*
X115950000Y-152400000D01*
X116350000Y-152400000D02*
X117450000Y-152400000D01*
X117850000Y-152400000D02*
X118950000Y-152400000D01*
X119350000Y-152400000D02*
X120450000Y-152400000D01*
X120850000Y-152400000D02*
X121950000Y-152400000D01*
X122350000Y-152400000D02*
X123450000Y-152400000D01*
X123850000Y-152400000D02*
X124950000Y-152400000D01*
X125350000Y-152400000D02*
X126450000Y-152400000D01*
X126850000Y-152400000D02*
X127950000Y-152400000D01*
X128350000Y-152400000D02*
X129450000Y-152400000D01*
X129850000Y-152400000D02*
X130950000Y-152400000D01*
X131350000Y-152400000D02*
X132450000Y-152400000D01*
X132850000Y-152400000D02*
X133950000Y-152400000D01*
X134350000Y-152400000D02*
X135450000Y-152400000D01*
X135850000Y-152400000D02*
X136950000Y-152400000D01*
X137350000Y-152400000D02*
X138450000Y-152400000D01*
X138850000Y-152400000D02*
X139950000Y-152400000D01*
X140350000Y-152400000D02*
X141450000Y-152400000D01*
X141850000Y-152400000D02*
X142950000Y-152400000D01*
X143350000Y-152400000D02*
X144450000Y-152400000D01*
X144850000Y-152400000D02*
X145950000Y-152400000D01*
X146350000Y-152400000D02*
X147450000Y-152400000D01*
X147850000Y-152400000D02*
X148950000Y-152400000D01*
X149350000Y-152400000D02*
X150450000Y-152400000D01*
X150850000Y-152400000D02*
X151950000Y-152400000D01*
X152350000Y-152400000D02*
X153450000Y-152400000D01*
X153850000Y-152400000D02*
X154950000Y-152400000D01*
X155350000Y-152400000D02*
X156450000Y-152400000D01*
X131250000Y-144780000D02*
X131250000Y-147320000D01*
X131250000Y-149860000D02*
X131250000Y-152400000D01*
X96250000Y-143860000D02*
X166250000Y-143860000D01*
X166250000Y-143860000D02*
X166250000Y-153360000D01*
X166250000Y-153360000D02*
X96250000Y-153360000D01*
X96250000Y-153360000D02*
X96250000Y-143860000D01*
%TO.C,SW3*%
X189230000Y-105410000D02*
X179070000Y-105410000D01*
X179070000Y-105410000D02*
X179070000Y-100330000D01*
X179070000Y-100330000D02*
X189230000Y-100330000D01*
X189230000Y-100330000D02*
X189230000Y-105410000D01*
%TO.C,VR4*%
X105850000Y-114300000D02*
X131250000Y-114300000D01*
X105850000Y-116840000D02*
X106950000Y-116840000D01*
X107350000Y-116840000D02*
X108450000Y-116840000D01*
X108850000Y-116840000D02*
X109950000Y-116840000D01*
X110350000Y-116840000D02*
X111450000Y-116840000D01*
X111850000Y-116840000D02*
X112950000Y-116840000D01*
X113350000Y-116840000D02*
X114450000Y-116840000D01*
X114850000Y-116840000D02*
X115950000Y-116840000D01*
X116350000Y-116840000D02*
X117450000Y-116840000D01*
X117850000Y-116840000D02*
X118950000Y-116840000D01*
X119350000Y-116840000D02*
X120450000Y-116840000D01*
X120850000Y-116840000D02*
X121950000Y-116840000D01*
X122350000Y-116840000D02*
X123450000Y-116840000D01*
X123850000Y-116840000D02*
X124950000Y-116840000D01*
X125350000Y-116840000D02*
X126450000Y-116840000D01*
X126850000Y-116840000D02*
X127950000Y-116840000D01*
X128350000Y-116840000D02*
X129450000Y-116840000D01*
X129850000Y-116840000D02*
X130950000Y-116840000D01*
X131350000Y-116840000D02*
X132450000Y-116840000D01*
X132850000Y-116840000D02*
X133950000Y-116840000D01*
X134350000Y-116840000D02*
X135450000Y-116840000D01*
X135850000Y-116840000D02*
X136950000Y-116840000D01*
X137350000Y-116840000D02*
X138450000Y-116840000D01*
X138850000Y-116840000D02*
X139950000Y-116840000D01*
X140350000Y-116840000D02*
X141450000Y-116840000D01*
X141850000Y-116840000D02*
X142950000Y-116840000D01*
X143350000Y-116840000D02*
X144450000Y-116840000D01*
X144850000Y-116840000D02*
X145950000Y-116840000D01*
X146350000Y-116840000D02*
X147450000Y-116840000D01*
X147850000Y-116840000D02*
X148950000Y-116840000D01*
X149350000Y-116840000D02*
X150450000Y-116840000D01*
X150850000Y-116840000D02*
X151950000Y-116840000D01*
X152350000Y-116840000D02*
X153450000Y-116840000D01*
X153850000Y-116840000D02*
X154950000Y-116840000D01*
X155350000Y-116840000D02*
X156450000Y-116840000D01*
X105850000Y-119380000D02*
X131250000Y-119380000D01*
X105850000Y-121920000D02*
X106950000Y-121920000D01*
X107350000Y-121920000D02*
X108450000Y-121920000D01*
X108850000Y-121920000D02*
X109950000Y-121920000D01*
X110350000Y-121920000D02*
X111450000Y-121920000D01*
X111850000Y-121920000D02*
X112950000Y-121920000D01*
X113350000Y-121920000D02*
X114450000Y-121920000D01*
X114850000Y-121920000D02*
X115950000Y-121920000D01*
X116350000Y-121920000D02*
X117450000Y-121920000D01*
X117850000Y-121920000D02*
X118950000Y-121920000D01*
X119350000Y-121920000D02*
X120450000Y-121920000D01*
X120850000Y-121920000D02*
X121950000Y-121920000D01*
X122350000Y-121920000D02*
X123450000Y-121920000D01*
X123850000Y-121920000D02*
X124950000Y-121920000D01*
X125350000Y-121920000D02*
X126450000Y-121920000D01*
X126850000Y-121920000D02*
X127950000Y-121920000D01*
X128350000Y-121920000D02*
X129450000Y-121920000D01*
X129850000Y-121920000D02*
X130950000Y-121920000D01*
X131350000Y-121920000D02*
X132450000Y-121920000D01*
X132850000Y-121920000D02*
X133950000Y-121920000D01*
X134350000Y-121920000D02*
X135450000Y-121920000D01*
X135850000Y-121920000D02*
X136950000Y-121920000D01*
X137350000Y-121920000D02*
X138450000Y-121920000D01*
X138850000Y-121920000D02*
X139950000Y-121920000D01*
X140350000Y-121920000D02*
X141450000Y-121920000D01*
X141850000Y-121920000D02*
X142950000Y-121920000D01*
X143350000Y-121920000D02*
X144450000Y-121920000D01*
X144850000Y-121920000D02*
X145950000Y-121920000D01*
X146350000Y-121920000D02*
X147450000Y-121920000D01*
X147850000Y-121920000D02*
X148950000Y-121920000D01*
X149350000Y-121920000D02*
X150450000Y-121920000D01*
X150850000Y-121920000D02*
X151950000Y-121920000D01*
X152350000Y-121920000D02*
X153450000Y-121920000D01*
X153850000Y-121920000D02*
X154950000Y-121920000D01*
X155350000Y-121920000D02*
X156450000Y-121920000D01*
X131250000Y-114300000D02*
X131250000Y-116840000D01*
X131250000Y-119380000D02*
X131250000Y-121920000D01*
X96250000Y-113380000D02*
X166250000Y-113380000D01*
X166250000Y-113380000D02*
X166250000Y-122880000D01*
X166250000Y-122880000D02*
X96250000Y-122880000D01*
X96250000Y-122880000D02*
X96250000Y-113380000D01*
D15*
%TO.C,A1*%
X154305000Y-63500000D02*
X154305000Y-66170000D01*
X197615000Y-53210000D02*
X197615000Y-61090000D01*
X195075000Y-48130000D02*
X151635000Y-48130000D01*
X197615000Y-61090000D02*
X187195000Y-61090000D01*
X187195000Y-53210000D02*
X197615000Y-53210000D01*
X195075000Y-48130000D02*
X195075000Y-53210000D01*
X156845000Y-66170000D02*
X195075000Y-66170000D01*
X192405000Y-63500000D02*
X192405000Y-66170000D01*
X154305000Y-50800000D02*
X192405000Y-50800000D01*
X156845000Y-63500000D02*
X154305000Y-63500000D01*
X192405000Y-50800000D02*
X192405000Y-48130000D01*
X154305000Y-50800000D02*
X154305000Y-48130000D01*
X156845000Y-63500000D02*
X156845000Y-66170000D01*
X151635000Y-48130000D02*
X151635000Y-66170000D01*
X195075000Y-66170000D02*
X195075000Y-61090000D01*
X151635000Y-66170000D02*
X154305000Y-66170000D01*
X187195000Y-61090000D02*
X187195000Y-53210000D01*
X156845000Y-63500000D02*
X192405000Y-63500000D01*
D10*
%TO.C,SW4*%
X189230000Y-120650000D02*
X179070000Y-120650000D01*
X179070000Y-120650000D02*
X179070000Y-115570000D01*
X179070000Y-115570000D02*
X189230000Y-115570000D01*
X189230000Y-115570000D02*
X189230000Y-120650000D01*
%TO.C,SW6*%
X189230000Y-151130000D02*
X179070000Y-151130000D01*
X179070000Y-151130000D02*
X179070000Y-146050000D01*
X179070000Y-146050000D02*
X189230000Y-146050000D01*
X189230000Y-146050000D02*
X189230000Y-151130000D01*
%TO.C,VR1*%
X105850000Y-68580000D02*
X131250000Y-68580000D01*
X105850000Y-71120000D02*
X106950000Y-71120000D01*
X107350000Y-71120000D02*
X108450000Y-71120000D01*
X108850000Y-71120000D02*
X109950000Y-71120000D01*
X110350000Y-71120000D02*
X111450000Y-71120000D01*
X111850000Y-71120000D02*
X112950000Y-71120000D01*
X113350000Y-71120000D02*
X114450000Y-71120000D01*
X114850000Y-71120000D02*
X115950000Y-71120000D01*
X116350000Y-71120000D02*
X117450000Y-71120000D01*
X117850000Y-71120000D02*
X118950000Y-71120000D01*
X119350000Y-71120000D02*
X120450000Y-71120000D01*
X120850000Y-71120000D02*
X121950000Y-71120000D01*
X122350000Y-71120000D02*
X123450000Y-71120000D01*
X123850000Y-71120000D02*
X124950000Y-71120000D01*
X125350000Y-71120000D02*
X126450000Y-71120000D01*
X126850000Y-71120000D02*
X127950000Y-71120000D01*
X128350000Y-71120000D02*
X129450000Y-71120000D01*
X129850000Y-71120000D02*
X130950000Y-71120000D01*
X131350000Y-71120000D02*
X132450000Y-71120000D01*
X132850000Y-71120000D02*
X133950000Y-71120000D01*
X134350000Y-71120000D02*
X135450000Y-71120000D01*
X135850000Y-71120000D02*
X136950000Y-71120000D01*
X137350000Y-71120000D02*
X138450000Y-71120000D01*
X138850000Y-71120000D02*
X139950000Y-71120000D01*
X140350000Y-71120000D02*
X141450000Y-71120000D01*
X141850000Y-71120000D02*
X142950000Y-71120000D01*
X143350000Y-71120000D02*
X144450000Y-71120000D01*
X144850000Y-71120000D02*
X145950000Y-71120000D01*
X146350000Y-71120000D02*
X147450000Y-71120000D01*
X147850000Y-71120000D02*
X148950000Y-71120000D01*
X149350000Y-71120000D02*
X150450000Y-71120000D01*
X150850000Y-71120000D02*
X151950000Y-71120000D01*
X152350000Y-71120000D02*
X153450000Y-71120000D01*
X153850000Y-71120000D02*
X154950000Y-71120000D01*
X155350000Y-71120000D02*
X156450000Y-71120000D01*
X105850000Y-73660000D02*
X131250000Y-73660000D01*
X105850000Y-76200000D02*
X106950000Y-76200000D01*
X107350000Y-76200000D02*
X108450000Y-76200000D01*
X108850000Y-76200000D02*
X109950000Y-76200000D01*
X110350000Y-76200000D02*
X111450000Y-76200000D01*
X111850000Y-76200000D02*
X112950000Y-76200000D01*
X113350000Y-76200000D02*
X114450000Y-76200000D01*
X114850000Y-76200000D02*
X115950000Y-76200000D01*
X116350000Y-76200000D02*
X117450000Y-76200000D01*
X117850000Y-76200000D02*
X118950000Y-76200000D01*
X119350000Y-76200000D02*
X120450000Y-76200000D01*
X120850000Y-76200000D02*
X121950000Y-76200000D01*
X122350000Y-76200000D02*
X123450000Y-76200000D01*
X123850000Y-76200000D02*
X124950000Y-76200000D01*
X125350000Y-76200000D02*
X126450000Y-76200000D01*
X126850000Y-76200000D02*
X127950000Y-76200000D01*
X128350000Y-76200000D02*
X129450000Y-76200000D01*
X129850000Y-76200000D02*
X130950000Y-76200000D01*
X131350000Y-76200000D02*
X132450000Y-76200000D01*
X132850000Y-76200000D02*
X133950000Y-76200000D01*
X134350000Y-76200000D02*
X135450000Y-76200000D01*
X135850000Y-76200000D02*
X136950000Y-76200000D01*
X137350000Y-76200000D02*
X138450000Y-76200000D01*
X138850000Y-76200000D02*
X139950000Y-76200000D01*
X140350000Y-76200000D02*
X141450000Y-76200000D01*
X141850000Y-76200000D02*
X142950000Y-76200000D01*
X143350000Y-76200000D02*
X144450000Y-76200000D01*
X144850000Y-76200000D02*
X145950000Y-76200000D01*
X146350000Y-76200000D02*
X147450000Y-76200000D01*
X147850000Y-76200000D02*
X148950000Y-76200000D01*
X149350000Y-76200000D02*
X150450000Y-76200000D01*
X150850000Y-76200000D02*
X151950000Y-76200000D01*
X152350000Y-76200000D02*
X153450000Y-76200000D01*
X153850000Y-76200000D02*
X154950000Y-76200000D01*
X155350000Y-76200000D02*
X156450000Y-76200000D01*
X131250000Y-68580000D02*
X131250000Y-71120000D01*
X131250000Y-73660000D02*
X131250000Y-76200000D01*
X96250000Y-67660000D02*
X166250000Y-67660000D01*
X166250000Y-67660000D02*
X166250000Y-77160000D01*
X166250000Y-77160000D02*
X96250000Y-77160000D01*
X96250000Y-77160000D02*
X96250000Y-67660000D01*
%TO.C,SW5*%
X189230000Y-135890000D02*
X179070000Y-135890000D01*
X179070000Y-135890000D02*
X179070000Y-130810000D01*
X179070000Y-130810000D02*
X189230000Y-130810000D01*
X189230000Y-130810000D02*
X189230000Y-135890000D01*
%TO.C,SW2*%
X189230000Y-90170000D02*
X179070000Y-90170000D01*
X179070000Y-90170000D02*
X179070000Y-85090000D01*
X179070000Y-85090000D02*
X189230000Y-85090000D01*
X189230000Y-85090000D02*
X189230000Y-90170000D01*
%TO.C,VR2*%
X105850000Y-83820000D02*
X131250000Y-83820000D01*
X105850000Y-86360000D02*
X106950000Y-86360000D01*
X107350000Y-86360000D02*
X108450000Y-86360000D01*
X108850000Y-86360000D02*
X109950000Y-86360000D01*
X110350000Y-86360000D02*
X111450000Y-86360000D01*
X111850000Y-86360000D02*
X112950000Y-86360000D01*
X113350000Y-86360000D02*
X114450000Y-86360000D01*
X114850000Y-86360000D02*
X115950000Y-86360000D01*
X116350000Y-86360000D02*
X117450000Y-86360000D01*
X117850000Y-86360000D02*
X118950000Y-86360000D01*
X119350000Y-86360000D02*
X120450000Y-86360000D01*
X120850000Y-86360000D02*
X121950000Y-86360000D01*
X122350000Y-86360000D02*
X123450000Y-86360000D01*
X123850000Y-86360000D02*
X124950000Y-86360000D01*
X125350000Y-86360000D02*
X126450000Y-86360000D01*
X126850000Y-86360000D02*
X127950000Y-86360000D01*
X128350000Y-86360000D02*
X129450000Y-86360000D01*
X129850000Y-86360000D02*
X130950000Y-86360000D01*
X131350000Y-86360000D02*
X132450000Y-86360000D01*
X132850000Y-86360000D02*
X133950000Y-86360000D01*
X134350000Y-86360000D02*
X135450000Y-86360000D01*
X135850000Y-86360000D02*
X136950000Y-86360000D01*
X137350000Y-86360000D02*
X138450000Y-86360000D01*
X138850000Y-86360000D02*
X139950000Y-86360000D01*
X140350000Y-86360000D02*
X141450000Y-86360000D01*
X141850000Y-86360000D02*
X142950000Y-86360000D01*
X143350000Y-86360000D02*
X144450000Y-86360000D01*
X144850000Y-86360000D02*
X145950000Y-86360000D01*
X146350000Y-86360000D02*
X147450000Y-86360000D01*
X147850000Y-86360000D02*
X148950000Y-86360000D01*
X149350000Y-86360000D02*
X150450000Y-86360000D01*
X150850000Y-86360000D02*
X151950000Y-86360000D01*
X152350000Y-86360000D02*
X153450000Y-86360000D01*
X153850000Y-86360000D02*
X154950000Y-86360000D01*
X155350000Y-86360000D02*
X156450000Y-86360000D01*
X105850000Y-88900000D02*
X131250000Y-88900000D01*
X105850000Y-91440000D02*
X106950000Y-91440000D01*
X107350000Y-91440000D02*
X108450000Y-91440000D01*
X108850000Y-91440000D02*
X109950000Y-91440000D01*
X110350000Y-91440000D02*
X111450000Y-91440000D01*
X111850000Y-91440000D02*
X112950000Y-91440000D01*
X113350000Y-91440000D02*
X114450000Y-91440000D01*
X114850000Y-91440000D02*
X115950000Y-91440000D01*
X116350000Y-91440000D02*
X117450000Y-91440000D01*
X117850000Y-91440000D02*
X118950000Y-91440000D01*
X119350000Y-91440000D02*
X120450000Y-91440000D01*
X120850000Y-91440000D02*
X121950000Y-91440000D01*
X122350000Y-91440000D02*
X123450000Y-91440000D01*
X123850000Y-91440000D02*
X124950000Y-91440000D01*
X125350000Y-91440000D02*
X126450000Y-91440000D01*
X126850000Y-91440000D02*
X127950000Y-91440000D01*
X128350000Y-91440000D02*
X129450000Y-91440000D01*
X129850000Y-91440000D02*
X130950000Y-91440000D01*
X131350000Y-91440000D02*
X132450000Y-91440000D01*
X132850000Y-91440000D02*
X133950000Y-91440000D01*
X134350000Y-91440000D02*
X135450000Y-91440000D01*
X135850000Y-91440000D02*
X136950000Y-91440000D01*
X137350000Y-91440000D02*
X138450000Y-91440000D01*
X138850000Y-91440000D02*
X139950000Y-91440000D01*
X140350000Y-91440000D02*
X141450000Y-91440000D01*
X141850000Y-91440000D02*
X142950000Y-91440000D01*
X143350000Y-91440000D02*
X144450000Y-91440000D01*
X144850000Y-91440000D02*
X145950000Y-91440000D01*
X146350000Y-91440000D02*
X147450000Y-91440000D01*
X147850000Y-91440000D02*
X148950000Y-91440000D01*
X149350000Y-91440000D02*
X150450000Y-91440000D01*
X150850000Y-91440000D02*
X151950000Y-91440000D01*
X152350000Y-91440000D02*
X153450000Y-91440000D01*
X153850000Y-91440000D02*
X154950000Y-91440000D01*
X155350000Y-91440000D02*
X156450000Y-91440000D01*
X131250000Y-83820000D02*
X131250000Y-86360000D01*
X131250000Y-88900000D02*
X131250000Y-91440000D01*
X96250000Y-82900000D02*
X166250000Y-82900000D01*
X166250000Y-82900000D02*
X166250000Y-92400000D01*
X166250000Y-92400000D02*
X96250000Y-92400000D01*
X96250000Y-92400000D02*
X96250000Y-82900000D01*
%TD*%
M02*
