M48
; DRILL file {KiCad 7.0.10} date Tue 06 Feb 2024 01:37:59
; FORMAT={-:-/ absolute / inch / decimal}
; #@! TF.CreationDate,2024-02-06T01:37:59+08:00
; #@! TF.GenerationSoftware,Kicad,Pcbnew,7.0.10
; #@! TF.FileFunction,Plated,1,2,PTH
FMAT,2
INCH
; #@! TA.AperFunction,Plated,PTH,ViaDrill
T1C0.0157
; #@! TA.AperFunction,Plated,PTH,ComponentDrill
T2C0.0300
; #@! TA.AperFunction,Plated,PTH,ComponentDrill
T3C0.0315
; #@! TA.AperFunction,Plated,PTH,ComponentDrill
T4C0.0354
; #@! TA.AperFunction,Plated,PTH,ComponentDrill
T5C0.0394
; #@! TA.AperFunction,Plated,PTH,ComponentDrill
T6C0.0591
%
G90
G05
T1
X3.05Y-4.4
X3.55Y-1.9
X3.8Y-4.4
X4.6Y-4.4
X5.4Y-4.4
X6.2Y-4.4
X7.0Y-4.4
X7.8Y-4.4
T2
X3.75Y-5.7053
X3.85Y-2.9494
X3.85Y-5.7053
X3.9Y-2.0
X3.9Y-2.1
X3.9Y-2.2
X3.95Y-5.7053
X4.05Y-2.9494
X4.05Y-5.7053
X4.15Y-1.95
X4.15Y-2.25
X4.25Y-1.95
X4.25Y-2.25
X4.35Y-1.95
X4.35Y-2.25
X4.55Y-5.7053
X4.65Y-2.9494
X4.65Y-5.7053
X4.7Y-2.0
X4.7Y-2.1
X4.7Y-2.2
X4.75Y-5.7053
X4.85Y-2.9494
X4.85Y-5.7053
X4.95Y-1.95
X4.95Y-2.25
X5.05Y-1.95
X5.05Y-2.25
X5.15Y-1.95
X5.15Y-2.25
X5.35Y-5.7053
X5.45Y-2.9494
X5.45Y-5.7053
X5.5Y-2.0
X5.5Y-2.1
X5.5Y-2.2
X5.55Y-5.7053
X5.65Y-2.9494
X5.65Y-5.7053
X5.75Y-1.95
X5.75Y-2.25
X5.85Y-1.95
X5.85Y-2.25
X5.95Y-1.95
X5.95Y-2.25
X6.15Y-5.7053
X6.25Y-2.9494
X6.25Y-5.7053
X6.3Y-2.0
X6.3Y-2.1
X6.3Y-2.2
X6.35Y-5.7053
X6.45Y-2.9494
X6.45Y-5.7053
X6.55Y-1.95
X6.55Y-2.25
X6.65Y-1.95
X6.65Y-2.25
X6.75Y-1.95
X6.75Y-2.25
X6.95Y-5.7053
X7.05Y-2.9494
X7.05Y-5.7053
X7.1Y-1.9947
X7.1Y-2.0947
X7.1Y-2.1947
X7.15Y-5.7053
X7.25Y-2.9494
X7.25Y-5.7053
X7.35Y-1.95
X7.35Y-2.25
X7.45Y-1.95
X7.45Y-2.25
X7.55Y-1.95
X7.55Y-2.25
X7.75Y-5.7053
X7.85Y-2.9494
X7.85Y-5.7053
X7.9Y-2.0
X7.9Y-2.1
X7.9Y-2.2
X7.95Y-5.7053
X8.05Y-2.9494
X8.05Y-5.7053
X8.15Y-1.95
X8.15Y-2.25
X8.25Y-1.95
X8.25Y-2.25
X8.35Y-1.95
X8.35Y-2.25
T3
X4.1Y-2.4
X4.1Y-2.8
X4.25Y-2.4
X4.25Y-2.8
X4.4Y-2.4
X4.4Y-2.8
X4.9Y-2.4
X4.9Y-2.8
X5.05Y-2.4
X5.05Y-2.8
X5.2Y-2.4
X5.2Y-2.8
X5.7Y-2.4
X5.7Y-2.8
X5.85Y-2.4
X5.85Y-2.8
X6.0Y-2.4
X6.0Y-2.8
X6.5Y-2.4
X6.5Y-2.8
X6.65Y-2.4
X6.65Y-2.8
X6.8Y-2.4
X6.8Y-2.8
X7.3Y-2.4
X7.3Y-2.8
X7.45Y-2.4
X7.45Y-2.8
X7.6Y-2.4
X7.6Y-2.8
X8.1Y-2.4
X8.1Y-2.8
X8.25Y-2.4
X8.25Y-2.8
X8.4Y-2.4
X8.4Y-2.8
T4
X3.9Y-2.45
X3.9Y-2.5
X3.9Y-2.55
X3.9Y-2.6
X4.7Y-2.45
X4.7Y-2.5
X4.7Y-2.55
X4.7Y-2.6
X5.5Y-2.45
X5.5Y-2.5
X5.5Y-2.55
X5.5Y-2.6
X6.3Y-2.45
X6.3Y-2.5
X6.3Y-2.55
X6.3Y-2.6
X7.1Y-2.45
X7.1Y-2.5
X7.1Y-2.55
X7.1Y-2.6
X7.9Y-2.45
X7.9Y-2.5
X7.9Y-2.55
X7.9Y-2.6
T5
X2.95Y-2.0
X2.95Y-2.1
X2.95Y-2.2
X2.95Y-2.3
X2.95Y-2.4
X2.95Y-2.5
X2.95Y-2.6
X2.95Y-2.7
X2.95Y-2.8
X2.95Y-2.9
X2.95Y-3.0
X2.95Y-3.1
X2.95Y-3.2
X2.95Y-3.3
X2.95Y-3.4
X3.55Y-2.0
X3.55Y-2.1
X3.55Y-2.2
X3.55Y-2.3
X3.55Y-2.4
X3.55Y-2.5
X3.55Y-2.6
X3.55Y-2.7
X3.55Y-2.8
X3.55Y-2.9
X3.55Y-3.0
X3.55Y-3.1
X3.55Y-3.2
X3.55Y-3.3
X3.55Y-3.4
T6
X3.9Y-3.4219
X3.9Y-5.3116
X4.7Y-3.4219
X4.7Y-5.3116
X5.5Y-3.4219
X5.5Y-5.3116
X6.3Y-3.4219
X6.3Y-5.3116
X7.1Y-3.4219
X7.1Y-5.3116
X7.9Y-3.4219
X7.9Y-5.3116
M30
